<?xml version="1.0" encoding="UTF-8"?>
<svg id="acorn" data-name="Layer 2" xmlns="http://www.w3.org/2000/svg" xmlns:xlink="http://www.w3.org/1999/xlink" viewBox="0 0 144.22 181">
  <defs>
    <style>
      .cls-1 {
        fill: url(#linear-gradient-2);
      }

      .cls-2 {
        fill: #603813;
      }

      .cls-3 {
        fill: #c69c6d;
      }

      .cls-4 {
        fill: url(#linear-gradient);
      }
    </style>
    <linearGradient id="linear-gradient" x1="13.01" y1="121.75" x2="131.89" y2="121.75" gradientUnits="userSpaceOnUse">
      <stop offset="0" stop-color="#c69c6d"/>
      <stop offset=".27" stop-color="#c19869"/>
      <stop offset=".53" stop-color="#b58c5e"/>
      <stop offset=".8" stop-color="#a1784d"/>
      <stop offset="1" stop-color="#8d643b"/>
    </linearGradient>
    <linearGradient id="linear-gradient-2" x1="82.86" y1="44.1" x2="82.86" y2="0" gradientUnits="userSpaceOnUse">
      <stop offset="0" stop-color="#301b0b"/>
      <stop offset=".13" stop-color="#3b220c"/>
      <stop offset=".42" stop-color="#4f2e10"/>
      <stop offset=".71" stop-color="#5b3512"/>
      <stop offset="1" stop-color="#603813"/>
    </linearGradient>
  </defs>
  <g id="acorn">
    <g>
      <path class="cls-3" d="m72.45,181c-1.87,0-3.39-2.43-3.39-5.42v-2.03c0-2.99,1.52-5.42,3.39-5.42s3.39,2.43,3.39,5.42v2.03c0,2.99-1.52,5.42-3.39,5.42Z"/>
      <path class="cls-4" d="m73.73,177.61h-2.49c-3.62-1.15-8.95-2.94-15.3-5.42-10.9-4.25-20.14-7.86-25.87-12.07-3.42-2.51-15.68-12.65-17.06-42.21v-25.2c0-14.82,11.71-26.83,26.17-26.83h72.24c11.31,0,20.47,9.4,20.47,20.99v31.1c-1.5,29.63-13.09,39.37-17.04,42.16-4.94,3.5-12.66,6.55-26.55,12.05-6.08,2.4-11.15,4.22-14.57,5.42Z"/>
      <path class="cls-2" d="m49.78,32.71h44.66c27.48,0,49.78,22.31,49.78,49.78h0c0,9.15-7.43,16.57-16.57,16.57H16.57C7.43,99.07,0,91.64,0,82.5H0C0,55.02,22.31,32.71,49.78,32.71Z"/>
      <path class="cls-1" d="m70.83,44h0c-2.88-.52-5.01-2.95-5.16-5.87-.66-12.57.15-24.04,5.7-33.52.14-.25.3-.49.48-.71,1.81-2.29,4.49-4.31,7.22-3.82l16.16,2.9c3.37.6,6.9,5.69,3.89,7.34-12.15,6.69-19.08,21-21.12,29.09-.8,3.18-3.95,5.17-7.18,4.6Z"/>
    </g>
  </g>
</svg>