<?xml version="1.0" encoding="UTF-8"?>
<svg id="Layer_2" data-name="Layer 2" xmlns="http://www.w3.org/2000/svg" xmlns:xlink="http://www.w3.org/1999/xlink" viewBox="0 0 165.81 462.1">
  <defs>
    <style>
      .cls-1 {
        fill: url(#linear-gradient-2);
      }

      .cls-2 {
        fill: url(#linear-gradient-6);
      }

      .cls-3 {
        fill: #0071bc;
      }

      .cls-4 {
        fill: url(#linear-gradient-5);
      }

      .cls-5 {
        fill: url(#linear-gradient-3);
      }

      .cls-6 {
        fill: url(#linear-gradient);
      }

      .cls-7 {
        fill: url(#linear-gradient-4);
      }
    </style>
    <linearGradient id="linear-gradient" x1="559.48" y1="366.52" x2="560.6" y2="341.12" gradientTransform="translate(599.45 -36.65) rotate(-177.49) scale(1 -1)" gradientUnits="userSpaceOnUse">
      <stop offset="0" stop-color="#0071bc"/>
      <stop offset=".37" stop-color="#006bb1"/>
      <stop offset="1" stop-color="#005b97"/>
    </linearGradient>
    <linearGradient id="linear-gradient-2" x1="528.07" y1="245.93" x2="525.94" y2="220.7" gradientTransform="translate(558.77 66.34) rotate(-180) scale(1 -1)" xlink:href="#linear-gradient"/>
    <linearGradient id="linear-gradient-3" x1="571.83" y1="519.41" x2="576.8" y2="494.85" gradientTransform="translate(680.6 -96.84) rotate(-168.56) scale(1 -1)" gradientUnits="userSpaceOnUse">
      <stop offset="0" stop-color="#0071bc"/>
      <stop offset=".37" stop-color="#006bb1"/>
      <stop offset="1" stop-color="#005b97"/>
    </linearGradient>
    <linearGradient id="linear-gradient-4" x1="163.85" y1="348.26" x2="164.97" y2="322.86" gradientTransform="translate(-37.59 -36.65) rotate(-2.51)" xlink:href="#linear-gradient"/>
    <linearGradient id="linear-gradient-5" x1="133.34" y1="278.3" x2="131.21" y2="253.07" gradientTransform="translate(263.56 520.86) rotate(-180)" xlink:href="#linear-gradient"/>
    <linearGradient id="linear-gradient-6" x1="183.82" y1="440" x2="188.79" y2="415.43" gradientTransform="translate(-118.73 -96.84) rotate(-11.44)" xlink:href="#linear-gradient-3"/>
  </defs>
  <g id="blue-bird_front">
    <g>
      <g>
        <path class="cls-6" d="m32.82,380.23h0c-9.43-1.01-17.06-13.17-17.04-27.18l.23-153.13c.01-9.34,5.13-16.37,11.42-15.7h0c3.14.34,5.68,4.39,5.67,9.05l-.29,186.96Z"/>
        <path class="cls-1" d="m35.99,179.73h0c3.12,0,5.66,2.54,5.66,5.66v190.63h0c-9.38,0-17-7.62-17-17v-167.95c0-6.26,5.08-11.34,11.34-11.34Z" transform="translate(-23.23 3.77) rotate(-4.82)"/>
        <path class="cls-5" d="m14.39,375.45h0c-9.31-3.17-15.66-16.82-14.17-30.5l16.23-149.57c.99-9.12,6.83-14.81,13.04-12.7h0c3.1,1.05,5.21,5.6,4.72,10.15l-19.81,182.61Z"/>
      </g>
      <g>
        <path class="cls-7" d="m132.99,379.32h0c9.43-1.01,17.06-13.17,17.04-27.18l-.23-153.13c-.01-9.34-5.13-16.37-11.42-15.7h0c-3.14.34-5.68,4.39-5.67,9.05l.29,186.96Z"/>
        <path class="cls-4" d="m141.16,178.82h0v190.63c0,3.12-2.54,5.66-5.66,5.66h0c-6.26,0-11.34-5.08-11.34-11.34v-167.95c0-9.38,7.62-17,17-17Z" transform="translate(241.59 564.09) rotate(-175.18)"/>
        <path class="cls-2" d="m151.42,374.54h0c9.31-3.17,15.66-16.82,14.17-30.5l-16.23-149.57c-.99-9.12-6.83-14.81-13.04-12.7h0c-3.1,1.05-5.21,5.6-4.72,10.15l19.81,182.61Z"/>
      </g>
      <rect x="98.15" y="300.82" width="4.68" height="150.55" rx="2.34" ry="2.34"/>
      <rect x="64.75" y="301.25" width="4.68" height="150.55" rx="2.34" ry="2.34"/>
      <path class="cls-3" d="m81.6,22.96h1.52c36.33,0,65.82,29.49,65.82,65.82v13.56c0,28.07-22.79,50.86-50.86,50.86h-30.26c-28.37,0-51.4-23.03-51.4-51.4v-13.67c0-35.97,29.2-65.18,65.18-65.18Z"/>
      <path class="cls-3" d="m86.22,323.21h-5.56c-33.7,0-60.13-28.91-57.13-62.47l6.78-75.81c2.06-23.06,21.38-40.73,44.53-40.73h18.2c22.6,0,41.46,17.25,43.47,39.76l6.86,76.77c3,33.57-23.44,62.48-57.14,62.48Z"/>
      <rect x="39.69" y="78.51" width="8" height="13.91" rx="3.96" ry="3.96"/>
      <rect x="115.57" y="78.51" width="8.09" height="13.91" rx="4" ry="4"/>
      <rect x="57.02" y="441.58" width="5.06" height="19.75" rx="2.53" ry="2.53" transform="translate(489.55 301.6) rotate(78.3)"/>
      <rect x="104.18" y="444.75" width="5.06" height="19.75" rx="2.53" ry="2.53" transform="translate(-301.43 227.69) rotate(-47.72)"/>
      <path d="m77.87,108.32l-1.09-1.04c-3.01-2.88-3.05-7.5-.09-10.32l1.07-1.02c3.56-3.39,9.37-3.34,12.99.11l6.55,6.25-6.44,6.14c-3.56,3.39-9.37,3.34-12.99-.11Z"/>
      <path class="cls-3" d="m86.23,25.85h-5.59c-10.88,0-19.7-8.41-19.7-18.79h0c0-2.94,2.5-5.33,5.59-5.33h0c10.88,0,19.7,8.41,19.7,18.79v5.33Z"/>
      <path class="cls-3" d="m87.8,26.06l3.71-2.61c7.22-5.08,8.76-14.78,3.44-21.66h0c-1.51-1.95-4.39-2.37-6.44-.93h0c-7.22,5.08-8.76,14.78-3.44,21.66l2.73,3.54Z"/>
    </g>
  </g>
</svg>