<?xml version="1.0" encoding="UTF-8"?>
<svg id="Layer_2" data-name="Layer 2" xmlns="http://www.w3.org/2000/svg" xmlns:xlink="http://www.w3.org/1999/xlink" viewBox="0 0 197.94 452.24">
  <defs>
    <style>
      .cls-1 {
        fill: url(#linear-gradient-2);
      }

      .cls-2 {
        fill: url(#linear-gradient-6);
      }

      .cls-3 {
        fill: #0071bc;
      }

      .cls-4 {
        fill: url(#linear-gradient-5);
      }

      .cls-5 {
        fill: url(#linear-gradient-7);
      }

      .cls-6 {
        fill: url(#linear-gradient-3);
      }

      .cls-7 {
        fill: url(#linear-gradient);
      }

      .cls-8 {
        fill: url(#linear-gradient-4);
      }

      .cls-9 {
        fill: url(#linear-gradient-8);
      }
    </style>
    <linearGradient id="linear-gradient" x1="-996.4" y1="-211.36" x2="-996.54" y2="-201.08" gradientTransform="translate(-944.38 524.07) rotate(-180) scale(1 -1.31)" gradientUnits="userSpaceOnUse">
      <stop offset="0" stop-color="#005b97"/>
      <stop offset=".33" stop-color="#005d9b"/>
      <stop offset=".66" stop-color="#0064a7"/>
      <stop offset=".99" stop-color="#0070bb"/>
      <stop offset="1" stop-color="#0071bc"/>
    </linearGradient>
    <linearGradient id="linear-gradient-2" x1="-1004.48" y1="-206.99" x2="-1004.63" y2="-196.71" gradientTransform="translate(-952.8 534.78) rotate(-180) scale(1 -1.31)" xlink:href="#linear-gradient"/>
    <linearGradient id="linear-gradient-3" x1="172.41" y1="349.86" x2="173.52" y2="324.46" gradientTransform="translate(-14.08 -51.74) rotate(-2.51)" gradientUnits="userSpaceOnUse">
      <stop offset="0" stop-color="#0071bc"/>
      <stop offset=".37" stop-color="#006bb1"/>
      <stop offset="1" stop-color="#005b97"/>
    </linearGradient>
    <linearGradient id="linear-gradient-4" x1="208.71" y1="231.93" x2="206.58" y2="206.7" gradientTransform="translate(371.06 460.63) rotate(-180)" xlink:href="#linear-gradient-3"/>
    <linearGradient id="linear-gradient-5" x1="103.62" y1="487.89" x2="108.59" y2="463.33" gradientTransform="translate(-17.49 -173.55) rotate(-11.44)" gradientUnits="userSpaceOnUse">
      <stop offset="0" stop-color="#0071bc"/>
      <stop offset=".37" stop-color="#006bb1"/>
      <stop offset="1" stop-color="#005b97"/>
    </linearGradient>
    <linearGradient id="linear-gradient-6" x1="-172.98" y1="356.43" x2="-171.86" y2="331.03" gradientTransform="translate(-82.46 -77.61) rotate(-176.34) scale(1 -1)" xlink:href="#linear-gradient-3"/>
    <linearGradient id="linear-gradient-7" x1="-135.05" y1="282.69" x2="-137.17" y2="257.46" gradientTransform="translate(-74.4 23.24) rotate(176.33) scale(1 -1)" xlink:href="#linear-gradient-3"/>
    <linearGradient id="linear-gradient-8" x1="-237.01" y1="441.13" x2="-232.04" y2="416.57" gradientTransform="translate(-76.6 -199.34) rotate(-167.42) scale(1 -1)" xlink:href="#linear-gradient-5"/>
  </defs>
  <g id="blue-bird_side">
    <g>
      <g>
        <path class="cls-7" d="m55.08,221.41h0c3.12,0,5.66,2.54,5.66,5.66v98.24h0c-9.38,0-17-7.62-17-17v-75.56c0-6.26,5.08-11.34,11.34-11.34Z" transform="translate(327.43 314.83) rotate(109.39)"/>
        <path class="cls-1" d="m54.67,229.74h0c3.12,0,5.66,2.54,5.66,5.66v98.24h0c-9.38,0-17-7.62-17-17v-75.56c0-6.26,5.08-11.34,11.34-11.34Z" transform="translate(334.75 326.32) rotate(109.39)"/>
      </g>
      <g>
        <path class="cls-6" d="m165.12,365.45h0c9.43-1.01,17.06-13.17,17.04-27.18l-.23-153.13c-.01-9.34-5.13-16.37-11.42-15.7h0c-3.14.34-5.68,4.39-5.67,9.05l.29,186.96Z"/>
        <path class="cls-8" d="m173.29,164.95h0v190.63c0,3.12-2.54,5.66-5.66,5.66h0c-6.26,0-11.34-5.08-11.34-11.34v-167.95c0-9.38,7.62-17,17-17Z" transform="translate(306.9 539.11) rotate(-175.18)"/>
        <path class="cls-4" d="m183.55,360.68h0c9.31-3.17,15.66-16.82,14.17-30.5l-16.23-149.57c-.99-9.12-6.83-14.81-13.04-12.7h0c-3.1,1.05-5.21,5.6-4.72,10.15l19.81,182.61Z"/>
      </g>
      <rect x="99.79" y="290.96" width="4.68" height="150.55" rx="2.34" ry="2.34" transform="translate(204.27 732.47) rotate(180)"/>
      <rect x="133.2" y="291.39" width="4.68" height="150.55" rx="2.34" ry="2.34" transform="translate(271.07 733.32) rotate(-180)"/>
      <path class="cls-3" d="m120.35,313.35h-5.56c-33.7,0-60.13-28.91-57.13-62.47l6.78-75.81c2.06-23.06,21.38-40.73,44.53-40.73h18.2c22.6,0,41.46,17.25,43.47,39.76l6.86,76.77c3,33.57-23.44,62.48-57.14,62.48Z"/>
      <g>
        <path class="cls-2" d="m76.15,364.53h0c-11.51-1.23-20.59-13.58-20.28-27.59l3.38-153.09c.21-9.34,6.6-16.24,14.27-15.42h0c3.83.41,6.85,4.52,6.75,9.18l-4.13,186.92Z"/>
        <path class="cls-5" d="m97.09,359.68h0c-11.45.56-21.37-6.58-22.14-15.95l-13.87-167.66c-.52-6.25,5.26-11.63,12.9-12h0c3.81-.19,7.11,2.19,7.37,5.31l15.74,190.31Z"/>
        <path class="cls-9" d="m53.72,359.32h0c-11.32-3.39-18.8-17.2-16.71-30.84l22.86-149.15c1.39-9.1,8.65-14.64,16.2-12.38h0c3.77,1.13,6.26,5.73,5.56,10.27l-27.91,182.1Z"/>
      </g>
      <rect x="140.55" y="431.72" width="5.06" height="19.75" rx="2.53" ry="2.53" transform="translate(604.51 391.04) rotate(101.7)"/>
      <rect x="93.39" y="434.89" width="5.06" height="19.75" rx="2.53" ry="2.53" transform="translate(-168.59 814.97) rotate(-132.28)"/>
      <path class="cls-3" d="m115.97,12.71h1.52c36.33,0,65.82,29.49,65.82,65.82v13.56c0,28.07-22.79,50.86-50.86,50.86h-30.26c-28.37,0-51.4-23.03-51.4-51.4v-13.67c0-35.97,29.2-65.18,65.18-65.18Z"/>
      <rect x="100.06" y="68.27" width="8" height="13.91" rx="3.96" ry="3.96"/>
      <rect x="159.93" y="68.27" width="8.09" height="13.91" rx="4" ry="4"/>
      <path d="m129.13,97.97l-1.07-1.02c-2.96-2.83-2.96-7.41,0-10.23l1.07-1.02c3.56-3.39,9.32-3.39,12.88,0l6.44,6.14-6.44,6.14c-3.56,3.39-9.32,3.39-12.88,0Z"/>
      <path class="cls-3" d="m87.76,23.66l-5.29,3.79c-10.29,7.38-25.99,7.19-35.06-.43h0c-2.57-2.16-2.29-5.61.63-7.71h0c10.29-7.38,25.99-7.19,35.06.43l4.66,3.91Z"/>
      <path class="cls-3" d="m89.43,22.74l1.23-4.43c2.4-8.63-4.62-16.8-15.68-18.25h0c-3.14-.41-6.23,1.24-6.91,3.69h0c-2.4,8.63,4.62,16.8,15.68,18.25l5.68.74Z"/>
    </g>
  </g>
</svg>