<?xml version="1.0" encoding="UTF-8"?>
<svg id="Layer_2" data-name="Layer 2" xmlns="http://www.w3.org/2000/svg" viewBox="0 0 1920 227.08">
  <defs>
    <style>
      .cls-1, .cls-2 {
        fill: #009245;
      }

      .cls-3 {
        fill: #f2f2f2;
        opacity: .62;
      }

      .cls-2, .cls-4 {
        stroke: #006837;
      }

      .cls-2, .cls-4, .cls-5, .cls-6 {
        stroke-miterlimit: 10;
      }

      .cls-7 {
        font-family: Comfortaa-Bold, Comfortaa;
        font-size: 20px;
        font-variation-settings: 'wght' 700;
        font-weight: 700;
      }

      .cls-8 {
        letter-spacing: .21em;
      }

      .cls-9, .cls-4 {
        fill: #39b54a;
      }

      .cls-10 {
        letter-spacing: .25em;
      }

      .cls-5 {
        stroke-width: 4px;
      }

      .cls-5, .cls-6 {
        fill: none;
        stroke: #009245;
        stroke-linecap: round;
      }

      .cls-6 {
        stroke-width: 3px;
      }

      .cls-11 {
        fill: #29abe2;
      }
    </style>
  </defs>
  <g id="footer">
    <g>
      <rect class="cls-1" y="12.65" width="1920" height="208"/>
      <path class="cls-11" d="m838.5,22.65C407.99,22.65,59,65.18,59,117.65c0,12.8,20.78,25.01,58.44,36.15,9.31,2.76,8.15,16.31-1.49,17.48-44.24,5.36-83.23,11.36-115.95,17.88v30.49h1429.39c-.9-.54-1.83-1.08-2.8-1.62-17.57-9.67-12.72-36.18,7.13-39.04,114.96-16.55,184.29-37.96,184.29-61.34,0-52.47-348.99-95-779.5-95Z"/>
      <g>
        <path class="cls-1" d="m1219.9,127.33c0,4.71,2.38,8.84,4.05,11.16.89,1.23,2.41,1.84,3.91,1.57,13.08-2.38,77.64-14,78.59-11.86.68,1.53-24.15,17.25-38.65,26.27-3.23,2.01-2.03,6.98,1.77,7.29,10.38.85,25.49,1.99,36.88,2.44,32.04,1.28,89.38-11.61,86.55-36.87-2.26-20.24-38.75-36.87-86.55-36.87s-86.55,16.51-86.55,36.87Z"/>
        <path class="cls-9" d="m1219.39,121.99c0,4.64,2.38,8.71,4.05,11,.89,1.22,2.41,1.81,3.91,1.54,13.08-2.34,77.64-13.8,78.59-11.69.68,1.51-24.15,17-38.65,25.89-3.23,1.98-2.03,6.88,1.77,7.19,10.38.84,25.49,1.96,36.88,2.41,32.04,1.26,89.38-11.44,86.55-36.34-2.26-19.94-38.75-36.34-86.55-36.34s-86.55,16.27-86.55,36.34Z"/>
        <g>
          <line class="cls-5" x1="1317.91" y1="125.29" x2="1342.41" y2="145.2"/>
          <line class="cls-5" x1="1379.17" y1="118.14" x2="1327.1" y2="120.69"/>
          <line class="cls-6" x1="1334.75" y1="94.66" x2="1319.44" y2="111.51"/>
          <line class="cls-6" x1="1266.86" y1="98.23" x2="1301.57" y2="114.06"/>
        </g>
      </g>
      <path class="cls-9" d="m646.37,91.07c0,3.63,2.11,6.81,3.6,8.6.79.95,2.14,1.42,3.46,1.21,11.61-1.83,68.86-10.79,69.71-9.14.6,1.18-21.42,13.3-34.28,20.25-2.87,1.55-1.8,5.38,1.57,5.62,9.2.65,22.61,1.53,32.72,1.88,28.42.99,79.28-8.94,76.77-28.42-2.01-15.6-34.37-28.42-76.77-28.42s-76.77,12.72-76.77,28.42Z"/>
      <path class="cls-9" d="m1101,150.57c0,3.69-1.93,6.93-3.29,8.75-.72.97-1.96,1.44-3.17,1.23-10.62-1.87-63.04-10.98-63.81-9.3-.55,1.2,19.61,13.53,31.38,20.6,2.63,1.58,1.65,5.48-1.43,5.72-8.42.67-20.7,1.56-29.95,1.92-26.02,1-72.57-9.1-70.27-28.92,1.84-15.87,31.46-28.92,70.27-28.92s70.27,12.95,70.27,28.92Z"/>
      <g>
        <g>
          <path class="cls-1" d="m1423.16,87.78h0c18.78,18.69,27.63,45.16,23.86,71.38l-3.97,27.63h9.95l2.89-20.15c4.35-30.3-8.21-60.55-32.74-78.86h0Z"/>
          <path class="cls-1" d="m1431.14,35.65h0c18.78,27,27.63,65.22,23.86,103.1l-3.97,39.9h9.95l2.89-29.11c4.35-43.76-8.21-87.45-32.74-113.89h0Z"/>
          <path class="cls-9" d="m1420.14,94.64h0c12.78,18.69,18.8,45.16,16.24,71.38l-2.7,27.63h6.77l1.97-20.15c2.96-30.3-5.59-60.55-22.28-78.86h0Z"/>
        </g>
        <g>
          <path class="cls-1" d="m1579.49,139.36h0c11.52,8.14,16.95,19.67,14.64,31.1l-2.43,12.04h6.1l1.78-8.78c2.67-13.2-5.04-26.38-20.09-34.35h0Z"/>
          <path class="cls-1" d="m1584.39,116.65h0c11.52,11.76,16.95,28.41,14.64,44.91l-2.43,17.38h6.1l1.78-12.68c2.67-19.06-5.04-38.1-20.09-49.61h0Z"/>
          <path class="cls-9" d="m1577.64,142.35h0c7.84,8.14,11.54,19.67,9.97,31.1l-1.66,12.04h4.16l1.21-8.78c1.82-13.2-3.43-26.38-13.68-34.35h0Z"/>
        </g>
        <g>
          <path class="cls-2" d="m1733.16,73.49h0c13.44,9.62,19.76,23.25,17.07,36.75l-2.84,14.22h7.12l2.07-10.38c3.11-15.6-5.87-31.17-23.42-40.6h0Z"/>
          <path class="cls-2" d="m1738.87,46.65h0c13.44,13.9,19.76,33.57,17.07,53.08l-2.84,20.54h7.12l2.07-14.99c3.11-22.53-5.87-45.02-23.42-58.63h0Z"/>
          <path class="cls-4" d="m1731,77.02h0c9.15,9.62,13.45,23.25,11.62,36.75l-1.93,14.22h4.84l1.41-10.38c2.12-15.6-4-31.17-15.94-40.6h0Z"/>
        </g>
        <g>
          <path class="cls-2" d="m1845,100.04h0c8.24,4.19,12.13,10.13,10.48,16.01l-1.74,6.2h4.37l1.27-4.52c1.91-6.79-3.6-13.58-14.37-17.68h0Z"/>
          <path class="cls-2" d="m1848.51,88.35h0c8.24,6.05,12.13,14.63,10.48,23.12l-1.74,8.95h4.37l1.27-6.53c1.91-9.81-3.6-19.61-14.37-25.54h0Z"/>
          <path class="cls-4" d="m1843.68,101.58h0c5.61,4.19,8.26,10.13,7.13,16.01l-1.19,6.2h2.97l.86-4.52c1.3-6.79-2.45-13.58-9.78-17.68h0Z"/>
        </g>
        <g>
          <path class="cls-2" d="m1619.88,40.3h0c8.64,14.36,12.71,34.7,10.98,54.85l-1.82,21.23h4.58l1.33-15.49c2-23.28-3.78-46.52-15.06-60.59h0Z"/>
          <path class="cls-2" d="m1623.55.24h0c8.64,20.74,12.71,50.11,10.98,79.22l-1.82,30.66h4.58l1.33-22.37c2-33.62-3.78-67.2-15.06-87.51h0Z"/>
          <path class="cls-4" d="m1618.49,45.57h0c5.88,14.36,8.65,34.7,7.47,54.85l-1.24,21.23h3.12l.91-15.49c1.36-23.28-2.57-46.52-10.25-60.59h0Z"/>
        </g>
        <g>
          <path class="cls-2" d="m1548.44,40.93h0c-6.52,4.19-9.6,10.13-8.29,16.01l1.38,6.2h-3.46l-1-4.52c-1.51-6.79,2.85-13.58,11.37-17.68h0Z"/>
          <path class="cls-2" d="m1545.67,29.24h0c-6.52,6.05-9.6,14.63-8.29,23.12l1.38,8.95h-3.46l-1-6.53c-1.51-9.81,2.85-19.61,11.37-25.54h0Z"/>
          <path class="cls-4" d="m1549.49,42.47h0c-4.44,4.19-6.53,10.13-5.64,16.01l.94,6.2h-2.35l-.68-4.52c-1.03-6.79,1.94-13.58,7.74-17.68h0Z"/>
        </g>
        <g>
          <path class="cls-2" d="m1541.02,110.69h0c-6.52,12-9.6,28.99-8.29,45.82l1.38,17.73h-3.46l-1-12.94c-1.51-19.45,2.85-38.87,11.37-50.62h0Z"/>
          <path class="cls-2" d="m1538.25,77.23h0c-6.52,17.33-9.6,41.86-8.29,66.18l1.38,25.61h-3.46l-1-18.69c-1.51-28.09,2.85-56.13,11.37-73.11h0Z"/>
          <path class="cls-4" d="m1542.07,115.1h0c-4.44,12-6.53,28.99-5.64,45.82l.94,17.73h-2.35l-.68-12.94c-1.03-19.45,1.94-38.87,7.74-50.62h0Z"/>
        </g>
        <g>
          <path class="cls-2" d="m1855.02,172.92h0c-6.52,4.19-9.6,10.13-8.29,16.01l1.38,6.2h-3.46l-1-4.52c-1.51-6.79,2.85-13.58,11.37-17.68h0Z"/>
          <path class="cls-2" d="m1852.25,161.23h0c-6.52,6.05-9.6,14.63-8.29,23.12l1.38,8.95h-3.46l-1-6.53c-1.51-9.81,2.85-19.61,11.37-25.54h0Z"/>
          <path class="cls-4" d="m1856.07,174.46h0c-4.44,4.19-6.53,10.13-5.64,16.01l.94,6.2h-2.35l-.68-4.52c-1.03-6.79,1.94-13.58,7.74-17.68h0Z"/>
        </g>
        <g>
          <path class="cls-1" d="m10.04,38.63h0c7.29,7.26,10.72,17.53,9.26,27.71l-1.54,10.73h3.86l1.12-7.82c1.69-11.76-3.19-23.5-12.71-30.61h0Z"/>
          <path class="cls-1" d="m13.14,18.4h0c7.29,10.48,10.72,25.32,9.26,40.02l-1.54,15.49h3.86l1.12-11.3c1.69-16.99-3.19-33.95-12.71-44.21h0Z"/>
          <path class="cls-9" d="m8.87,41.3h0c4.96,7.26,7.3,17.53,6.31,27.71l-1.05,10.73h2.63l.76-7.82c1.15-11.76-2.17-23.5-8.65-30.61h0Z"/>
        </g>
        <g>
          <path class="cls-1" d="m70.73,58.66h0c4.47,3.16,6.58,7.64,5.68,12.07l-.94,4.67h2.37l.69-3.41c1.04-5.12-1.96-10.24-7.8-13.34h0Z"/>
          <path class="cls-1" d="m72.63,49.84h0c4.47,4.57,6.58,11.03,5.68,17.44l-.94,6.75h2.37l.69-4.92c1.04-7.4-1.96-14.79-7.8-19.26h0Z"/>
          <path class="cls-9" d="m70.01,59.82h0c3.05,3.16,4.48,7.64,3.87,12.07l-.64,4.67h1.61l.47-3.41c.71-5.12-1.33-10.24-5.31-13.34h0Z"/>
        </g>
        <g>
          <path class="cls-2" d="m130.39,33.08h0c5.22,3.74,7.67,9.02,6.63,14.27l-1.1,5.52h2.76l.8-4.03c1.21-6.05-2.28-12.1-9.09-15.76h0Z"/>
          <path class="cls-2" d="m132.6,22.67h0c5.22,5.4,7.67,13.03,6.63,20.6l-1.1,7.97h2.76l.8-5.82c1.21-8.75-2.28-17.48-9.09-22.76h0Z"/>
          <path class="cls-4" d="m129.55,34.46h0c3.55,3.74,5.22,9.02,4.51,14.27l-.75,5.52h1.88l.55-4.03c.82-6.05-1.55-12.1-6.19-15.76h0Z"/>
        </g>
        <g>
          <path class="cls-2" d="m173.8,43.39h0c3.2,1.63,4.71,3.93,4.07,6.21l-.68,2.41h1.7l.49-1.75c.74-2.64-1.4-5.27-5.58-6.87h0Z"/>
          <path class="cls-2" d="m175.16,38.85h0c3.2,2.35,4.71,5.68,4.07,8.98l-.68,3.47h1.7l.49-2.53c.74-3.81-1.4-7.61-5.58-9.92h0Z"/>
          <path class="cls-4" d="m173.29,43.99h0c2.18,1.63,3.21,3.93,2.77,6.21l-.46,2.41h1.15l.34-1.75c.5-2.64-.95-5.27-3.8-6.87h0Z"/>
        </g>
        <g>
          <path class="cls-2" d="m86.41,20.2h0c3.35,5.58,4.93,13.47,4.26,21.29l-.71,8.24h1.78l.52-6.01c.78-9.04-1.47-18.06-5.85-23.52h0Z"/>
          <path class="cls-2" d="m87.83,4.65h0c3.35,8.05,4.93,19.45,4.26,30.75l-.71,11.9h1.78l.52-8.68c.78-13.05-1.47-26.09-5.85-33.97h0Z"/>
          <path class="cls-4" d="m85.87,22.25h0c2.28,5.58,3.36,13.47,2.9,21.29l-.48,8.24h1.21l.35-6.01c.53-9.04-1-18.06-3.98-23.52h0Z"/>
        </g>
        <g>
          <path class="cls-2" d="m58.67,20.45h0c-2.53,1.63-3.73,3.93-3.22,6.21l.53,2.41h-1.34l-.39-1.75c-.59-2.64,1.11-5.27,4.41-6.87h0Z"/>
          <path class="cls-2" d="m57.6,15.91h0c-2.53,2.35-3.73,5.68-3.22,8.98l.53,3.47h-1.34l-.39-2.53c-.59-3.81,1.11-7.61,4.41-9.92h0Z"/>
          <path class="cls-4" d="m59.08,21.04h0c-1.72,1.63-2.54,3.93-2.19,6.21l.36,2.41h-.91l-.27-1.75c-.4-2.64.75-5.27,3-6.87h0Z"/>
        </g>
        <g>
          <path class="cls-2" d="m55.8,47.53h0c-2.53,4.66-3.73,11.25-3.22,17.79l.53,6.88h-1.34l-.39-5.02c-.59-7.55,1.11-15.09,4.41-19.65h0Z"/>
          <path class="cls-2" d="m54.72,34.54h0c-2.53,6.73-3.73,16.25-3.22,25.69l.53,9.94h-1.34l-.39-7.25c-.59-10.9,1.11-21.79,4.41-28.38h0Z"/>
          <path class="cls-4" d="m56.2,49.24h0c-1.72,4.66-2.54,11.25-2.19,17.79l.36,6.88h-.91l-.27-5.02c-.4-7.55.75-15.09,3-19.65h0Z"/>
        </g>
      </g>
      <g>
        <path class="cls-9" d="m619.02,220.65c-9.52-28.58-67.96-50.57-138.64-50.57s-126.01,22.14-137.83,50.57h276.47Z"/>
        <g>
          <line class="cls-6" x1="425.6" y1="180.51" x2="450.37" y2="207.76"/>
          <line class="cls-6" x1="535.42" y1="186.29" x2="479.27" y2="211.89"/>
        </g>
      </g>
      <rect class="cls-3" y="109.65" width="1920" height="110"/>
      <text class="cls-7" transform="translate(789.24 183.16)"><tspan class="cls-10" x="0" y="0">© 2023 IconSto</tspan><tspan class="cls-8" x="227.04" y="0">r</tspan><tspan class="cls-10" x="241" y="0">e</tspan></text>
    </g>
  </g>
</svg>