<?xml version="1.0" encoding="UTF-8"?>
<svg id="Layer_2" data-name="Layer 2" xmlns="http://www.w3.org/2000/svg" xmlns:xlink="http://www.w3.org/1999/xlink" viewBox="0 0 169.25 450.26">
  <defs>
    <style>
      .cls-1 {
        fill: #009245;
      }

      .cls-2 {
        fill: url(#linear-gradient-2);
      }

      .cls-3 {
        fill: none;
        stroke: #000;
        stroke-miterlimit: 10;
      }

      .cls-4 {
        fill: #39b54a;
      }

      .cls-5 {
        fill: url(#linear-gradient);
      }
    </style>
    <linearGradient id="linear-gradient" x1="56.33" y1="261.51" x2="57.61" y2="216.86" gradientTransform="translate(113.05 -.53) rotate(-171.97) scale(1.25 -.93) skewX(-2.32)" gradientUnits="userSpaceOnUse">
      <stop offset="0" stop-color="#009245"/>
      <stop offset="1" stop-color="#005f2d"/>
    </linearGradient>
    <linearGradient id="linear-gradient-2" x1="164.16" y1="222.05" x2="165.44" y2="177.4" gradientTransform="translate(-58.98 47.09) rotate(-7.42) scale(1.14 .95) skewX(-1.65)" xlink:href="#linear-gradient"/>
  </defs>
  <g id="frog_front">
    <g>
      <path class="cls-1" d="m50.18,272.26v138.87c-10.9,6.62-21.81,13.25-32.71,19.87,12.01,16.56,44.71,18.25,44.71,18.25,0,0,17.81-13.78,20.46-18.25-2.82-52.92-5.64-105.83-8.46-158.75h-24Z"/>
      <path class="cls-1" d="m122.18,271.26v140.44c10.9,6.7,21.81,13.4,32.71,20.1-12.01,16.75-44.71,18.46-44.71,18.46,0,0-17.81-13.94-20.46-18.46,2.82-53.51,5.64-107.03,8.46-160.54h24Z"/>
      <g>
        <path class="cls-1" d="m115.99,119.26H47.38c-11.42-1.38-18.35-5.5-22.06-8.3-17.21-12.99-21.25-39.92-9.14-66.9,0-29.07,5.91-35.55,18.82-41.77.19-.09.39-.17.59-.22,23.6-6.13,37.27,1.86,43.81,17.53.94,2.25,4.47,2.19,5.34-.09,5.82-15.3,17.91-23.55,43.02-17.25.1.02.2.05.29.09,16.2,5.37,19.12,18.86,19.12,42.21,12.01,26.75,7.97,53.48-9.14,66.41-3.69,2.79-10.62,6.93-22.06,8.3Z"/>
        <rect x="43.18" y="24.26" width="12" height="17" rx="6" ry="6"/>
        <rect x="110.18" y="24.26" width="12" height="17" rx="6" ry="6"/>
        <line class="cls-3" x1="74.18" y1="71.76" x2="90.68" y2="71.76"/>
        <path class="cls-4" d="m124.29,74.61c0,10.07,8.55,18.23,19.09,18.23,3.04,0,5.92-.68,8.47-1.89,3.5-9.19,3.72-20.64.29-32.53-2.62-1.3-5.6-2.03-8.76-2.03-10.55,0-19.09,8.16-19.09,18.23Z"/>
        <path class="cls-4" d="m39.47,74.62c0,10.07-8.55,18.23-19.09,18.23-3.04,0-5.92-.68-8.47-1.89-3.5-9.19-3.72-20.64-.29-32.53,2.62-1.3,5.6-2.03,8.76-2.03,10.55,0,19.09,8.16,19.09,18.23Z"/>
      </g>
      <path class="cls-5" d="m19.64,159.8L0,329.93l34.89,8.74,9.28-194.54h0c-12.94-.69-23.41,6-24.52,15.68Z"/>
      <path class="cls-2" d="m148.32,158.16l20.94,172.38-31.89,8.02-11.83-196.82h0c11.87-.39,21.59,6.61,22.78,16.41Z"/>
      <path class="cls-1" d="m118.61,275.26H48.76c-16.89,0-30.57-13.69-30.57-30.57l12-86.43c2.67-21.56,13.11-45.36,28.93-48h49.24c15.24,2.04,23.93,28.09,29.83,49l11,85.43c0,16.89-13.69,30.57-30.57,30.57Z"/>
    </g>
  </g>
</svg>