<?xml version="1.0" encoding="UTF-8"?>
<svg id="Layer_2" data-name="Layer 2" xmlns="http://www.w3.org/2000/svg" xmlns:xlink="http://www.w3.org/1999/xlink" viewBox="0 0 159.25 454.68">
  <defs>
    <style>
      .cls-1 {
        fill: #009245;
      }

      .cls-2 {
        fill: url(#linear-gradient-2);
      }

      .cls-3 {
        fill: none;
        stroke: #000;
        stroke-miterlimit: 10;
      }

      .cls-4 {
        fill: #39b54a;
      }

      .cls-5 {
        fill: url(#linear-gradient);
      }
    </style>
    <linearGradient id="linear-gradient" x1="1.56" y1="355.43" x2="2.84" y2="310.78" gradientTransform="translate(103.54 -109.67) rotate(-7.42) scale(1.14 .95) skewX(-1.65)" gradientUnits="userSpaceOnUse">
      <stop offset="0" stop-color="#009245"/>
      <stop offset="1" stop-color="#005f2d"/>
    </linearGradient>
    <linearGradient id="linear-gradient-2" x1="-1513.41" y1="156.93" x2="-1512.13" y2="112.28" gradientTransform="translate(-1840.03 -186.59) rotate(-171.97) scale(1.25 -.93) skewX(-2.32)" xlink:href="#linear-gradient"/>
  </defs>
  <g id="frog_side">
    <g>
      <g>
        <path class="cls-1" d="m111.99,119.26H43.38c-11.42-1.38-18.35-5.5-22.06-8.3C4.11,97.97.07,71.03,12.18,44.06,12.18,14.99,18.09,8.51,31,2.29c.19-.09.39-.17.59-.22,23.6-6.13,37.27,1.86,43.81,17.53.94,2.25,4.47,2.19,5.34-.09,5.82-15.3,17.91-23.55,43.02-17.25.1.02.2.05.29.09,16.2,5.37,19.12,18.86,19.12,42.21,12.01,26.75,7.97,53.48-9.14,66.41-3.69,2.79-10.62,6.93-22.06,8.3Z"/>
        <rect x="47.18" y="24.26" width="12" height="17" rx="6" ry="6"/>
        <rect x="114.95" y="23.84" width="12" height="17" rx="6" ry="6"/>
        <line class="cls-3" x1="90.18" y1="71.76" x2="106.68" y2="71.76"/>
        <path class="cls-4" d="m127.95,74.61c0,10.07,6.39,18.23,14.27,18.23,2.28,0,4.43-.68,6.34-1.89,2.61-9.19,2.78-20.64.21-32.53-1.96-1.3-4.19-2.03-6.55-2.03-7.88,0-14.27,8.16-14.27,18.23Z"/>
        <rect class="cls-4" x="32.88" y="55.99" width="41.5" height="38" rx="19" ry="19"/>
      </g>
      <path class="cls-5" d="m138.32,151.16l20.94,172.38-31.89,8.02-11.83-196.82h0c11.87-.39,21.59,6.61,22.78,16.41Z"/>
      <path class="cls-1" d="m114.61,275.26H44.76c-16.89,0-30.57-13.69-30.57-30.57l12-86.43c2.67-21.56,13.11-45.36,28.93-48h49.24c15.24,2.04,23.93,28.09,29.83,49l11,85.43c0,16.89-13.69,30.57-30.57,30.57Z"/>
      <path class="cls-2" d="m19.64,150.8L0,320.93l34.89,8.74,9.28-194.54h0c-12.94-.69-23.41,6-24.52,15.68Z"/>
      <path class="cls-1" d="m41.95,273.84c0,46.29,1,94.71,1,141-7,14.13-16,26-19,36,17,8,53,1,53,1,2.25,2.34-1.86-26.51-5-37-2.82-52.92.82-88.08-2-141h-28Z"/>
      <path class="cls-1" d="m117.95,272.84v140.44c10.9,6.7,21.81,13.4,32.71,20.1-12.01,16.75-44.71,18.46-44.71,18.46,0,0-17.81-13.94-20.46-18.46,2.82-53.51,5.64-107.03,8.46-160.54h24Z"/>
    </g>
  </g>
</svg>