<?xml version="1.0" encoding="UTF-8"?>
<svg id="pinecone" data-name="Layer 2" xmlns="http://www.w3.org/2000/svg" xmlns:xlink="http://www.w3.org/1999/xlink" viewBox="0 0 106.34 150.16">
  <defs>
    <style>
      .cls-1 {
        fill: url(#linear-gradient-2);
      }

      .cls-2 {
        fill: url(#linear-gradient-17);
      }

      .cls-3 {
        fill: url(#linear-gradient-15);
      }

      .cls-4 {
        fill: url(#linear-gradient-18);
      }

      .cls-5 {
        fill: url(#linear-gradient-28);
      }

      .cls-6 {
        fill: url(#linear-gradient-14);
      }

      .cls-7 {
        fill: url(#linear-gradient-36);
      }

      .cls-8 {
        fill: url(#linear-gradient-20);
      }

      .cls-9 {
        fill: url(#linear-gradient-6);
      }

      .cls-10 {
        fill: url(#linear-gradient-35);
      }

      .cls-11 {
        fill: url(#linear-gradient-32);
      }

      .cls-12 {
        fill: url(#linear-gradient-11);
      }

      .cls-13 {
        fill: #603813;
      }

      .cls-14 {
        fill: url(#linear-gradient-10);
      }

      .cls-15 {
        fill: url(#linear-gradient-37);
      }

      .cls-16 {
        fill: url(#linear-gradient-16);
      }

      .cls-17 {
        fill: url(#linear-gradient-31);
      }

      .cls-18 {
        fill: url(#linear-gradient-21);
      }

      .cls-19 {
        fill: url(#linear-gradient-25);
      }

      .cls-20 {
        fill: url(#linear-gradient-5);
      }

      .cls-21 {
        fill: url(#linear-gradient-34);
      }

      .cls-22 {
        fill: url(#linear-gradient-7);
      }

      .cls-23 {
        fill: url(#linear-gradient-24);
      }

      .cls-24 {
        fill: url(#linear-gradient-9);
      }

      .cls-25 {
        fill: url(#linear-gradient-22);
      }

      .cls-26 {
        fill: url(#linear-gradient-3);
      }

      .cls-27 {
        fill: url(#linear-gradient);
      }

      .cls-28 {
        fill: url(#linear-gradient-27);
      }

      .cls-29 {
        fill: url(#linear-gradient-33);
      }

      .cls-30 {
        fill: url(#linear-gradient-38);
      }

      .cls-31 {
        fill: url(#linear-gradient-29);
      }

      .cls-32 {
        fill: url(#linear-gradient-30);
      }

      .cls-33 {
        fill: url(#linear-gradient-23);
      }

      .cls-34 {
        fill: url(#linear-gradient-19);
      }

      .cls-35 {
        fill: url(#linear-gradient-4);
      }

      .cls-36 {
        fill: url(#linear-gradient-8);
      }

      .cls-37 {
        fill: url(#linear-gradient-12);
      }

      .cls-38 {
        fill: url(#linear-gradient-13);
      }

      .cls-39 {
        fill: url(#linear-gradient-26);
      }
    </style>
    <linearGradient id="linear-gradient" x1="53.15" y1="27.14" x2="53.15" y2="0" gradientUnits="userSpaceOnUse">
      <stop offset="0" stop-color="#603813"/>
      <stop offset=".2" stop-color="#653d17"/>
      <stop offset=".46" stop-color="#754c25"/>
      <stop offset=".72" stop-color="#8c6239"/>
      <stop offset=".82" stop-color="#8d633a"/>
      <stop offset=".85" stop-color="#946a40"/>
      <stop offset=".88" stop-color="#a0764b"/>
      <stop offset=".9" stop-color="#b1875a"/>
      <stop offset=".92" stop-color="#c69c6d"/>
    </linearGradient>
    <linearGradient id="linear-gradient-2" x1="65.2" y1="33.54" x2="65.2" y2="6.55" xlink:href="#linear-gradient"/>
    <linearGradient id="linear-gradient-3" x1="65.2" y1="33.54" x2="65.2" y2="6.55" xlink:href="#linear-gradient"/>
    <linearGradient id="linear-gradient-4" x1="40.62" y1="33.43" x2="40.62" y2="6.43" xlink:href="#linear-gradient"/>
    <linearGradient id="linear-gradient-5" x1="53.51" y1="42.32" x2="53.51" y2="10.75" xlink:href="#linear-gradient"/>
    <linearGradient id="linear-gradient-6" x1="67.52" y1="49.75" x2="67.52" y2="18.36" xlink:href="#linear-gradient"/>
    <linearGradient id="linear-gradient-7" x1="53.51" y1="42.32" x2="53.51" y2="10.75" xlink:href="#linear-gradient"/>
    <linearGradient id="linear-gradient-8" x1="67.52" y1="49.75" x2="67.52" y2="18.36" xlink:href="#linear-gradient"/>
    <linearGradient id="linear-gradient-9" x1="38.59" y1="49.62" x2="38.59" y2="18.23" xlink:href="#linear-gradient"/>
    <linearGradient id="linear-gradient-10" x1="28.48" y1="57.67" x2="28.48" y2="26.92" xlink:href="#linear-gradient"/>
    <linearGradient id="linear-gradient-11" x1="77.95" y1="57.55" x2="77.95" y2="26.8" xlink:href="#linear-gradient"/>
    <linearGradient id="linear-gradient-12" x1="53.9" y1="60.68" x2="53.9" y2="23.91" xlink:href="#linear-gradient"/>
    <linearGradient id="linear-gradient-13" x1="70.22" y1="69.34" x2="70.22" y2="32.78" xlink:href="#linear-gradient"/>
    <linearGradient id="linear-gradient-14" x1="53.9" y1="60.68" x2="53.9" y2="23.91" xlink:href="#linear-gradient"/>
    <linearGradient id="linear-gradient-15" x1="70.22" y1="69.34" x2="70.22" y2="32.78" xlink:href="#linear-gradient"/>
    <linearGradient id="linear-gradient-16" x1="36.52" y1="69.19" x2="36.52" y2="32.62" xlink:href="#linear-gradient"/>
    <linearGradient id="linear-gradient-17" x1="24.74" y1="78.56" x2="24.74" y2="42.74" xlink:href="#linear-gradient"/>
    <linearGradient id="linear-gradient-18" x1="82.36" y1="78.42" x2="82.36" y2="42.6" xlink:href="#linear-gradient"/>
    <linearGradient id="linear-gradient-19" x1="54.23" y1="79.48" x2="54.23" y2="39.99" xlink:href="#linear-gradient"/>
    <linearGradient id="linear-gradient-20" x1="71.75" y1="88.78" x2="71.75" y2="49.52" xlink:href="#linear-gradient"/>
    <linearGradient id="linear-gradient-21" x1="54.23" y1="79.48" x2="54.23" y2="39.99" xlink:href="#linear-gradient"/>
    <linearGradient id="linear-gradient-22" x1="71.75" y1="88.78" x2="71.75" y2="49.52" xlink:href="#linear-gradient"/>
    <linearGradient id="linear-gradient-23" x1="35.57" y1="88.62" x2="35.57" y2="49.35" xlink:href="#linear-gradient"/>
    <linearGradient id="linear-gradient-24" x1="22.91" y1="98.68" x2="22.91" y2="60.22" xlink:href="#linear-gradient"/>
    <linearGradient id="linear-gradient-25" x1="84.79" y1="98.53" x2="84.79" y2="60.07" xlink:href="#linear-gradient"/>
    <linearGradient id="linear-gradient-26" x1="53.57" y1="101.01" x2="53.57" y2="59.1" xlink:href="#linear-gradient"/>
    <linearGradient id="linear-gradient-27" x1="72.17" y1="110.88" x2="72.17" y2="69.21" xlink:href="#linear-gradient"/>
    <linearGradient id="linear-gradient-28" x1="53.57" y1="101.01" x2="53.57" y2="59.1" xlink:href="#linear-gradient"/>
    <linearGradient id="linear-gradient-29" x1="72.17" y1="110.88" x2="72.17" y2="69.21" xlink:href="#linear-gradient"/>
    <linearGradient id="linear-gradient-30" x1="33.77" y1="110.7" x2="33.77" y2="69.04" xlink:href="#linear-gradient"/>
    <linearGradient id="linear-gradient-31" x1="20.34" y1="121.38" x2="20.34" y2="80.57" xlink:href="#linear-gradient"/>
    <linearGradient id="linear-gradient-32" x1="86" y1="121.22" x2="86" y2="80.41" xlink:href="#linear-gradient"/>
    <linearGradient id="linear-gradient-33" x1="54.3" y1="122.62" x2="54.3" y2="78.41" xlink:href="#linear-gradient"/>
    <linearGradient id="linear-gradient-34" x1="73.92" y1="133.03" x2="73.92" y2="89.07" xlink:href="#linear-gradient"/>
    <linearGradient id="linear-gradient-35" x1="54.3" y1="122.62" x2="54.3" y2="78.41" xlink:href="#linear-gradient"/>
    <linearGradient id="linear-gradient-36" x1="73.92" y1="133.03" x2="73.92" y2="89.07" xlink:href="#linear-gradient"/>
    <linearGradient id="linear-gradient-37" x1="33.4" y1="132.85" x2="33.4" y2="88.89" xlink:href="#linear-gradient"/>
    <linearGradient id="linear-gradient-38" x1="54.75" y1="140.28" x2="54.75" y2="101.85" xlink:href="#linear-gradient"/>
  </defs>
  <g id="pine-cone">
    <g>
      <g>
        <g>
          <path class="cls-27" d="m40.63,21.96h0c-2.42-2.42-2.7-6.26-.64-9l7.65-10.2c2.75-3.67,8.26-3.67,11.02,0l7.65,10.2c2.06,2.74,1.78,6.58-.64,9h0c-6.91,6.91-18.13,6.91-25.04,0Z"/>
          <path class="cls-1" d="m51.77,23.17h0c-1.42-3.12-.33-6.81,2.55-8.66l10.74-6.88c3.87-2.48,9.03-.55,10.32,3.86l3.59,12.24c.97,3.29-.63,6.79-3.75,8.21h0c-8.9,4.05-19.4.13-23.45-8.77Z"/>
          <path class="cls-27" d="m40.63,21.96h0c-2.42-2.42-2.7-6.26-.64-9l7.65-10.2c2.75-3.67,8.26-3.67,11.02,0l7.65,10.2c2.06,2.74,1.78,6.58-.64,9h0c-6.91,6.91-18.13,6.91-25.04,0Z"/>
          <path class="cls-26" d="m51.77,23.17h0c-1.42-3.12-.33-6.81,2.55-8.66l10.74-6.88c3.87-2.48,9.03-.55,10.32,3.86l3.59,12.24c.97,3.29-.63,6.79-3.75,8.21h0c-8.9,4.05-19.4.13-23.45-8.77Z"/>
          <path class="cls-35" d="m54.05,23.06h0c1.42-3.12.33-6.81-2.55-8.66l-10.74-6.88c-3.87-2.48-9.03-.55-10.32,3.86l-3.59,12.24c-.97,3.29.63,6.79,3.75,8.21h0c8.9,4.05,19.4.13,23.45-8.77Z"/>
        </g>
        <g>
          <path class="cls-20" d="m38.95,36.29h0c-2.82-2.82-3.14-7.28-.74-10.47l8.9-11.86c3.2-4.27,9.61-4.27,12.82,0l8.9,11.86c2.39,3.19,2.07,7.65-.74,10.47h0c-8.04,8.04-21.08,8.04-29.12,0Z"/>
          <path class="cls-9" d="m51.9,37.69h0c-1.65-3.63-.39-7.92,2.97-10.07l12.49-8c4.5-2.88,10.5-.63,12,4.49l4.18,14.23c1.12,3.82-.74,7.89-4.36,9.55h0c-10.35,4.72-22.56.15-27.28-10.2Z"/>
          <path class="cls-22" d="m38.95,36.29h0c-2.82-2.82-3.14-7.28-.74-10.47l8.9-11.86c3.2-4.27,9.61-4.27,12.82,0l8.9,11.86c2.39,3.19,2.07,7.65-.74,10.47h0c-8.04,8.04-21.08,8.04-29.12,0Z"/>
          <path class="cls-36" d="m51.9,37.69h0c-1.65-3.63-.39-7.92,2.97-10.07l12.49-8c4.5-2.88,10.5-.63,12,4.49l4.18,14.23c1.12,3.82-.74,7.89-4.36,9.55h0c-10.35,4.72-22.56.15-27.28-10.2Z"/>
          <path class="cls-24" d="m54.22,37.56h0c1.65-3.63.39-7.92-2.97-10.07l-12.49-8c-4.5-2.88-10.5-.63-12,4.49l-4.18,14.23c-1.12,3.82.74,7.89,4.36,9.55h0c10.35,4.72,22.56.15,27.28-10.2Z"/>
          <path class="cls-14" d="m43.8,37.54h0c.09-3.99-2.77-7.43-6.7-8.08l-14.63-2.43c-5.27-.87-9.9,3.56-9.26,8.86l1.77,14.73c.48,3.96,3.79,6.96,7.77,7.05h0c11.37.25,20.8-8.76,21.05-20.13Z"/>
          <path class="cls-12" d="m62.62,37.41h0c-.09-3.99,2.77-7.43,6.7-8.08l14.63-2.43c5.27-.87,9.9,3.56,9.26,8.86l-1.77,14.73c-.48,3.96-3.79,6.96-7.77,7.05h0c-11.37.25-20.8-8.76-21.05-20.13Z"/>
        </g>
        <g>
          <path class="cls-37" d="m36.94,53.65h0c-3.28-3.28-3.65-8.48-.87-12.19l10.36-13.82c3.73-4.98,11.2-4.98,14.93,0l10.36,13.82c2.79,3.71,2.42,8.91-.87,12.19h0c-9.37,9.37-24.56,9.37-33.92,0Z"/>
          <path class="cls-38" d="m52.03,55.29h0c-1.93-4.22-.45-9.22,3.46-11.73l14.55-9.31c5.24-3.35,12.23-.74,13.98,5.23l4.87,16.57c1.31,4.45-.86,9.19-5.08,11.12h0c-12.06,5.49-26.28.17-31.77-11.88Z"/>
          <path class="cls-6" d="m36.94,53.65h0c-3.28-3.28-3.65-8.48-.87-12.19l10.36-13.82c3.73-4.98,11.2-4.98,14.93,0l10.36,13.82c2.79,3.71,2.42,8.91-.87,12.19h0c-9.37,9.37-24.56,9.37-33.92,0Z"/>
          <path class="cls-3" d="m52.03,55.29h0c-1.93-4.22-.45-9.22,3.46-11.73l14.55-9.31c5.24-3.35,12.23-.74,13.98,5.23l4.87,16.57c1.31,4.45-.86,9.19-5.08,11.12h0c-12.06,5.49-26.28.17-31.77-11.88Z"/>
          <path class="cls-16" d="m54.72,55.14h0c1.93-4.22.45-9.22-3.46-11.73l-14.55-9.31c-5.24-3.35-12.23-.74-13.98,5.23l-4.87,16.57c-1.31,4.45.86,9.19,5.08,11.12h0c12.06,5.49,26.28.17,31.77-11.88Z"/>
          <path class="cls-2" d="m42.59,55.11h0c.1-4.64-3.22-8.65-7.8-9.41l-17.04-2.82c-6.14-1.02-11.53,4.14-10.79,10.32l2.06,17.15c.55,4.61,4.41,8.11,9.05,8.21h0c13.24.3,24.22-10.2,24.52-23.44Z"/>
          <path class="cls-4" d="m64.51,54.96h0c-.1-4.64,3.22-8.65,7.8-9.41l17.04-2.82c6.14-1.02,11.53,4.14,10.79,10.32l-2.06,17.15c-.55,4.61-4.41,8.11-9.05,8.21h0c-13.24.3-24.22-10.2-24.52-23.44Z"/>
        </g>
        <g>
          <path class="cls-34" d="m36.02,71.94h0c-3.53-3.53-3.92-9.11-.93-13.09l11.13-14.84c4.01-5.34,12.02-5.34,16.03,0l11.13,14.84c2.99,3.99,2.59,9.57-.93,13.09h0c-10.06,10.06-26.37,10.06-36.43,0Z"/>
          <path class="cls-8" d="m52.21,73.7h0c-2.07-4.54-.48-9.9,3.72-12.59l15.62-10c5.62-3.6,13.13-.79,15.01,5.61l5.23,17.8c1.4,4.78-.92,9.87-5.46,11.94h0c-12.95,5.9-28.22.19-34.12-12.76Z"/>
          <path class="cls-18" d="m36.02,71.94h0c-3.53-3.53-3.92-9.11-.93-13.09l11.13-14.84c4.01-5.34,12.02-5.34,16.03,0l11.13,14.84c2.99,3.99,2.59,9.57-.93,13.09h0c-10.06,10.06-26.37,10.06-36.43,0Z"/>
          <path class="cls-25" d="m52.21,73.7h0c-2.07-4.54-.48-9.9,3.72-12.59l15.62-10c5.62-3.6,13.13-.79,15.01,5.61l5.23,17.8c1.4,4.78-.92,9.87-5.46,11.94h0c-12.95,5.9-28.22.19-34.12-12.76Z"/>
          <path class="cls-33" d="m55.11,73.53h0c2.07-4.54.48-9.9-3.72-12.59l-15.62-10c-5.62-3.6-13.13-.79-15.01,5.61l-5.23,17.8c-1.4,4.78.92,9.87,5.46,11.94h0c12.95,5.9,28.22.19,34.12-12.76Z"/>
          <path class="cls-23" d="m42.08,73.5h0c.11-4.98-3.46-9.29-8.38-10.11l-18.3-3.03c-6.59-1.09-12.38,4.45-11.58,11.08l2.21,18.42c.59,4.95,4.74,8.71,9.72,8.82h0c14.22.32,26.01-10.95,26.33-25.18Z"/>
          <path class="cls-19" d="m65.62,73.35h0c-.11-4.98,3.46-9.29,8.38-10.11l18.3-3.03c6.59-1.09,12.38,4.45,11.58,11.08l-2.21,18.42c-.59,4.95-4.74,8.71-9.72,8.82h0c-14.22.32-26.01-10.95-26.33-25.18Z"/>
        </g>
        <g>
          <path class="cls-39" d="m34.24,93h0c-3.74-3.74-4.16-9.66-.99-13.9l11.81-15.75c4.25-5.67,12.76-5.67,17.01,0l11.81,15.75c3.17,4.23,2.75,10.15-.99,13.9h0c-10.67,10.67-27.98,10.67-38.66,0Z"/>
          <path class="cls-28" d="m51.43,94.87h0c-2.19-4.81-.51-10.51,3.94-13.36l16.58-10.61c5.97-3.82,13.93-.84,15.93,5.96l5.55,18.89c1.49,5.08-.98,10.48-5.79,12.67h0c-13.74,6.26-29.95.2-36.21-13.54Z"/>
          <path class="cls-5" d="m34.24,93h0c-3.74-3.74-4.16-9.66-.99-13.9l11.81-15.75c4.25-5.67,12.76-5.67,17.01,0l11.81,15.75c3.17,4.23,2.75,10.15-.99,13.9h0c-10.67,10.67-27.98,10.67-38.66,0Z"/>
          <path class="cls-31" d="m51.43,94.87h0c-2.19-4.81-.51-10.51,3.94-13.36l16.58-10.61c5.97-3.82,13.93-.84,15.93,5.96l5.55,18.89c1.49,5.08-.98,10.48-5.79,12.67h0c-13.74,6.26-29.95.2-36.21-13.54Z"/>
          <path class="cls-32" d="m54.5,94.7h0c2.19-4.81.51-10.51-3.94-13.36l-16.58-10.61c-5.97-3.82-13.93-.84-15.93,5.96l-5.55,18.89c-1.49,5.08.98,10.48,5.79,12.67h0c13.74,6.26,29.95.2,36.21-13.54Z"/>
          <path class="cls-17" d="m40.68,94.66h0c.12-5.29-3.67-9.86-8.89-10.73l-19.42-3.22c-6.99-1.16-13.14,4.72-12.29,11.76l2.35,19.54c.63,5.25,5.03,9.24,10.32,9.36h0c15.09.34,27.6-11.62,27.94-26.72Z"/>
          <path class="cls-11" d="m65.66,94.5h0c-.12-5.29,3.67-9.86,8.89-10.73l19.42-3.22c6.99-1.16,13.14,4.72,12.29,11.76l-2.35,19.54c-.63,5.25-5.03,9.24-10.32,9.36h0c-15.09.34-27.6-11.62-27.94-26.72Z"/>
        </g>
        <g>
          <path class="cls-29" d="m33.91,114.17h0c-3.95-3.95-4.39-10.2-1.04-14.66l12.46-16.61c4.49-5.98,13.46-5.98,17.95,0l12.46,16.61c3.35,4.47,2.91,10.71-1.04,14.66h0c-11.26,11.26-29.52,11.26-40.78,0Z"/>
          <path class="cls-21" d="m52.04,116.14h0c-2.31-5.08-.54-11.09,4.16-14.1l17.49-11.2c6.3-4.03,14.7-.89,16.81,6.29l5.85,19.93c1.57,5.36-1.03,11.05-6.11,13.37h0c-14.49,6.6-31.6.21-38.2-14.29Z"/>
          <path class="cls-10" d="m33.91,114.17h0c-3.95-3.95-4.39-10.2-1.04-14.66l12.46-16.61c4.49-5.98,13.46-5.98,17.95,0l12.46,16.61c3.35,4.47,2.91,10.71-1.04,14.66h0c-11.26,11.26-29.52,11.26-40.78,0Z"/>
          <path class="cls-7" d="m52.04,116.14h0c-2.31-5.08-.54-11.09,4.16-14.1l17.49-11.2c6.3-4.03,14.7-.89,16.81,6.29l5.85,19.93c1.57,5.36-1.03,11.05-6.11,13.37h0c-14.49,6.6-31.6.21-38.2-14.29Z"/>
          <path class="cls-15" d="m55.28,115.96h0c2.31-5.08.54-11.09-4.16-14.1l-17.49-11.2c-6.3-4.03-14.7-.89-16.81,6.29l-5.85,19.93c-1.57,5.36,1.03,11.05,6.11,13.37h0c14.49,6.6,31.6.21,38.2-14.29Z"/>
        </g>
        <path class="cls-30" d="m37.02,132.94h0c-3.43-3.43-3.82-8.86-.91-12.75l10.83-14.44c3.9-5.2,11.7-5.2,15.6,0l10.83,14.44c2.91,3.88,2.53,9.31-.91,12.75h0c-9.79,9.79-25.66,9.79-35.45,0Z"/>
      </g>
      <rect class="cls-13" x="52.21" y="136.54" width="7.49" height="13.62" rx="2.76" ry="2.76"/>
    </g>
  </g>
</svg>