<?xml version="1.0" encoding="UTF-8"?>
<svg id="Layer_2" data-name="Layer 2" xmlns="http://www.w3.org/2000/svg" xmlns:xlink="http://www.w3.org/1999/xlink" viewBox="0 0 166.4 462.1">
  <defs>
    <style>
      .cls-1 {
        fill: url(#linear-gradient-2);
      }

      .cls-2 {
        fill: url(#linear-gradient-6);
      }

      .cls-3 {
        fill: #c1272d;
      }

      .cls-4 {
        fill: url(#linear-gradient-5);
      }

      .cls-5 {
        fill: url(#linear-gradient-3);
      }

      .cls-6 {
        fill: url(#linear-gradient);
      }

      .cls-7 {
        fill: url(#linear-gradient-4);
      }
    </style>
    <linearGradient id="linear-gradient" x1="166.1" y1="267.21" x2="165.74" y2="292.6" gradientTransform="translate(-37.4 -28.83) rotate(-2.51)" gradientUnits="userSpaceOnUse">
      <stop offset="0" stop-color="#7e1a1d"/>
      <stop offset="1" stop-color="#c1272d"/>
    </linearGradient>
    <linearGradient id="linear-gradient-2" x1="132.57" y1="223.78" x2="132.19" y2="249.25" gradientTransform="translate(265.38 535.8) rotate(-180)" xlink:href="#linear-gradient"/>
    <linearGradient id="linear-gradient-3" x1="193.07" y1="334.97" x2="192.72" y2="359.91" gradientTransform="translate(-115.13 -61.47) rotate(-11.44)" xlink:href="#linear-gradient"/>
    <linearGradient id="linear-gradient-4" x1="-824.97" y1="179.38" x2="-825.33" y2="204.77" gradientTransform="translate(-786.75 8.75) rotate(-176.91) scale(1 -1)" xlink:href="#linear-gradient"/>
    <linearGradient id="linear-gradient-5" x1="-861.61" y1="263.12" x2="-861.99" y2="288.59" gradientTransform="translate(-828.17 -19.6) rotate(-180) scale(1 -1)" xlink:href="#linear-gradient"/>
    <linearGradient id="linear-gradient-6" x1="-772.38" y1="94.45" x2="-772.73" y2="119.4" gradientTransform="translate(-708.69 -23.1) rotate(-167.98) scale(1 -1)" xlink:href="#linear-gradient"/>
  </defs>
  <g id="red-bird_front">
    <g>
      <g>
        <path class="cls-6" d="m133.57,379.32h0c9.43-1.01,17.06-13.17,17.04-27.18l-.23-153.13c-.01-9.34-5.13-16.37-11.42-15.7h0c-3.14.34-5.68,4.39-5.67,9.05l.29,186.96Z"/>
        <path class="cls-1" d="m141.75,178.82h0v190.63c0,3.12-2.54,5.66-5.66,5.66h0c-6.26,0-11.34-5.08-11.34-11.34v-167.95c0-9.38,7.62-17,17-17Z" transform="translate(242.75 564.14) rotate(-175.18)"/>
        <path class="cls-5" d="m152.01,374.54h0c9.31-3.17,15.66-16.82,14.17-30.5l-16.23-149.57c-.99-9.12-6.83-14.81-13.04-12.7h0c-3.1,1.05-5.21,5.6-4.72,10.15l19.81,182.61Z"/>
      </g>
      <rect x="98.73" y="300.82" width="4.68" height="150.55" rx="2.34" ry="2.34"/>
      <rect x="65.33" y="301.25" width="4.68" height="150.55" rx="2.34" ry="2.34"/>
      <path class="cls-3" d="m82.19,22.96h1.52c36.33,0,65.82,29.49,65.82,65.82v13.56c0,28.07-22.79,50.86-50.86,50.86h-30.26c-28.37,0-51.4-23.03-51.4-51.4v-13.67c0-35.97,29.2-65.18,65.18-65.18Z"/>
      <g>
        <path class="cls-7" d="m32.5,380.92h0c-9.42-1.1-16.92-13.35-16.76-27.35l1.79-153.12c.11-9.34,5.29-16.32,11.57-15.58h0c3.14.37,5.63,4.44,5.58,9.11l-2.19,186.95Z"/>
        <path class="cls-4" d="m36.71,180.43h0c3.12,0,5.66,2.54,5.66,5.66v190.63h0c-9.38,0-17-7.62-17-17v-167.95c0-6.26,5.08-11.34,11.34-11.34Z" transform="translate(-20.49 3.26) rotate(-4.24)"/>
        <path class="cls-2" d="m14.12,375.96h0c-9.28-3.26-15.49-16.98-13.86-30.64l17.75-149.4c1.08-9.11,6.98-14.74,13.17-12.56h0c3.09,1.09,5.16,5.65,4.62,10.2l-21.67,182.4Z"/>
      </g>
      <path class="cls-3" d="m86.81,323.21h-5.56c-33.7,0-60.13-28.91-57.13-62.47l6.78-75.81c2.06-23.06,21.38-40.73,44.53-40.73h18.2c22.6,0,41.46,17.25,43.47,39.76l6.86,76.77c3,33.57-23.44,62.48-57.14,62.48Z"/>
      <rect x="40.28" y="78.51" width="8" height="13.91" rx="3.96" ry="3.96"/>
      <rect x="116.15" y="78.51" width="8.09" height="13.91" rx="4" ry="4"/>
      <rect x="57.6" y="441.58" width="5.06" height="19.75" rx="2.53" ry="2.53" transform="translate(490.02 301.03) rotate(78.3)"/>
      <rect x="104.76" y="444.75" width="5.06" height="19.75" rx="2.53" ry="2.53" transform="translate(-301.24 228.12) rotate(-47.72)"/>
      <path d="m78.35,108.21l-1.07-1.02c-2.96-2.83-2.96-7.41,0-10.23l1.07-1.02c3.56-3.39,9.32-3.39,12.88,0l6.44,6.14-6.44,6.14c-3.56,3.39-9.32,3.39-12.88,0Z"/>
      <path class="cls-3" d="m86.81,25.85h-5.59c-10.88,0-19.7-8.41-19.7-18.79h0c0-2.94,2.5-5.33,5.59-5.33h0c10.88,0,19.7,8.41,19.7,18.79v5.33Z"/>
      <path class="cls-3" d="m88.38,26.06l3.71-2.61c7.22-5.08,8.76-14.78,3.44-21.66h0c-1.51-1.95-4.39-2.37-6.44-.93h0c-7.22,5.08-8.76,14.78-3.44,21.66l2.73,3.54Z"/>
    </g>
  </g>
</svg>