<?xml version="1.0" encoding="UTF-8"?>
<svg id="Layer_2" data-name="Layer 2" xmlns="http://www.w3.org/2000/svg" xmlns:xlink="http://www.w3.org/1999/xlink" viewBox="0 0 198.18 451.85">
  <defs>
    <style>
      .cls-1 {
        fill: url(#linear-gradient-2);
      }

      .cls-2 {
        fill: url(#linear-gradient-6);
      }

      .cls-3 {
        fill: #c1272d;
      }

      .cls-4 {
        fill: url(#linear-gradient-5);
      }

      .cls-5 {
        fill: url(#linear-gradient-7);
      }

      .cls-6 {
        fill: url(#linear-gradient-3);
      }

      .cls-7 {
        fill: url(#linear-gradient);
      }

      .cls-8 {
        fill: url(#linear-gradient-4);
      }

      .cls-9 {
        fill: url(#linear-gradient-8);
      }
    </style>
    <linearGradient id="linear-gradient" x1="-498.17" y1="325.29" x2="-498.31" y2="335.57" gradientTransform="translate(-446.16 -180.08) rotate(-180) scale(1 -1.31)" gradientUnits="userSpaceOnUse">
      <stop offset="0" stop-color="#7e1a1d"/>
      <stop offset="1" stop-color="#c1272d"/>
    </linearGradient>
    <linearGradient id="linear-gradient-2" x1="-506.25" y1="329.66" x2="-506.4" y2="339.94" gradientTransform="translate(-454.57 -169.37) rotate(-180) scale(1 -1.31)" xlink:href="#linear-gradient"/>
    <linearGradient id="linear-gradient-3" x1="174.93" y1="244.68" x2="174.57" y2="270.07" gradientTransform="translate(-13.45 -19.18) rotate(-2.51)" xlink:href="#linear-gradient"/>
    <linearGradient id="linear-gradient-4" x1="209.45" y1="225.5" x2="209.07" y2="250.97" gradientTransform="translate(374.04 524.27) rotate(-180)" xlink:href="#linear-gradient"/>
    <linearGradient id="linear-gradient-5" x1="124.07" y1="271.51" x2="123.72" y2="296.45" gradientTransform="translate(-3.14 -26.2) rotate(-11.44)" xlink:href="#linear-gradient"/>
    <linearGradient id="linear-gradient-6" x1="-431.82" y1="172.57" x2="-432.18" y2="197.95" gradientTransform="translate(-352.07 20.49) rotate(-176.91) scale(1 -1)" xlink:href="#linear-gradient"/>
    <linearGradient id="linear-gradient-7" x1="-403.46" y1="231.62" x2="-403.84" y2="257.13" gradientTransform="translate(-344.22 26.27) rotate(175.76) scale(1 -1)" xlink:href="#linear-gradient"/>
    <linearGradient id="linear-gradient-8" x1="-462.17" y1="106.15" x2="-462.52" y2="131.19" gradientTransform="translate(-362.31 13.36) rotate(-167.98) scale(1 -1)" xlink:href="#linear-gradient"/>
  </defs>
  <g id="red-bird_side">
    <g>
      <g>
        <path class="cls-7" d="m55.08,221.41h0c3.12,0,5.66,2.54,5.66,5.66v98.24h0c-9.38,0-17-7.62-17-17v-75.56c0-6.26,5.08-11.34,11.34-11.34Z" transform="translate(327.43 314.83) rotate(109.39)"/>
        <path class="cls-1" d="m54.67,229.74h0c3.12,0,5.66,2.54,5.66,5.66v98.24h0c-9.38,0-17-7.62-17-17v-75.56c0-6.26,5.08-11.34,11.34-11.34Z" transform="translate(334.75 326.32) rotate(109.39)"/>
      </g>
      <g>
        <path class="cls-6" d="m165.36,366.07h0c9.43-1.01,17.06-13.17,17.04-27.18l-.23-153.13c-.01-9.34-5.13-16.37-11.42-15.7h0c-3.14.34-5.68,4.39-5.67,9.05l.29,186.96Z"/>
        <path class="cls-8" d="m173.53,165.57h0v190.63c0,3.12-2.54,5.66-5.66,5.66h0c-6.26,0-11.34-5.08-11.34-11.34v-167.95c0-9.38,7.62-17,17-17Z" transform="translate(307.32 540.37) rotate(-175.18)"/>
        <path class="cls-4" d="m183.79,361.3h0c9.31-3.17,15.66-16.82,14.17-30.5l-16.23-149.57c-.99-9.12-6.83-14.81-13.04-12.7h0c-3.1,1.05-5.21,5.6-4.72,10.15l19.81,182.61Z"/>
      </g>
      <rect x="100.03" y="290.58" width="4.68" height="150.55" rx="2.34" ry="2.34" transform="translate(204.73 731.7) rotate(180)"/>
      <rect x="133.43" y="291" width="4.68" height="150.55" rx="2.34" ry="2.34" transform="translate(271.54 732.56) rotate(-180)"/>
      <path class="cls-3" d="m115.97,12.71h1.52c36.33,0,65.82,29.49,65.82,65.82v13.56c0,28.07-22.79,50.86-50.86,50.86h-30.26c-28.37,0-51.4-23.03-51.4-51.4v-13.67c0-35.97,29.2-65.18,65.18-65.18Z"/>
      <path class="cls-3" d="m120.59,312.96h-5.56c-33.7,0-60.13-28.91-57.13-62.47l6.78-75.81c2.06-23.06,21.38-40.73,44.53-40.73h18.2c22.6,0,41.46,17.25,43.47,39.76l6.86,76.77c3,33.57-23.44,62.48-57.14,62.48Z"/>
      <g>
        <path class="cls-2" d="m76.67,364.68h0c-11.56-1.1-20.77-13.35-20.57-27.35l2.2-153.12c.13-9.34,6.49-16.32,14.21-15.58h0c3.85.37,6.91,4.44,6.85,9.11l-2.68,186.95Z"/>
        <path class="cls-5" d="m97.65,359.58h0c-11.49.69-21.5-6.33-22.35-15.7l-15.23-167.49c-.57-6.25,5.19-11.68,12.85-12.15h0c3.83-.23,7.16,2.11,7.44,5.23l17.29,190.11Z"/>
        <path class="cls-9" d="m54.11,359.72h0c-11.39-3.26-19.01-16.98-17.01-30.64l21.78-149.4c1.33-9.11,8.56-14.74,16.16-12.56h0c3.79,1.09,6.33,5.65,5.66,10.2l-26.59,182.4Z"/>
      </g>
      <rect x="100.06" y="68.27" width="8" height="13.91" rx="3.96" ry="3.96"/>
      <rect x="159.93" y="68.27" width="8.09" height="13.91" rx="4" ry="4"/>
      <rect x="140.78" y="431.34" width="5.06" height="19.75" rx="2.53" ry="2.53" transform="translate(604.41 390.35) rotate(101.7)"/>
      <rect x="93.63" y="434.51" width="5.06" height="19.75" rx="2.53" ry="2.53" transform="translate(-167.91 814.5) rotate(-132.28)"/>
      <path d="m129.13,97.97l-1.07-1.02c-2.96-2.83-2.96-7.41,0-10.23l1.07-1.02c3.56-3.39,9.32-3.39,12.88,0l6.44,6.14-6.44,6.14c-3.56,3.39-9.32,3.39-12.88,0Z"/>
      <path class="cls-3" d="m87.76,23.66l-5.29,3.79c-10.29,7.38-25.99,7.19-35.06-.43h0c-2.57-2.16-2.29-5.61.63-7.71h0c10.29-7.38,25.99-7.19,35.06.43l4.66,3.91Z"/>
      <path class="cls-3" d="m89.43,22.74l1.23-4.43c2.4-8.63-4.62-16.8-15.68-18.25h0c-3.14-.41-6.23,1.24-6.91,3.69h0c-2.4,8.63,4.62,16.8,15.68,18.25l5.68.74Z"/>
    </g>
  </g>
</svg>