<?xml version="1.0" encoding="UTF-8"?>
<svg id="Layer_2" data-name="Layer 2" xmlns="http://www.w3.org/2000/svg" xmlns:xlink="http://www.w3.org/1999/xlink" viewBox="0 0 131 312.1">
  <defs>
    <style>
      .cls-1 {
        fill: url(#linear-gradient-2);
      }

      .cls-2 {
        fill: #c1272d;
      }

      .cls-3 {
        fill: url(#linear-gradient-3);
      }

      .cls-4 {
        fill: url(#linear-gradient);
      }

      .cls-5 {
        fill: url(#linear-gradient-4);
      }
    </style>
    <linearGradient id="linear-gradient" x1="122.9" y1="133.7" x2="122.66" y2="150.7" gradientTransform="translate(245 334.59) rotate(-180)" gradientUnits="userSpaceOnUse">
      <stop offset="0" stop-color="#7e1a1d"/>
      <stop offset="1" stop-color="#c1272d"/>
    </linearGradient>
    <linearGradient id="linear-gradient-2" x1="114.77" y1="140.92" x2="114.51" y2="157.92" gradientTransform="translate(229 328.59) rotate(-180)" xlink:href="#linear-gradient"/>
    <linearGradient id="linear-gradient-3" x1="-287.1" y1="134.7" x2="-287.34" y2="151.7" gradientTransform="translate(-279) rotate(-180) scale(1 -1)" xlink:href="#linear-gradient"/>
    <linearGradient id="linear-gradient-4" x1="-295.23" y1="141.92" x2="-295.49" y2="158.92" gradientTransform="translate(-279) rotate(-180) scale(1 -1)" xlink:href="#linear-gradient"/>
  </defs>
  <g id="small-red-bird_front">
    <g>
      <g>
        <path class="cls-4" d="m131,101.8h0v125.34c0,3.12-2.54,5.66-5.66,5.66h0c-6.26,0-11.34-5.08-11.34-11.34v-102.66c0-9.38,7.62-17,17-17Z" transform="translate(245 334.59) rotate(180)"/>
        <path class="cls-1" d="m123,98.8h0v125.34c0,3.12-2.54,5.66-5.66,5.66h0c-6.26,0-11.34-5.08-11.34-11.34v-102.66c0-9.38,7.62-17,17-17Z" transform="translate(229 328.59) rotate(180)"/>
      </g>
      <g>
        <path class="cls-3" d="m11.34,102.8h0c3.12,0,5.66,2.54,5.66,5.66v125.34h0C7.62,233.8,0,226.18,0,216.8v-102.66C0,107.88,5.08,102.8,11.34,102.8Z"/>
        <path class="cls-5" d="m19.34,99.8h0c3.12,0,5.66,2.54,5.66,5.66v125.34h0c-9.38,0-17-7.62-17-17v-102.66c0-6.26,5.08-11.34,11.34-11.34Z"/>
      </g>
      <rect x="79.72" y="150.82" width="4.68" height="150.55" rx="2.34" ry="2.34"/>
      <rect x="46.32" y="151.25" width="4.68" height="150.55" rx="2.34" ry="2.34"/>
      <path class="cls-2" d="m65.18,23.8h0c36.33,0,65.82,29.49,65.82,65.82v18.31c0,28.07-22.79,50.86-50.86,50.86h-28.73C23.03,158.8,0,135.76,0,107.39v-18.42C0,53,29.2,23.8,65.18,23.8Z"/>
      <rect x="23" y="81.38" width="7.91" height="14.42" rx="3.96" ry="3.96"/>
      <rect x="98" y="81.38" width="8" height="14.42" rx="4" ry="4"/>
      <rect x="38.59" y="291.58" width="5.06" height="19.75" rx="2.53" ry="2.53" transform="translate(327.98 200.06) rotate(78.3)"/>
      <rect x="85.75" y="294.75" width="5.06" height="19.75" rx="2.53" ry="2.53" transform="translate(-196.48 164.98) rotate(-47.72)"/>
      <path d="m67,96.8h9v9c0,4.97-4.03,9-9,9h-1.5c-4.14,0-7.5-3.36-7.5-7.5v-1.5c0-4.97,4.03-9,9-9Z" transform="translate(94.43 -16.39) rotate(45)"/>
      <path class="cls-2" d="m69,26.8h-5.52c-10.76,0-19.48-8.72-19.48-19.48h0c0-3.05,2.47-5.52,5.52-5.52h0c10.76,0,19.48,8.72,19.48,19.48v5.52Z"/>
      <path class="cls-2" d="m70.55,27.01l3.67-2.7c7.14-5.26,8.66-15.31,3.4-22.45h0c-1.49-2.03-4.34-2.46-6.37-.97h0c-7.14,5.26-8.66,15.31-3.4,22.45l2.7,3.67Z"/>
    </g>
  </g>
</svg>