<?xml version="1.0" encoding="UTF-8"?>
<svg id="Layer_2" data-name="Layer 2" xmlns="http://www.w3.org/2000/svg" xmlns:xlink="http://www.w3.org/1999/xlink" viewBox="0 0 200.44 514">
  <defs>
    <style>
      .cls-1 {
        fill: url(#linear-gradient-2);
      }

      .cls-2 {
        fill: #c7b299;
      }

      .cls-3 {
        fill: #a67c52;
      }

      .cls-4 {
        fill: #42210b;
      }

      .cls-5 {
        fill: url(#linear-gradient);
      }

      .cls-6 {
        fill: #754c24;
      }
    </style>
    <linearGradient id="linear-gradient" x1="-2108.46" y1="18.74" x2="-2107.35" y2="-20.01" gradientTransform="translate(4268.44 -1482.29) rotate(-23.91) scale(2.13 .93) skewX(-4.19)" gradientUnits="userSpaceOnUse">
      <stop offset="0" stop-color="#a67c52"/>
      <stop offset="1" stop-color="#8c6239"/>
    </linearGradient>
    <linearGradient id="linear-gradient-2" x1="-1708.55" y1="394.38" x2="-1707.44" y2="355.63" gradientTransform="translate(-3202 -1482.29) rotate(-156.09) scale(2.13 -.93) skewX(-4.19)" xlink:href="#linear-gradient"/>
  </defs>
  <g id="squirrel-front">
    <g>
      <rect class="cls-6" x="9.66" width="181" height="361" rx="70.35" ry="70.35"/>
      <path class="cls-3" d="m56,50h0c11.95,0,21.66,9.71,21.66,21.66v21.34h-43v-21.66c0-11.78,9.56-21.34,21.34-21.34Z" transform="translate(-28.23 37.66) rotate(-30)"/>
      <path class="cls-3" d="m122.46,50h43v21.34c0,11.95-9.71,21.66-21.66,21.66h0c-11.78,0-21.34-9.56-21.34-21.34v-21.66h0Z" transform="translate(232.89 205.4) rotate(-150)"/>
      <path class="cls-5" d="m159.82,220.72l39.92,128.91c2.88,9.29-3.19,20.4-14.26,26.16h0c-14.51,7.54-30.82,2.64-33.24-9.99l-28.23-147.46h0c17.98-6.88,33.26-5.86,35.82,2.38Z"/>
      <path class="cls-1" d="m40.63,220.72L.71,349.63c-2.88,9.29,3.19,20.4,14.26,26.16h0c14.51,7.54,30.82,2.64,33.24-9.99l28.23-147.46h0c-17.98-6.88-33.26-5.86-35.82,2.38Z"/>
      <path class="cls-3" d="m135.3,354.14h-69.85c-16.89,0-30.57-13.69-30.57-30.57l12-86.43c2.67-21.56,13.11-45.36,28.93-48h49.24c13.36,1.79,21.69,22.05,27.52,41.11,1.53,4.99,2.6,10.11,3.26,15.29l10.05,78.03c0,16.89-13.69,30.57-30.57,30.57Z"/>
      <path class="cls-3" d="m38.66,329h59v159.18c0,14.25-11.57,25.82-25.82,25.82h-10.52c-12.51,0-22.66-10.15-22.66-22.66v-162.34h0Z"/>
      <path class="cls-3" d="m126.32,329h10.52c14.25,0,25.82,11.57,25.82,25.82v159.18h-59v-162.34c0-12.51,10.15-22.66,22.66-22.66Z" transform="translate(266.31 843) rotate(180)"/>
      <path class="cls-3" d="m100.03,65.98h0c36.75,0,66.59,29.84,66.59,66.59v12.04c0,28.49-23.13,51.62-51.62,51.62h-28.73c-28.79,0-52.16-23.37-52.16-52.16v-12.15c0-36.39,29.54-65.94,65.94-65.94Z"/>
      <g>
        <rect x="57.71" y="113.82" width="13.08" height="22.83" rx="5.35" ry="5.35"/>
        <rect x="130.74" y="113.82" width="13.08" height="22.83" rx="5.35" ry="5.35"/>
        <path class="cls-4" d="m95.35,144.31h0c-.66-.82-.26-2.17.65-2.19,4.08-.1,8.15-.2,12.23-.3.96-.02,1.5,1.42.84,2.24l-.55.68c-3.54,4.36-9.43,4.17-13.16-.43Z"/>
        <path class="cls-2" d="m55.15,85.93l10-6.4c2.83-1.81,3.88-5.72,2.36-8.73l-1.94-3.84c-2.37-4.67-7.84-6.18-12.23-3.37h0c-5.05,3.23-6.93,10.21-4.21,15.58l3,5.91c.59,1.16,1.94,1.53,3.03.83Z"/>
        <path class="cls-2" d="m146.94,85.93l-10-6.4c-2.83-1.81-3.88-5.72-2.36-8.73l1.94-3.84c2.37-4.67,7.84-6.18,12.23-3.37h0c5.05,3.23,6.93,10.21,4.21,15.58l-3,5.91c-.59,1.16-1.94,1.53-3.03.83Z"/>
      </g>
    </g>
  </g>
</svg>