<?xml version="1.0" encoding="UTF-8"?>
<svg id="Layer_2" data-name="Layer 2" xmlns="http://www.w3.org/2000/svg" xmlns:xlink="http://www.w3.org/1999/xlink" viewBox="0 0 147.43 335.26">
  <defs>
    <style>
      .cls-1 {
        fill: #009245;
      }

      .cls-2 {
        fill: url(#linear-gradient-2);
      }

      .cls-3 {
        fill: none;
        stroke: #000;
        stroke-miterlimit: 10;
      }

      .cls-4 {
        fill: #39b54a;
      }

      .cls-5 {
        fill: url(#linear-gradient);
      }
    </style>
    <linearGradient id="linear-gradient" x1="135.18" y1="166.61" x2="136" y2="138.19" gradientUnits="userSpaceOnUse">
      <stop offset="0" stop-color="#009245"/>
      <stop offset="1" stop-color="#005f2d"/>
    </linearGradient>
    <linearGradient id="linear-gradient-2" x1="-289.82" x2="-289" y2="138.19" gradientTransform="translate(-277.57) rotate(-180) scale(1 -1)" xlink:href="#linear-gradient"/>
  </defs>
  <g id="taod_front">
    <g>
      <path class="cls-1" d="m37.47,157.26v138.87c-10.9,6.62-21.81,13.25-32.71,19.87,12.01,16.56,44.71,18.25,44.71,18.25,0,0,17.81-13.78,20.46-18.25-2.82-52.92-5.64-105.83-8.46-158.75h-24Z"/>
      <path class="cls-1" d="m109.47,156.26v140.44c10.9,6.7,21.81,13.4,32.71,20.1-12.01,16.75-44.71,18.46-44.71,18.46,0,0-17.81-13.94-20.46-18.46,2.82-53.51,5.64-107.03,8.46-160.54h24Z"/>
      <polygon class="cls-5" points="143.06 105.72 147.43 234.03 119 236.61 124.98 104.38 143.06 105.72"/>
      <polygon class="cls-2" points="4.36 105.72 0 234.03 28.43 236.61 22.45 104.38 4.36 105.72"/>
      <path class="cls-1" d="m109.28,158.26H40.67c-11.42-1.83-18.35-7.3-22.06-11.02C1.4,130-2.64,94.26,9.47,58.46,9.47,19.89,15.39,11.29,28.29,3.03c.19-.12.39-.22.59-.29,23.6-8.13,37.27,2.46,43.81,23.26.94,2.99,4.47,2.91,5.34-.12,5.82-20.3,17.91-31.25,43.02-22.89.1.03.2.07.29.11,16.2,7.12,19.12,25.03,19.12,56.01,12.01,35.49,7.97,70.97-9.14,88.13-3.69,3.7-10.62,9.19-22.06,11.02Z"/>
      <rect x="36.47" y="24.26" width="12" height="17" rx="6" ry="6"/>
      <rect x="103.47" y="24.26" width="12" height="17" rx="6" ry="6"/>
      <line class="cls-3" x1="67.47" y1="71.76" x2="83.97" y2="71.76"/>
      <path class="cls-4" d="m114.25,77.04c2.94,9.63,13.51,14.93,23.59,11.85,2.91-.89,5.46-2.39,7.55-4.29.66-9.81-2.48-20.83-9.24-31.19-2.89-.47-5.95-.31-8.97.62-10.08,3.08-15.87,13.39-12.93,23.02Z"/>
      <path class="cls-4" d="m34.9,77.85c-3.39,9.48-14.18,14.29-24.11,10.75-2.87-1.02-5.35-2.63-7.34-4.63-.2-9.83,3.43-20.69,10.67-30.73,2.91-.34,5.96-.03,8.94,1.03,9.93,3.55,15.24,14.11,11.85,23.59Z"/>
    </g>
  </g>
</svg>