<?xml version="1.0" encoding="UTF-8"?>
<svg id="Layer_2" data-name="Layer 2" xmlns="http://www.w3.org/2000/svg" xmlns:xlink="http://www.w3.org/1999/xlink" viewBox="0 0 149.76 337.81">
  <defs>
    <style>
      .cls-1 {
        fill: #009245;
      }

      .cls-2 {
        fill: url(#linear-gradient-2);
      }

      .cls-3 {
        fill: none;
        stroke: #000;
        stroke-miterlimit: 10;
      }

      .cls-4 {
        fill: #39b54a;
      }

      .cls-5 {
        fill: url(#linear-gradient);
      }
    </style>
    <linearGradient id="linear-gradient" x1="142.89" y1="177.93" x2="143.71" y2="149.51" gradientTransform="translate(-3.01 -3.05) rotate(-.27) scale(.98 .93) skewX(-.52)" gradientUnits="userSpaceOnUse">
      <stop offset="0" stop-color="#009245"/>
      <stop offset="1" stop-color="#005f2d"/>
    </linearGradient>
    <linearGradient id="linear-gradient-2" x1="-898.9" y1="156.3" x2="-898.09" y2="128.01" gradientTransform="translate(-893.97 2.5) rotate(179.89) scale(1.01 -1.03) skewX(.23)" xlink:href="#linear-gradient"/>
  </defs>
  <g id="toad_side">
    <g>
      <path class="cls-1" d="m39.98,156.98c0,46.29,1,94.71,1,141-7,14.13-16,26-19,36,17,8,53,1,53,1,2.25,2.34-1.86-26.51-5-37-2.82-52.92.82-88.08-2-141h-28Z"/>
      <path class="cls-1" d="m115.98,155.98v140.44c10.9,6.7,21.81,13.4,32.71,20.1-12.01,16.75-44.71,18.46-44.71,18.46,0,0-17.81-13.94-20.46-18.46,2.82-53.51,5.64-107.03,8.46-160.54h24Z"/>
      <polygon class="cls-5" points="144.78 105.58 148.48 225.39 120.51 227.92 126.99 104.41 144.78 105.58"/>
      <path class="cls-1" d="m111.57,158.26H42.96c-11.42-1.83-18.35-7.3-22.06-11.02C3.69,130-.35,94.26,11.77,58.46,11.77,19.89,17.68,11.29,30.59,3.03c.19-.12.39-.22.59-.29,23.6-8.13,37.27,2.46,43.81,23.26.94,2.99,4.47,2.91,5.34-.12,5.82-20.3,17.91-31.25,43.02-22.89.1.03.2.07.29.11,16.2,7.12,19.12,25.03,19.12,56.01,12.01,35.49,7.97,70.97-9.14,88.13-3.69,3.7-10.62,9.19-22.06,11.02Z"/>
      <path class="cls-2" d="m4.66,98.75L0,230.98l28.67,2.6-5.23-123.54c-.29-6.96-6.16-12.27-12.96-11.74l-5.83.45Z"/>
      <rect x="53.98" y="25.98" width="12" height="17" rx="6" ry="6"/>
      <rect x="113.98" y="24.98" width="12" height="17" rx="6" ry="6"/>
      <line class="cls-3" x1="93.45" y1="80.72" x2="113.68" y2="80.72"/>
      <path class="cls-4" d="m126.56,83.69c1.99,9.35,9.76,15.62,17.35,14.01,2.19-.47,4.13-1.54,5.73-3.06.7-9.07-1.4-19.75-6.22-30.26-2.15-.8-4.43-1.03-6.71-.55-7.59,1.62-12.13,10.51-10.14,19.86Z"/>
      <rect class="cls-4" x="35.48" y="63.48" width="41.5" height="38" rx="19" ry="19"/>
    </g>
  </g>
</svg>