<?xml version="1.0" encoding="UTF-8"?>
<svg id="acorn" xmlns="http://www.w3.org/2000/svg" xmlns:xlink="http://www.w3.org/1999/xlink" viewBox="0 0 144.22 181">
  <defs>
    <style>
      .base {
        fill: url(#acorn-lghtgrad);
      }

      .cap {
        fill: #603813;
      }

      .stem {
        fill: url(#acorn-drk-grad);
      }
    </style>
    <script>
      const acorn = document.querySelector('#acorn');

      function logSquirrelyId() {
        console.log('insert A-Corny joke here');
      }      

      acorn.addEventListener('click', logSquirrelyId);
    </script>
    <linearGradient id="acorn-lghtgrad" x1="12.99" y1="124" x2="131.87" y2="124" gradientTransform="translate(-4.26 2.6) rotate(-2)" gradientUnits="userSpaceOnUse">
      <stop offset="0" stop-color="#c69c6d"/>
      <stop offset=".27" stop-color="#c19869"/>
      <stop offset=".53" stop-color="#b58c5e"/>
      <stop offset=".8" stop-color="#a1784d"/>
      <stop offset="1" stop-color="#8d643b"/>
    </linearGradient>
    <linearGradient id="acorn-drk-grad" x1="82.86" y1="44.1" x2="82.86" y2="0" gradientUnits="userSpaceOnUse">
      <stop offset="0" stop-color="#301b0b"/>
      <stop offset=".13" stop-color="#3b220c"/>
      <stop offset=".42" stop-color="#4f2e10"/>
      <stop offset=".71" stop-color="#5b3512"/>
      <stop offset="1" stop-color="#603813"/>
    </linearGradient>
  </defs>
  <g id="acorn-2" data-name="acorn">
    <path id="base" class="base" d="m109.39,65.12l-72.2,2.52c-14.44.5-25.73,12.92-25.21,27.72l.88,25.18c2.41,29.5,15.01,39.2,18.52,41.59,5.88,4.01,15.24,7.29,26.28,11.16,5.31,1.86,9.89,3.27,13.4,4.28.46,2.32,1.84,3.99,3.41,3.94s2.85-1.84,3.13-4.2c3.24-1.28,7.48-3,12.4-5.15,13.69-5.98,21.3-9.3,26.12-12.97,3.85-2.93,15.09-13.07,15.55-42.73l-1.09-31.08c-.4-11.59-9.89-20.66-21.19-20.26Z"/>
    <path id="cap" class="cap" d="m49.78,32.71h44.66c27.48,0,49.78,22.31,49.78,49.78h0c0,9.15-7.43,16.57-16.57,16.57H16.57C7.43,99.07,0,91.64,0,82.5H0C0,55.02,22.31,32.71,49.78,32.71Z"/>
    <path id="stem" class="stem" d="m70.83,44h0c-2.88-.52-5.01-2.95-5.16-5.87-.66-12.57.15-24.04,5.7-33.52.14-.25.3-.49.48-.71,1.81-2.29,4.49-4.31,7.22-3.82l16.16,2.9c3.37.6,6.9,5.69,3.89,7.34-12.15,6.69-19.08,21-21.12,29.09-.8,3.18-3.95,5.17-7.18,4.6Z"/>
  </g>
</svg>