<?xml version="1.0" encoding="UTF-8"?>
        <svg id="blue-bird_side" xmlns="http://www.w3.org/2000/svg" xmlns:xlink="http://www.w3.org/1999/xlink" viewBox="0 0 197.94 452.24">
          <defs>
            <style>
              .s_blue_lw_feather1, .s_blue_rw_feather1 {
                fill: url(#bird-bluegrad-8);
              }

              .s_blue_lw_feather2 {
                fill: url(#bird-bluegrad-6);
              }
              
              .s_blue_rw_feather2 {
                fill: url(#bird-bluegrad-4);
              }
              
              .s_blue_lw_feather3, .s_blue_rw_feather3 {
                fill: url(#bird-bluegrad-7);
              }

              .s_blue_tail-feather1 {
                fill: url(#bird-bluegrad);
              }

              .s_blue_head-feather, .s_blue_body {
                fill: #0071bc;
              }

              .s_blue_tail-feather2 {
                fill: url(#bird-bluegrad-2);
              }
            </style>
            <script>
                const blueBirdSide = document.querySelector('#blue-bird_side');

                function logblueBirdsideId() {
                  console.log('im blue ~ Da ba dee da ba di Da ba dee da ba di');
                }      

                blueBirdSide.addEventListener('click', logblueBirdsideId);
            </script>
            <linearGradient id="bird-bluegrad" x1="-297.88" y1="880.43" x2="-293.76" y2="871.53" gradientTransform="translate(-235.41 -857.53) rotate(-180) scale(1 -1.31)" gradientUnits="userSpaceOnUse">
              <stop offset="0" stop-color="#0071bc"/>
              <stop offset=".37" stop-color="#006bb1"/>
              <stop offset="1" stop-color="#005b97"/>
            </linearGradient>
            <linearGradient id="bird-bluegrad-2" data-name="bird-bluegrad" x1="-303.4" y1="873.27" x2="-299.29" y2="864.37" gradientTransform="translate(-243.82 -846.81) rotate(-180) scale(1 -1.31)" xlink:href="#bird-bluegrad"/>
            <linearGradient id="bird-bluegrad-3" data-name="bird-bluegrad" x1="225.18" y1="379.95" x2="226.3" y2="354.54" gradientTransform="translate(-68.12 -79.48) rotate(-2.51)" xlink:href="#bird-bluegrad"/>
            <linearGradient id="bird-bluegrad-4" data-name="bird-bluegrad" x1="103.97" y1="180.79" x2="101.84" y2="155.56" gradientTransform="translate(266.32 409.49) rotate(-180)" xlink:href="#bird-bluegrad"/>
            <linearGradient id="bird-bluegrad-5" data-name="bird-bluegrad" x1="332.21" y1="642.95" x2="337.18" y2="618.39" gradientTransform="translate(-272.28 -280.21) rotate(-11.44)" xlink:href="#bird-bluegrad"/>
            <linearGradient id="bird-bluegrad-6" data-name="bird-bluegrad" x1="-1413.9" y1="316.83" x2="-1412.78" y2="291.42" gradientTransform="translate(-1323.37 117.22) rotate(167.42) scale(1 -1.5)" xlink:href="#bird-bluegrad"/>
            <linearGradient id="bird-bluegrad-7" data-name="bird-bluegrad" x1="-1531.8" y1="327.48" x2="-1533.93" y2="302.26" gradientTransform="translate(-1471.15 68.04) rotate(176.33) scale(1 -1)" xlink:href="#bird-bluegrad"/>
            <linearGradient id="bird-bluegrad-8" data-name="bird-bluegrad" x1="-1275.64" y1="326.64" x2="-1270.67" y2="302.08" gradientTransform="translate(-1115.24 -313.83) rotate(-167.42) scale(1 -1)" xlink:href="#bird-bluegrad"/>
          </defs>
          <g id="bluebird_side">
            <g id="s_blue_tail-feather">
              <path class="s_blue_tail-feather1" d="m55.08,221.41h0c3.12,0,5.66,2.54,5.66,5.66v98.24h0c-9.38,0-17-7.62-17-17v-75.56c0-6.26,5.08-11.34,11.34-11.34Z" transform="translate(327.43 314.83) rotate(109.39)"/>
              <path class="s_blue_tail-feather2" d="m54.67,229.74h0c3.12,0,5.66,2.54,5.66,5.66v98.24h0c-9.38,0-17-7.62-17-17v-75.56c0-6.26,5.08-11.34,11.34-11.34Z" transform="translate(334.75 326.32) rotate(109.39)"/>
            </g>
            <g id="s_blue_right-wing">
              <path class="s_blue_rw_feather1" d="m165.12,365.45h0c9.43-1.01,17.06-13.17,17.04-27.18l-.23-153.13c-.01-9.34-5.13-16.37-11.42-15.7h0c-3.14.34-5.68,4.39-5.67,9.05l.29,186.96Z"/>
              <path class="s_blue_rw_feather2" d="m173.29,164.95h0v190.63c0,3.12-2.54,5.66-5.66,5.66h0c-6.26,0-11.34-5.08-11.34-11.34v-167.95c0-9.38,7.62-17,17-17Z" transform="translate(306.9 539.11) rotate(-175.18)"/>
              <path class="s_blue_rw_feather3" d="m183.55,360.68h0c9.31-3.17,15.66-16.82,14.17-30.5l-16.23-149.57c-.99-9.12-6.83-14.81-13.04-12.7h0c-3.1,1.05-5.21,5.6-4.72,10.15l19.81,182.61Z"/>
            </g>
            <path id="s_blue_legs" d="m152.74,443.6c-.28,1.37-1.62,2.25-2.99,1.96l-14.39-2.98c-1.05-.22-1.8-1.05-1.97-2.05-.13-.29-.2-.6-.2-.94v-145.87c0-1.29,1.05-2.34,2.34-2.34s2.34,1.05,2.34,2.34v144.21l12.91,2.67c1.37.28,2.25,1.62,1.96,2.99Zm-50.61-152.64c-1.29,0-2.34,1.05-2.34,2.34v144.55s-.1.06-.14.1l-10.87,9.89c-1.03.94-1.11,2.54-.17,3.57s2.54,1.11,3.57.17l10.87-9.89c.23-.21.4-.45.53-.71.53-.43.88-1.08.88-1.82v-145.87c0-1.29-1.05-2.34-2.34-2.34Z"/>
            <path id="s_blue_body" class="s_blue_body" d="m183.31,92.1v-13.56c0-36.35-29.47-65.82-65.82-65.82h-1.52c-36,0-65.18,29.18-65.18,65.18v13.67c0,22.87,14.94,42.25,35.6,48.92-12.09,7.09-20.62,19.72-21.95,34.6l-6.78,75.81c-3,33.56,23.44,62.47,57.13,62.47h5.56c33.7,0,60.14-28.91,57.14-62.48l-6.86-76.77c-1.31-14.62-9.72-27.01-21.65-33.9,19.97-6.86,34.32-25.8,34.32-48.1Z"/>
            <g id="s_blue_left-wing">
              <path class="s_blue_lw_feather1" d="m53.72,359.32h0c-11.32-3.39-18.8-17.2-16.71-30.84l22.86-149.15c1.39-9.1,8.65-14.64,16.2-12.38h0c3.77,1.13,6.26,5.73,5.56,10.27l-27.91,182.1Z"/>
              <path class="s_blue_lw_feather2" d="m76.15,364.53h0c-11.51-1.23-20.59-13.58-20.28-27.59l3.38-153.09c.21-9.34,6.6-16.24,14.27-15.42h0c3.83.41,6.85,4.52,6.75,9.18l-4.13,186.92Z"/>
              <path class="s_blue_lw_feather3" d="m97.09,359.68h0c-11.45.56-21.37-6.58-22.14-15.95l-13.87-167.66c-.52-6.25,5.26-11.63,12.9-12h0c3.81-.19,7.11,2.19,7.37,5.31l15.74,190.31Z"/>
            </g>
            <path id="s_blue_face" d="m104.11,82.18h-.09c-2.18,0-3.96-1.77-3.96-3.96v-6c0-2.18,1.77-3.96,3.96-3.96h.09c2.18,0,3.96,1.77,3.96,3.96v6c0,2.18-1.77,3.96-3.96,3.96Zm63.92-4v-5.91c0-2.21-1.79-4-4-4h-.09c-2.21,0-4,1.79-4,4v5.91c0,2.21,1.79,4,4,4h.09c2.21,0,4-1.79,4-4Zm-26.02,19.79l6.44-6.14-6.44-6.14c-3.56-3.39-9.32-3.39-12.88,0l-1.07,1.02c-2.96,2.83-2.96,7.41,0,10.23l1.07,1.02c3.56,3.39,9.32,3.39,12.88,0Z"/>
            <path id="s_blue_head-feathers" class="s_blue_head-feather" d="m74.98.06h0c-3.14-.41-6.23,1.24-6.91,3.69-1.04,3.74-.3,7.39,1.75,10.44-7.47-1-15.6.68-21.78,5.12h0c-2.92,2.09-3.2,5.55-.63,7.71h0c9.07,7.62,24.77,7.81,35.06.43l5.29-3.79-1.6-1.34,3.26.43,1.23-4.43c2.4-8.63-4.62-16.8-15.68-18.25Z"/>
          </g>
        </svg>