<?xml version="1.0" encoding="UTF-8"?>
<svg id="leaf" xmlns="http://www.w3.org/2000/svg" viewBox="0 0 221.98 238.84">
  <defs>
    <style>
      .leaf-lghtgreen {
        fill: #009245;
      }

      .leaf-drkgreen {
        fill: #006837;
      }
    </style>
    <script>
        const leaf = document.querySelector('#leaf');

        function logBirdyId() {
          console.log('dont Leaf! we are having so much fern');
        }      

        leaf.addEventListener('click', logBirdyId);
    </script>
  </defs>
  <g id="leaf-2" data-name="leaf">
    <path id="shadow" class="leaf-drkgreen" d="m33.28,11.22l31.22,20.82c1.97,1.31,4.62.11,4.94-2.23l1.62-11.95c1.4-10.28,12.27-16.34,21.75-12.13l6.64,2.96c9.72,4.32,15.12,14.82,12.99,25.24l-1.45,7.11c-.71,3.47,3.92,5.35,5.83,2.36h0c5.31-8.33,16.77-10.02,24.26-3.59h0c7.97,6.84,12.34,16.99,11.83,27.48l-1.58,32.56c-.15,3.12,3.79,4.58,5.71,2.12l9.4-12.03c5.06-6.48,13.68-9.01,21.44-6.29h0c4.35,1.52,7.46,5.36,8.06,9.93l6.73,51.64c2.73,20.98,8.74,41.4,17.81,60.51h0c4.76,10.03-2.56,21.61-13.66,21.61h-7.8c-13.2,0-26.39,1-39.44,2.99l-53.99,8.24c-6.02.92-12.16-.55-17.11-4.1h0c-9.58-6.87-9.4-21.18.36-27.8l13.32-9.04c2.48-1.68,1.49-5.54-1.48-5.83l-34-3.32c-8.99-.88-17.6-4.07-25-9.25l-6.76-4.74c-9.65-6.77-10.31-20.83-1.32-28.47l14.52-12.34c2-1.7,1.21-4.96-1.35-5.55l-26.85-6.18c-8.67-2-15.33-8.95-16.95-17.7l-1.25-6.76c-1.58-8.53,3.85-16.79,12.31-18.73l15.23-3.49c2.08-.48,3.12-2.82,2.07-4.69L11.79,35.85c-3.74-6.64-3.26-14.86,1.24-21.02h0c4.7-6.44,13.63-8.03,20.26-3.61Z"/>
    <path id="leaf-3" data-name="leaf" class="leaf-lghtgreen" d="m31.82,6.85l31.22,20.82c1.97,1.31,4.62.11,4.94-2.23l1.62-11.95c1.4-10.28,12.27-16.34,21.75-12.13l6.64,2.96c9.72,4.32,15.12,14.82,12.99,25.24l-1.45,7.11c-.71,3.47,3.92,5.35,5.83,2.36h0c5.31-8.33,16.77-10.02,24.26-3.59h0c7.97,6.84,12.34,16.99,11.83,27.48l-1.58,32.56c-.15,3.12,3.79,4.58,5.71,2.12l9.4-12.03c5.06-6.48,13.68-9.01,21.44-6.29h0c4.35,1.52,7.46,5.36,8.06,9.93l6.73,51.64c2.73,20.98,8.74,41.4,17.81,60.51h0c4.76,10.03-2.56,21.61-13.66,21.61h-7.8c-13.2,0-26.39,1-39.44,2.99l-53.99,8.24c-6.02.92-12.16-.55-17.11-4.1h0c-9.58-6.87-9.4-21.18.36-27.8l13.32-9.04c2.48-1.68,1.49-5.54-1.48-5.83l-34-3.32c-8.99-.88-17.6-4.07-25-9.25l-6.76-4.74c-9.65-6.77-10.31-20.83-1.32-28.47l14.52-12.34c2-1.7,1.21-4.96-1.35-5.55l-26.85-6.18c-8.67-2-15.33-8.95-16.95-17.7l-1.25-6.76c-1.58-8.53,3.85-16.79,12.31-18.73l15.23-3.49c2.08-.48,3.12-2.82,2.07-4.69L10.33,31.48c-3.74-6.64-3.26-14.86,1.24-21.02h0c4.7-6.44,13.63-8.03,20.26-3.61Z"/>
    <path id="spine" class="leaf-drkgreen" d="m76.91,85.64l12.94,19.09c.48.7.07,1.64-.79,1.8l-11.39,2.19c-1.36.26-1.3,2.14.08,2.33l5.49.76c6.37.88,12.22,3.9,16.49,8.53l14.7,15.96c.7.76.15,1.96-.91,1.97l-16.11.13c-1.47.01-1.69,2.04-.25,2.34l17.5,3.67c4.58.96,8.83,3.04,12.32,6.05,5.14,4.43,12.12,10.63,12.39,11.88.23,1.04-7.38,3.78-14.67,6.16-1.41.46-.91,2.48.57,2.29l8.06-1.02c8.65-1.09,17.41,1.17,24.33,6.3l26.39,19.54c.8.59,1.95.08,1.99-.88h0c.19-4.51-2.01-8.82-5.85-11.46l-14.71-10.11c-9.2-6.32-15.55-15.76-17.76-26.38l-1-4.82c-.3-1.46-2.57-1.17-2.44.32l1.07,12.82c.1,1.18-1.48,1.75-2.22.8l-13.79-17.61c-4.92-6.28-7.76-13.84-8.15-21.67l-.35-7.16c-.07-1.46-2.29-1.53-2.46-.09l-1.81,15.43c-.13,1.11-1.64,1.44-2.27.5l-9.13-13.66c-4.79-7.16-6.9-15.66-5.98-24.1h0c.15-1.4-1.91-1.85-2.4-.52l-2.86,7.79c-.29.79-1.33,1.05-1.98.49l-13.16-11.17c-1.08-.92-2.64.37-1.85,1.53Z"/>
  </g>
</svg>