<?xml version="1.0" encoding="UTF-8"?>
<svg id="pine-cone" xmlns="http://www.w3.org/2000/svg" xmlns:xlink="http://www.w3.org/1999/xlink" viewBox="0 0 168.66 238.16">
  <defs>
    <style>
      .pine-1 {
        fill: url(#pinecone_grad-87);
      }

      .pine-2 {
        fill: url(#pinecone_grad-34);
      }

      .pine-3 {
        fill: url(#pinecone_grad-134);
      }

      .pine-4 {
        fill: url(#pinecone_grad-102);
      }

      .pine-5 {
        fill: url(#linear-gradient-2);
      }

      .pine-6 {
        fill: url(#pinecone_grad-53);
      }

      .pine-7 {
        fill: url(#pinecone_grad-163);
      }

      .pine-8 {
        fill: url(#pinecone_grad-164);
      }

      .pine-9 {
        fill: url(#pinecone_grad-15);
      }

      .pine-10 {
        fill: url(#pinecone_grad-58);
      }

      .pine-11 {
        fill: url(#pinecone_grad-76);
      }

      .pine-12 {
        fill: url(#pinecone_grad-89);
      }

      .pine-13 {
        fill: url(#pinecone_grad-167);
      }

      .pine-14 {
        fill: url(#pinecone_grad-141);
      }

      .pine-15 {
        fill: url(#pinecone_grad-5);
      }

      .pine-16 {
        fill: url(#pinecone_grad-22);
      }

      .pine-17 {
        fill: url(#pinecone_grad);
      }

      .pine-18 {
        fill: url(#pinecone_grad-157);
      }

      .pine-19 {
        fill: url(#pinecone_grad-105);
      }

      .pine-20 {
        fill: url(#pinecone_grad-23);
      }

      .pine-21 {
        fill: url(#pinecone_grad-50);
      }

      .pine-22 {
        fill: url(#pinecone_grad-142);
      }

      .pine-23 {
        fill: url(#pinecone_grad-114);
      }

      .pine-24 {
        fill: url(#pinecone_grad-7);
      }

      .pine-25 {
        fill: url(#pinecone_grad-60);
      }

      .pine-26 {
        fill: url(#pinecone_grad-116);
      }

      .pine-27 {
        fill: url(#pinecone_grad-158);
      }

      .pine-28 {
        fill: url(#pinecone_grad-122);
      }

      .pine-29 {
        fill: url(#pinecone_grad-39);
      }

      .pine-30 {
        fill: url(#pinecone_grad-137);
      }

      .pine-31 {
        fill: url(#pinecone_grad-45);
      }

      .pine-32 {
        fill: url(#pinecone_grad-168);
      }

      .pine-33 {
        fill: url(#pinecone_grad-46);
      }

      .pine-34 {
        fill: url(#pinecone_grad-108);
      }

      .pine-35 {
        fill: url(#pinecone_grad-115);
      }

      .pine-36 {
        fill: url(#pinecone_grad-118);
      }

      .pine-37 {
        fill: url(#pinecone_grad-57);
      }

      .pine-38 {
        fill: url(#pinecone_grad-26);
      }

      .pine-39 {
        fill: url(#pinecone_grad-82);
      }

      .pine-40 {
        fill: url(#pinecone_grad-66);
      }

      .pine-41 {
        fill: url(#pinecone_grad-30);
      }

      .pine-42 {
        fill: url(#pinecone_grad-33);
      }

      .pine-43 {
        fill: url(#pinecone_grad-156);
      }

      .pine-44 {
        fill: url(#pinecone_grad-124);
      }

      .pine-45 {
        fill: url(#pinecone_grad-29);
      }

      .pine-46 {
        fill: url(#pinecone_grad-31);
      }

      .pine-47 {
        fill: url(#pinecone_grad-48);
      }

      .pine-48 {
        fill: url(#pinecone_grad-85);
      }

      .pine-49 {
        fill: url(#pinecone_grad-71);
      }

      .pine-50 {
        fill: url(#pinecone_grad-145);
      }

      .pine-51 {
        fill: url(#pinecone_grad-126);
      }

      .pine-52 {
        fill: url(#pinecone_grad-20);
      }

      .pine-53 {
        fill: url(#pinecone_grad-25);
      }

      .pine-54 {
        fill: url(#pinecone_grad-159);
      }

      .pine-55 {
        fill: url(#pinecone_grad-19);
      }

      .pine-56 {
        fill: url(#pinecone_grad-4);
      }

      .pine-57 {
        fill: url(#pinecone_grad-72);
      }

      .pine-58 {
        fill: url(#pinecone_grad-73);
      }

      .pine-59 {
        fill: url(#pinecone_grad-97);
      }

      .pine-60 {
        fill: url(#pinecone_grad-69);
      }

      .pine-61 {
        fill: url(#pinecone_grad-93);
      }

      .pine-62 {
        fill: url(#pinecone_grad-171);
      }

      .pine-63 {
        fill: url(#pinecone_grad-144);
      }

      .pine-64 {
        fill: url(#pinecone_grad-169);
      }

      .pine-65 {
        fill: url(#pinecone_grad-90);
      }

      .pine-66 {
        fill: url(#pinecone_grad-111);
      }

      .pine-67 {
        fill: url(#pinecone_grad-160);
      }

      .pine-68 {
        fill: url(#pinecone_grad-51);
      }

      .pine-69 {
        fill: url(#pinecone_grad-86);
      }

      .pine-70 {
        fill: url(#pinecone_grad-18);
      }

      .pine-71 {
        fill: url(#pinecone_grad-78);
      }

      .pine-72 {
        fill: url(#pinecone_grad-94);
      }

      .pine-73 {
        fill: url(#pinecone_grad-113);
      }

      .pine-74 {
        fill: url(#pinecone_grad-14);
      }

      .pine-75 {
        fill: url(#pinecone_grad-10);
      }

      .pine-76 {
        fill: url(#pinecone_grad-38);
      }

      .pine-77 {
        fill: url(#pinecone_grad-95);
      }

      .pine-78 {
        fill: url(#pinecone_grad-21);
      }

      .pine-79 {
        fill: url(#pinecone_grad-165);
      }

      .pine-80 {
        fill: url(#pinecone_grad-119);
      }

      .pine-81 {
        fill: url(#pinecone_grad-151);
      }

      .pine-82 {
        fill: url(#pinecone_grad-154);
      }

      .pine-83 {
        fill: url(#pinecone_grad-98);
      }

      .pine-84 {
        fill: url(#pinecone_grad-147);
      }

      .pine-85 {
        fill: url(#pinecone_grad-81);
      }

      .pine-86 {
        fill: url(#pinecone_grad-166);
      }

      .pine-87 {
        fill: url(#pinecone_grad-12);
      }

      .pine-88 {
        fill: url(#pinecone_grad-110);
      }

      .pine-89 {
        fill: url(#pinecone_grad-139);
      }

      .pine-90 {
        fill: url(#pinecone_grad-136);
      }

      .pine-91 {
        fill: url(#pinecone_grad-88);
      }

      .pine-92 {
        fill: url(#pinecone_grad-135);
      }

      .pine-93 {
        fill: url(#pinecone_grad-79);
      }

      .pine-94 {
        fill: url(#pinecone_grad-150);
      }

      .pine-95 {
        fill: url(#pinecone_grad-128);
      }

      .pine-96 {
        fill: url(#pinecone_grad-83);
      }

      .pine-97 {
        fill: url(#pinecone_grad-16);
      }

      .pine-98 {
        fill: url(#pinecone_grad-170);
      }

      .pine-99 {
        fill: url(#pinecone_grad-138);
      }

      .pine-100 {
        fill: url(#pinecone_grad-146);
      }

      .pine-101 {
        fill: url(#pinecone_grad-74);
      }

      .pine-102 {
        fill: url(#pinecone_grad-49);
      }

      .pine-103 {
        fill: url(#pinecone_grad-27);
      }

      .pine-104 {
        fill: url(#pinecone_grad-52);
      }

      .pine-105 {
        fill: url(#pinecone_grad-99);
      }

      .pine-106 {
        fill: url(#pinecone_grad-62);
      }

      .pine-107 {
        fill: url(#pinecone_grad-103);
      }

      .pine-108 {
        fill: url(#pinecone_grad-40);
      }

      .pine-109 {
        fill: url(#pinecone_grad-109);
      }

      .pine-110 {
        fill: url(#pinecone_grad-129);
      }

      .pine-111 {
        fill: url(#pinecone_grad-107);
      }

      .pine-112 {
        fill: url(#pinecone_grad-36);
      }

      .pine-113 {
        fill: url(#pinecone_grad-61);
      }

      .pine-114 {
        fill: url(#pinecone_grad-43);
      }

      .pine-115 {
        fill: url(#pinecone_grad-77);
      }

      .pine-116 {
        fill: url(#pinecone_grad-106);
      }

      .pine-117 {
        fill: url(#pinecone_grad-100);
      }

      .pine-118 {
        fill: url(#pinecone_grad-24);
      }

      .pine-119 {
        fill: url(#pinecone_grad-13);
      }

      .pine-120 {
        fill: url(#pinecone_grad-70);
      }

      .pine-121 {
        fill: url(#pinecone_grad-104);
      }

      .pine-122 {
        fill: url(#pinecone_grad-11);
      }

      .pine-123 {
        fill: url(#pinecone_grad-140);
      }

      .pine-124 {
        fill: url(#pinecone_grad-6);
      }

      .pine-125 {
        fill: url(#pinecone_grad-123);
      }

      .pine-126 {
        fill: url(#pinecone_grad-125);
      }

      .pine-127 {
        fill: url(#pinecone_grad-56);
      }

      .pine-128 {
        fill: url(#pinecone_grad-117);
      }

      .pine-129 {
        fill: url(#pinecone_grad-120);
      }

      .pine-130 {
        fill: url(#pinecone_grad-112);
      }

      .pine-131 {
        fill: url(#pinecone_grad-54);
      }

      .pine-132 {
        fill: url(#pinecone_grad-148);
      }

      .pine-133 {
        fill: url(#pinecone_grad-17);
      }

      .pine-134 {
        fill: url(#pinecone_grad-42);
      }

      .pine-135 {
        fill: url(#pinecone_grad-2);
      }

      .pine-136 {
        fill: url(#pinecone_grad-55);
      }

      .pine-137 {
        fill: url(#pinecone_grad-153);
      }

      .pine-138 {
        fill: url(#pinecone_grad-68);
      }

      .pine-139 {
        fill: url(#pinecone_grad-32);
      }

      .pine-140 {
        fill: url(#linear-gradient-3);
      }

      .pine-141 {
        fill: url(#pinecone_grad-8);
      }

      .pine-142 {
        fill: url(#pinecone_grad-63);
      }

      .pine-143 {
        fill: url(#pinecone_grad-28);
      }

      .pine-144 {
        fill: url(#pinecone_grad-41);
      }

      .pine-145 {
        fill: url(#pinecone_grad-132);
      }

      .pine-146 {
        fill: url(#linear-gradient);
      }

      .pine-147 {
        fill: url(#pinecone_grad-161);
      }

      .pine-148 {
        fill: url(#pinecone_grad-65);
      }

      .pine-149 {
        fill: url(#pinecone_grad-96);
      }

      .pine-150 {
        fill: url(#pinecone_grad-75);
      }

      .pine-151 {
        fill: url(#pinecone_grad-3);
      }

      .pine-152 {
        fill: url(#pinecone_grad-47);
      }

      .pine-153 {
        fill: url(#pinecone_grad-101);
      }

      .pine-154 {
        fill: url(#pinecone_grad-59);
      }

      .pine-155 {
        fill: url(#pinecone_grad-9);
      }

      .pine-156 {
        fill: url(#pinecone_grad-133);
      }

      .pine-157 {
        fill: url(#pinecone_grad-84);
      }

      .pine-158 {
        fill: url(#pinecone_grad-121);
      }

      .pine-159 {
        fill: url(#linear-gradient-4);
      }

      .pine-160 {
        fill: url(#pinecone_grad-162);
      }

      .pine-161 {
        fill: url(#pinecone_grad-152);
      }

      .pine-162 {
        fill: url(#pinecone_grad-91);
      }

      .pine-163 {
        fill: url(#pinecone_grad-37);
      }

      .pine-164 {
        fill: url(#pinecone_grad-80);
      }

      .pine-165 {
        fill: url(#pinecone_grad-155);
      }

      .pine-166 {
        fill: url(#pinecone_grad-143);
      }

      .pine-167 {
        fill: url(#pinecone_grad-67);
      }

      .pine-168 {
        fill: url(#pinecone_grad-149);
      }

      .pine-169 {
        fill: url(#pinecone_grad-44);
      }

      .pine-170 {
        fill: url(#pinecone_grad-127);
      }

      .pine-171 {
        fill: url(#pinecone_grad-131);
      }

      .pine-172 {
        fill: url(#pinecone_grad-92);
      }

      .pine-173 {
        fill: url(#pinecone_grad-64);
      }

      .pine-174 {
        fill: url(#pinecone_grad-35);
      }

      .pine-175 {
        fill: url(#pinecone_grad-130);
      }
    </style>
    <script>
        const pinecone = document.querySelector('#pine-cone');

        function logBirdyId() {
          console.log('Pining for a good mark');
        }      

        pinecone.addEventListener('click', logBirdyId);
    </script>
    <linearGradient id="pinecone_grad" x1="84.22" y1="43.05" x2="84.22" y2="0" gradientUnits="userSpaceOnUse">
      <stop offset="0" stop-color="#603813"/>
      <stop offset=".2" stop-color="#653d17"/>
      <stop offset=".46" stop-color="#754c25"/>
      <stop offset=".72" stop-color="#8c6239"/>
      <stop offset=".82" stop-color="#8d633a"/>
      <stop offset=".85" stop-color="#946a40"/>
      <stop offset=".88" stop-color="#a0764b"/>
      <stop offset=".9" stop-color="#b1875a"/>
      <stop offset=".92" stop-color="#c69c6d"/>
    </linearGradient>
    <linearGradient id="pinecone_grad-2" data-name="pinecone_grad" x1="83.86" x2="83.86" xlink:href="#pinecone_grad"/>
    <linearGradient id="pinecone_grad-3" data-name="pinecone_grad" x1="83.86" x2="83.86" xlink:href="#pinecone_grad"/>
    <linearGradient id="pinecone_grad-4" data-name="pinecone_grad" x1="105.85" y1="53.19" x2="105.85" y2="10.39" xlink:href="#pinecone_grad"/>
    <linearGradient id="pinecone_grad-5" data-name="pinecone_grad" x1="105.85" y1="53.19" x2="105.85" y2="10.39" xlink:href="#pinecone_grad"/>
    <linearGradient id="pinecone_grad-6" data-name="pinecone_grad" x1="95.61" x2="95.61" xlink:href="#pinecone_grad"/>
    <linearGradient id="pinecone_grad-7" data-name="pinecone_grad" x1="95.61" y1="53.19" x2="95.61" y2="10.39" xlink:href="#pinecone_grad"/>
    <linearGradient id="pinecone_grad-8" data-name="pinecone_grad" x1="95.61" x2="95.61" xlink:href="#pinecone_grad"/>
    <linearGradient id="pinecone_grad-9" data-name="pinecone_grad" x1="95.61" y1="53.19" x2="95.61" y2="10.39" xlink:href="#pinecone_grad"/>
    <linearGradient id="pinecone_grad-10" data-name="pinecone_grad" x1="61.92" y1="53.01" x2="61.92" y2="10.21" xlink:href="#pinecone_grad"/>
    <linearGradient id="pinecone_grad-11" data-name="pinecone_grad" x1="72.62" x2="72.62" xlink:href="#pinecone_grad"/>
    <linearGradient id="pinecone_grad-12" data-name="pinecone_grad" x1="72.62" x2="72.62" xlink:href="#pinecone_grad"/>
    <linearGradient id="pinecone_grad-13" data-name="pinecone_grad" x1="72.62" y1="53.01" x2="72.62" y2="10.21" xlink:href="#pinecone_grad"/>
    <linearGradient id="pinecone_grad-14" data-name="pinecone_grad" x1="83.91" x2="83.91" xlink:href="#pinecone_grad"/>
    <linearGradient id="pinecone_grad-15" data-name="pinecone_grad" x1="83.91" y1="53.19" x2="83.91" y2="10.39" xlink:href="#pinecone_grad"/>
    <linearGradient id="pinecone_grad-16" data-name="pinecone_grad" x1="83.91" x2="83.91" xlink:href="#pinecone_grad"/>
    <linearGradient id="pinecone_grad-17" data-name="pinecone_grad" x1="83.91" y1="53.19" x2="83.91" y2="10.39" xlink:href="#pinecone_grad"/>
    <linearGradient id="pinecone_grad-18" data-name="pinecone_grad" x1="83.91" y1="53.01" x2="83.91" y2="10.21" xlink:href="#pinecone_grad"/>
    <linearGradient id="pinecone_grad-19" data-name="pinecone_grad" x1="84.69" y1="67.12" x2="84.69" y2="17.05" xlink:href="#pinecone_grad"/>
    <linearGradient id="pinecone_grad-20" data-name="pinecone_grad" x1="84.69" y1="67.12" x2="84.69" y2="17.05" xlink:href="#pinecone_grad"/>
    <linearGradient id="pinecone_grad-21" data-name="pinecone_grad" x1="84.12" y1="67.12" x2="84.12" y2="17.05" xlink:href="#pinecone_grad"/>
    <linearGradient id="pinecone_grad-22" data-name="pinecone_grad" x1="84.12" y1="67.12" x2="84.12" y2="17.05" xlink:href="#pinecone_grad"/>
    <linearGradient id="pinecone_grad-23" data-name="pinecone_grad" x1="96.4" y1="78.91" x2="96.4" y2="29.12" xlink:href="#pinecone_grad"/>
    <linearGradient id="pinecone_grad-24" data-name="pinecone_grad" x1="96.4" y1="78.91" x2="96.4" y2="29.12" xlink:href="#pinecone_grad"/>
    <linearGradient id="pinecone_grad-25" data-name="pinecone_grad" x1="115.44" y1="78.91" x2="115.44" y2="29.12" xlink:href="#pinecone_grad"/>
    <linearGradient id="pinecone_grad-26" data-name="pinecone_grad" x1="115.44" y1="78.91" x2="115.44" y2="29.12" xlink:href="#pinecone_grad"/>
    <linearGradient id="pinecone_grad-27" data-name="pinecone_grad" x1="97.78" y1="67.12" x2="97.78" y2="17.05" xlink:href="#pinecone_grad"/>
    <linearGradient id="pinecone_grad-28" data-name="pinecone_grad" x1="97.78" y1="78.91" x2="97.78" y2="29.12" xlink:href="#pinecone_grad"/>
    <linearGradient id="pinecone_grad-29" data-name="pinecone_grad" x1="97.78" y1="67.12" x2="97.78" y2="17.05" xlink:href="#pinecone_grad"/>
    <linearGradient id="pinecone_grad-30" data-name="pinecone_grad" x1="97.78" y1="78.91" x2="97.78" y2="29.12" xlink:href="#pinecone_grad"/>
    <linearGradient id="pinecone_grad-31" data-name="pinecone_grad" x1="72.33" y1="78.7" x2="72.33" y2="28.92" xlink:href="#pinecone_grad"/>
    <linearGradient id="pinecone_grad-32" data-name="pinecone_grad" x1="53.36" y1="78.7" x2="53.36" y2="28.92" xlink:href="#pinecone_grad"/>
    <linearGradient id="pinecone_grad-33" data-name="pinecone_grad" x1="71.23" y1="67.12" x2="71.23" y2="17.05" xlink:href="#pinecone_grad"/>
    <linearGradient id="pinecone_grad-34" data-name="pinecone_grad" x1="71.23" y1="67.12" x2="71.23" y2="17.05" xlink:href="#pinecone_grad"/>
    <linearGradient id="pinecone_grad-35" data-name="pinecone_grad" x1="71.23" y1="78.7" x2="71.23" y2="28.92" xlink:href="#pinecone_grad"/>
    <linearGradient id="pinecone_grad-36" data-name="pinecone_grad" x1="84.15" y1="67.12" x2="84.15" y2="17.05" xlink:href="#pinecone_grad"/>
    <linearGradient id="pinecone_grad-37" data-name="pinecone_grad" x1="84.15" y1="78.91" x2="84.15" y2="29.12" xlink:href="#pinecone_grad"/>
    <linearGradient id="pinecone_grad-38" data-name="pinecone_grad" x1="84.15" y1="67.12" x2="84.15" y2="17.05" xlink:href="#pinecone_grad"/>
    <linearGradient id="pinecone_grad-39" data-name="pinecone_grad" x1="84.15" y1="78.91" x2="84.15" y2="29.12" xlink:href="#pinecone_grad"/>
    <linearGradient id="pinecone_grad-40" data-name="pinecone_grad" x1="84.15" y1="78.7" x2="84.15" y2="28.92" xlink:href="#pinecone_grad"/>
    <linearGradient id="pinecone_grad-41" data-name="pinecone_grad" x1="42.07" y1="91.47" x2="42.07" y2="42.7" xlink:href="#pinecone_grad"/>
    <linearGradient id="pinecone_grad-42" data-name="pinecone_grad" x1="52.24" y1="78.7" x2="52.24" y2="28.91" xlink:href="#pinecone_grad"/>
    <linearGradient id="pinecone_grad-43" data-name="pinecone_grad" x1="52.24" y1="91.47" x2="52.24" y2="42.7" xlink:href="#pinecone_grad"/>
    <linearGradient id="pinecone_grad-44" data-name="pinecone_grad" x1="63.77" y1="67.12" x2="63.77" y2="17.05" xlink:href="#pinecone_grad"/>
    <linearGradient id="pinecone_grad-45" data-name="pinecone_grad" x1="63.77" y1="67.12" x2="63.77" y2="17.05" xlink:href="#pinecone_grad"/>
    <linearGradient id="pinecone_grad-46" data-name="pinecone_grad" x1="63.77" y1="78.7" x2="63.77" y2="28.92" xlink:href="#pinecone_grad"/>
    <linearGradient id="pinecone_grad-47" data-name="pinecone_grad" x1="63.77" y1="91.47" x2="63.77" y2="42.7" xlink:href="#pinecone_grad"/>
    <linearGradient id="pinecone_grad-48" data-name="pinecone_grad" x1="126.94" y1="91.27" x2="126.94" y2="42.5" xlink:href="#pinecone_grad"/>
    <linearGradient id="pinecone_grad-49" data-name="pinecone_grad" x1="116.36" y1="78.91" x2="116.36" y2="29.12" xlink:href="#pinecone_grad"/>
    <linearGradient id="pinecone_grad-50" data-name="pinecone_grad" x1="116.36" y1="78.91" x2="116.36" y2="29.12" xlink:href="#pinecone_grad"/>
    <linearGradient id="pinecone_grad-51" data-name="pinecone_grad" x1="116.36" y1="91.27" x2="116.36" y2="42.5" xlink:href="#pinecone_grad"/>
    <linearGradient id="pinecone_grad-52" data-name="pinecone_grad" x1="105.5" y1="67.12" x2="105.5" y2="17.05" xlink:href="#pinecone_grad"/>
    <linearGradient id="pinecone_grad-53" data-name="pinecone_grad" x1="105.5" y1="78.91" x2="105.5" y2="29.12" xlink:href="#pinecone_grad"/>
    <linearGradient id="pinecone_grad-54" data-name="pinecone_grad" x1="105.5" y1="67.12" x2="105.5" y2="17.05" xlink:href="#pinecone_grad"/>
    <linearGradient id="pinecone_grad-55" data-name="pinecone_grad" x1="105.5" y1="78.91" x2="105.5" y2="29.12" xlink:href="#pinecone_grad"/>
    <linearGradient id="pinecone_grad-56" data-name="pinecone_grad" x1="105.5" y1="91.27" x2="105.5" y2="42.5" xlink:href="#pinecone_grad"/>
    <linearGradient id="pinecone_grad-57" data-name="pinecone_grad" x1="85.28" y1="96.24" x2="85.28" y2="37.91" xlink:href="#pinecone_grad"/>
    <linearGradient id="pinecone_grad-58" data-name="pinecone_grad" x1="85.28" y1="96.24" x2="85.28" y2="37.91" xlink:href="#pinecone_grad"/>
    <linearGradient id="pinecone_grad-59" data-name="pinecone_grad" x1="84.61" y1="96.24" x2="84.61" y2="37.91" xlink:href="#pinecone_grad"/>
    <linearGradient id="pinecone_grad-60" data-name="pinecone_grad" x1="84.61" y1="96.24" x2="84.61" y2="37.91" xlink:href="#pinecone_grad"/>
    <linearGradient id="pinecone_grad-61" data-name="pinecone_grad" x1="98.92" y1="109.97" x2="98.92" y2="51.98" xlink:href="#pinecone_grad"/>
    <linearGradient id="pinecone_grad-62" data-name="pinecone_grad" x1="98.92" y1="109.97" x2="98.92" y2="51.98" xlink:href="#pinecone_grad"/>
    <linearGradient id="pinecone_grad-63" data-name="pinecone_grad" x1="121.1" y1="109.97" x2="121.1" y2="51.98" xlink:href="#pinecone_grad"/>
    <linearGradient id="pinecone_grad-64" data-name="pinecone_grad" x1="121.1" y1="109.97" x2="121.1" y2="51.98" xlink:href="#pinecone_grad"/>
    <linearGradient id="pinecone_grad-65" data-name="pinecone_grad" x1="100.53" y1="96.24" x2="100.53" y2="37.91" xlink:href="#pinecone_grad"/>
    <linearGradient id="pinecone_grad-66" data-name="pinecone_grad" x1="100.53" y1="109.97" x2="100.53" y2="51.98" xlink:href="#pinecone_grad"/>
    <linearGradient id="pinecone_grad-67" data-name="pinecone_grad" x1="100.53" y1="96.24" x2="100.53" y2="37.91" xlink:href="#pinecone_grad"/>
    <linearGradient id="pinecone_grad-68" data-name="pinecone_grad" x1="100.53" y1="109.97" x2="100.53" y2="51.98" xlink:href="#pinecone_grad"/>
    <linearGradient id="pinecone_grad-69" data-name="pinecone_grad" x1="48.79" y1="109.73" x2="48.79" y2="51.74" xlink:href="#pinecone_grad"/>
    <linearGradient id="pinecone_grad-70" data-name="pinecone_grad" x1="70.88" y1="109.73" x2="70.88" y2="51.74" xlink:href="#pinecone_grad"/>
    <linearGradient id="pinecone_grad-71" data-name="pinecone_grad" x1="69.6" y1="96.24" x2="69.6" y2="37.91" xlink:href="#pinecone_grad"/>
    <linearGradient id="pinecone_grad-72" data-name="pinecone_grad" x1="69.6" y1="96.24" x2="69.6" y2="37.91" xlink:href="#pinecone_grad"/>
    <linearGradient id="pinecone_grad-73" data-name="pinecone_grad" x1="69.6" y1="109.73" x2="69.6" y2="51.74" xlink:href="#pinecone_grad"/>
    <linearGradient id="pinecone_grad-74" data-name="pinecone_grad" x1="84.65" y1="96.24" x2="84.65" y2="37.91" xlink:href="#pinecone_grad"/>
    <linearGradient id="pinecone_grad-75" data-name="pinecone_grad" x1="84.65" y1="109.97" x2="84.65" y2="51.98" xlink:href="#pinecone_grad"/>
    <linearGradient id="pinecone_grad-76" data-name="pinecone_grad" x1="84.65" y1="96.24" x2="84.65" y2="37.91" xlink:href="#pinecone_grad"/>
    <linearGradient id="pinecone_grad-77" data-name="pinecone_grad" x1="84.65" y1="109.97" x2="84.65" y2="51.98" xlink:href="#pinecone_grad"/>
    <linearGradient id="pinecone_grad-78" data-name="pinecone_grad" x1="84.65" y1="109.73" x2="84.65" y2="51.74" xlink:href="#pinecone_grad"/>
    <linearGradient id="pinecone_grad-79" data-name="pinecone_grad" x1="35.64" y1="124.6" x2="35.64" y2="67.79" xlink:href="#pinecone_grad"/>
    <linearGradient id="pinecone_grad-80" data-name="pinecone_grad" x1="47.48" y1="109.73" x2="47.48" y2="51.74" xlink:href="#pinecone_grad"/>
    <linearGradient id="pinecone_grad-81" data-name="pinecone_grad" x1="47.48" y1="124.6" x2="47.48" y2="67.79" xlink:href="#pinecone_grad"/>
    <linearGradient id="pinecone_grad-82" data-name="pinecone_grad" x1="60.91" y1="96.24" x2="60.91" y2="37.91" xlink:href="#pinecone_grad"/>
    <linearGradient id="pinecone_grad-83" data-name="pinecone_grad" x1="60.91" y1="96.24" x2="60.91" y2="37.91" xlink:href="#pinecone_grad"/>
    <linearGradient id="pinecone_grad-84" data-name="pinecone_grad" x1="60.91" y1="109.73" x2="60.91" y2="51.74" xlink:href="#pinecone_grad"/>
    <linearGradient id="pinecone_grad-85" data-name="pinecone_grad" x1="60.91" y1="124.6" x2="60.91" y2="67.79" xlink:href="#pinecone_grad"/>
    <linearGradient id="pinecone_grad-86" data-name="pinecone_grad" x1="134.48" y1="124.37" x2="134.48" y2="67.56" xlink:href="#pinecone_grad"/>
    <linearGradient id="pinecone_grad-87" data-name="pinecone_grad" x1="122.16" y1="109.97" x2="122.16" y2="51.98" xlink:href="#pinecone_grad"/>
    <linearGradient id="pinecone_grad-88" data-name="pinecone_grad" x1="122.16" y1="109.97" x2="122.16" y2="51.98" xlink:href="#pinecone_grad"/>
    <linearGradient id="pinecone_grad-89" data-name="pinecone_grad" x1="122.16" y1="124.37" x2="122.16" y2="67.56" xlink:href="#pinecone_grad"/>
    <linearGradient id="pinecone_grad-90" data-name="pinecone_grad" x1="109.52" y1="96.24" x2="109.52" y2="37.91" xlink:href="#pinecone_grad"/>
    <linearGradient id="pinecone_grad-91" data-name="pinecone_grad" x1="109.52" y1="109.97" x2="109.52" y2="51.98" xlink:href="#pinecone_grad"/>
    <linearGradient id="pinecone_grad-92" data-name="pinecone_grad" x1="109.52" y1="96.24" x2="109.52" y2="37.91" xlink:href="#pinecone_grad"/>
    <linearGradient id="pinecone_grad-93" data-name="pinecone_grad" x1="109.52" y1="109.97" x2="109.52" y2="51.98" xlink:href="#pinecone_grad"/>
    <linearGradient id="pinecone_grad-94" data-name="pinecone_grad" x1="109.52" y1="124.37" x2="109.52" y2="67.56" xlink:href="#pinecone_grad"/>
    <linearGradient id="pinecone_grad-95" data-name="pinecone_grad" x1="85.78" y1="126.06" x2="85.78" y2="63.43" xlink:href="#pinecone_grad"/>
    <linearGradient id="pinecone_grad-96" data-name="pinecone_grad" x1="85.78" y1="126.06" x2="85.78" y2="63.43" xlink:href="#pinecone_grad"/>
    <linearGradient id="pinecone_grad-97" data-name="pinecone_grad" x1="85.06" y1="126.06" x2="85.06" y2="63.43" xlink:href="#pinecone_grad"/>
    <linearGradient id="pinecone_grad-98" data-name="pinecone_grad" x1="85.06" y1="126.06" x2="85.06" y2="63.43" xlink:href="#pinecone_grad"/>
    <linearGradient id="pinecone_grad-99" data-name="pinecone_grad" x1="124.24" y1="140.81" x2="124.24" y2="78.54" xlink:href="#pinecone_grad"/>
    <linearGradient id="pinecone_grad-100" data-name="pinecone_grad" x1="124.24" y1="140.81" x2="124.24" y2="78.54" xlink:href="#pinecone_grad"/>
    <linearGradient id="pinecone_grad-101" data-name="pinecone_grad" x1="100.43" y1="140.81" x2="100.43" y2="78.54" xlink:href="#pinecone_grad"/>
    <linearGradient id="pinecone_grad-102" data-name="pinecone_grad" x1="100.43" y1="140.81" x2="100.43" y2="78.54" xlink:href="#pinecone_grad"/>
    <linearGradient id="pinecone_grad-103" data-name="pinecone_grad" x1="102.16" y1="126.06" x2="102.16" y2="63.43" xlink:href="#pinecone_grad"/>
    <linearGradient id="pinecone_grad-104" data-name="pinecone_grad" x1="102.16" y1="140.81" x2="102.16" y2="78.54" xlink:href="#pinecone_grad"/>
    <linearGradient id="pinecone_grad-105" data-name="pinecone_grad" x1="102.16" y1="126.06" x2="102.16" y2="63.43" xlink:href="#pinecone_grad"/>
    <linearGradient id="pinecone_grad-106" data-name="pinecone_grad" x1="102.16" y1="140.81" x2="102.16" y2="78.54" xlink:href="#pinecone_grad"/>
    <linearGradient id="pinecone_grad-107" data-name="pinecone_grad" x1="46.59" y1="140.55" x2="46.59" y2="78.28" xlink:href="#pinecone_grad"/>
    <linearGradient id="pinecone_grad-108" data-name="pinecone_grad" x1="70.32" y1="140.55" x2="70.32" y2="78.28" xlink:href="#pinecone_grad"/>
    <linearGradient id="pinecone_grad-109" data-name="pinecone_grad" x1="68.94" y1="126.06" x2="68.94" y2="63.43" xlink:href="#pinecone_grad"/>
    <linearGradient id="pinecone_grad-110" data-name="pinecone_grad" x1="68.94" y1="126.06" x2="68.94" y2="63.43" xlink:href="#pinecone_grad"/>
    <linearGradient id="pinecone_grad-111" data-name="pinecone_grad" x1="68.94" y1="140.55" x2="68.94" y2="78.28" xlink:href="#pinecone_grad"/>
    <linearGradient id="pinecone_grad-112" data-name="pinecone_grad" x1="85.11" y1="126.06" x2="85.11" y2="63.43" xlink:href="#pinecone_grad"/>
    <linearGradient id="pinecone_grad-113" data-name="pinecone_grad" x1="85.11" y1="140.81" x2="85.11" y2="78.54" xlink:href="#pinecone_grad"/>
    <linearGradient id="pinecone_grad-114" data-name="pinecone_grad" x1="85.11" y1="126.06" x2="85.11" y2="63.43" xlink:href="#pinecone_grad"/>
    <linearGradient id="pinecone_grad-115" data-name="pinecone_grad" x1="85.11" y1="140.81" x2="85.11" y2="78.54" xlink:href="#pinecone_grad"/>
    <linearGradient id="pinecone_grad-116" data-name="pinecone_grad" x1="85.11" y1="140.55" x2="85.11" y2="78.28" xlink:href="#pinecone_grad"/>
    <linearGradient id="pinecone_grad-117" data-name="pinecone_grad" x1="32.48" y1="156.52" x2="32.48" y2="95.52" xlink:href="#pinecone_grad"/>
    <linearGradient id="pinecone_grad-118" data-name="pinecone_grad" x1="45.19" y1="140.55" x2="45.19" y2="78.28" xlink:href="#pinecone_grad"/>
    <linearGradient id="pinecone_grad-119" data-name="pinecone_grad" x1="45.19" y1="156.52" x2="45.19" y2="95.52" xlink:href="#pinecone_grad"/>
    <linearGradient id="pinecone_grad-120" data-name="pinecone_grad" x1="59.61" y1="126.06" x2="59.61" y2="63.43" xlink:href="#pinecone_grad"/>
    <linearGradient id="pinecone_grad-121" data-name="pinecone_grad" x1="59.61" y1="126.06" x2="59.61" y2="63.43" xlink:href="#pinecone_grad"/>
    <linearGradient id="pinecone_grad-122" data-name="pinecone_grad" x1="59.61" y1="140.55" x2="59.61" y2="78.28" xlink:href="#pinecone_grad"/>
    <linearGradient id="pinecone_grad-123" data-name="pinecone_grad" x1="59.61" y1="156.52" x2="59.61" y2="95.52" xlink:href="#pinecone_grad"/>
    <linearGradient id="pinecone_grad-124" data-name="pinecone_grad" x1="138.62" y1="156.27" x2="138.62" y2="95.27" xlink:href="#pinecone_grad"/>
    <linearGradient id="pinecone_grad-125" data-name="pinecone_grad" x1="125.39" y1="140.8" x2="125.39" y2="78.53" xlink:href="#pinecone_grad"/>
    <linearGradient id="pinecone_grad-126" data-name="pinecone_grad" x1="125.39" y1="140.8" x2="125.39" y2="78.53" xlink:href="#pinecone_grad"/>
    <linearGradient id="pinecone_grad-127" data-name="pinecone_grad" x1="125.39" y1="156.27" x2="125.39" y2="95.27" xlink:href="#pinecone_grad"/>
    <linearGradient id="pinecone_grad-128" data-name="pinecone_grad" x1="111.81" y1="126.06" x2="111.81" y2="63.43" xlink:href="#pinecone_grad"/>
    <linearGradient id="pinecone_grad-129" data-name="pinecone_grad" x1="111.81" y1="140.81" x2="111.81" y2="78.54" xlink:href="#pinecone_grad"/>
    <linearGradient id="pinecone_grad-130" data-name="pinecone_grad" x1="111.81" y1="126.06" x2="111.81" y2="63.43" xlink:href="#pinecone_grad"/>
    <linearGradient id="pinecone_grad-131" data-name="pinecone_grad" x1="111.81" y1="140.81" x2="111.81" y2="78.54" xlink:href="#pinecone_grad"/>
    <linearGradient id="pinecone_grad-132" data-name="pinecone_grad" x1="111.81" y1="156.27" x2="111.81" y2="95.27" xlink:href="#pinecone_grad"/>
    <linearGradient id="pinecone_grad-133" data-name="pinecone_grad" x1="84.73" y1="160.2" x2="84.73" y2="93.74" xlink:href="#pinecone_grad"/>
    <linearGradient id="pinecone_grad-134" data-name="pinecone_grad" x1="84.73" y1="160.2" x2="84.73" y2="93.74" xlink:href="#pinecone_grad"/>
    <linearGradient id="pinecone_grad-135" data-name="pinecone_grad" x1="83.96" y1="160.2" x2="83.96" y2="93.74" xlink:href="#pinecone_grad"/>
    <linearGradient id="pinecone_grad-136" data-name="pinecone_grad" x1="83.96" y1="160.2" x2="83.96" y2="93.74" xlink:href="#pinecone_grad"/>
    <linearGradient id="pinecone_grad-137" data-name="pinecone_grad" x1="100.26" y1="175.85" x2="100.26" y2="109.77" xlink:href="#pinecone_grad"/>
    <linearGradient id="pinecone_grad-138" data-name="pinecone_grad" x1="100.26" y1="175.85" x2="100.26" y2="109.77" xlink:href="#pinecone_grad"/>
    <linearGradient id="pinecone_grad-139" data-name="pinecone_grad" x1="125.54" y1="175.85" x2="125.54" y2="109.77" xlink:href="#pinecone_grad"/>
    <linearGradient id="pinecone_grad-140" data-name="pinecone_grad" x1="125.54" y1="175.85" x2="125.54" y2="109.77" xlink:href="#pinecone_grad"/>
    <linearGradient id="pinecone_grad-141" data-name="pinecone_grad" x1="102.1" y1="160.2" x2="102.1" y2="93.74" xlink:href="#pinecone_grad"/>
    <linearGradient id="pinecone_grad-142" data-name="pinecone_grad" x1="102.1" y1="175.85" x2="102.1" y2="109.77" xlink:href="#pinecone_grad"/>
    <linearGradient id="pinecone_grad-143" data-name="pinecone_grad" x1="102.1" y1="160.2" x2="102.1" y2="93.74" xlink:href="#pinecone_grad"/>
    <linearGradient id="pinecone_grad-144" data-name="pinecone_grad" x1="102.1" y1="175.85" x2="102.1" y2="109.77" xlink:href="#pinecone_grad"/>
    <linearGradient id="pinecone_grad-145" data-name="pinecone_grad" x1="43.14" y1="175.58" x2="43.14" y2="109.5" xlink:href="#pinecone_grad"/>
    <linearGradient id="pinecone_grad-146" data-name="pinecone_grad" x1="68.32" y1="175.58" x2="68.32" y2="109.5" xlink:href="#pinecone_grad"/>
    <linearGradient id="pinecone_grad-147" data-name="pinecone_grad" x1="66.86" y1="160.2" x2="66.86" y2="93.74" xlink:href="#pinecone_grad"/>
    <linearGradient id="pinecone_grad-148" data-name="pinecone_grad" x1="66.86" y1="160.2" x2="66.86" y2="93.74" xlink:href="#pinecone_grad"/>
    <linearGradient id="pinecone_grad-149" data-name="pinecone_grad" x1="66.86" y1="175.58" x2="66.86" y2="109.5" xlink:href="#pinecone_grad"/>
    <linearGradient id="pinecone_grad-150" data-name="pinecone_grad" x1="84.01" y1="160.2" x2="84.01" y2="93.74" xlink:href="#pinecone_grad"/>
    <linearGradient id="pinecone_grad-151" data-name="pinecone_grad" x1="84.01" y1="175.85" x2="84.01" y2="109.77" xlink:href="#pinecone_grad"/>
    <linearGradient id="pinecone_grad-152" data-name="pinecone_grad" x1="84.01" y1="160.2" x2="84.01" y2="93.74" xlink:href="#pinecone_grad"/>
    <linearGradient id="pinecone_grad-153" data-name="pinecone_grad" x1="84.01" y1="175.85" x2="84.01" y2="109.77" xlink:href="#pinecone_grad"/>
    <linearGradient id="pinecone_grad-154" data-name="pinecone_grad" x1="84.01" y1="175.58" x2="84.01" y2="109.5" xlink:href="#pinecone_grad"/>
    <linearGradient id="pinecone_grad-155" data-name="pinecone_grad" x1="28.16" y1="192.52" x2="28.16" y2="127.79" xlink:href="#pinecone_grad"/>
    <linearGradient id="pinecone_grad-156" data-name="pinecone_grad" x1="41.65" y1="175.58" x2="41.65" y2="109.49" xlink:href="#pinecone_grad"/>
    <linearGradient id="pinecone_grad-157" data-name="pinecone_grad" x1="41.65" y1="192.52" x2="41.65" y2="127.79" xlink:href="#pinecone_grad"/>
    <linearGradient id="pinecone_grad-158" data-name="pinecone_grad" x1="56.96" y1="160.2" x2="56.96" y2="93.74" xlink:href="#pinecone_grad"/>
    <linearGradient id="pinecone_grad-159" data-name="pinecone_grad" x1="56.96" y1="160.2" x2="56.96" y2="93.74" xlink:href="#pinecone_grad"/>
    <linearGradient id="pinecone_grad-160" data-name="pinecone_grad" x1="56.96" y1="175.58" x2="56.96" y2="109.5" xlink:href="#pinecone_grad"/>
    <linearGradient id="pinecone_grad-161" data-name="pinecone_grad" x1="56.96" y1="192.52" x2="56.96" y2="127.79" xlink:href="#pinecone_grad"/>
    <linearGradient id="pinecone_grad-162" data-name="pinecone_grad" x1="140.79" y1="192.26" x2="140.79" y2="127.53" xlink:href="#pinecone_grad"/>
    <linearGradient id="pinecone_grad-163" data-name="pinecone_grad" x1="126.75" y1="175.85" x2="126.75" y2="109.76" xlink:href="#pinecone_grad"/>
    <linearGradient id="pinecone_grad-164" data-name="pinecone_grad" x1="126.75" y1="175.85" x2="126.75" y2="109.76" xlink:href="#pinecone_grad"/>
    <linearGradient id="pinecone_grad-165" data-name="pinecone_grad" x1="126.75" y1="192.26" x2="126.75" y2="127.53" xlink:href="#pinecone_grad"/>
    <linearGradient id="pinecone_grad-166" data-name="pinecone_grad" x1="112.34" y1="160.2" x2="112.34" y2="93.74" xlink:href="#pinecone_grad"/>
    <linearGradient id="pinecone_grad-167" data-name="pinecone_grad" x1="112.34" y1="175.85" x2="112.34" y2="109.77" xlink:href="#pinecone_grad"/>
    <linearGradient id="pinecone_grad-168" data-name="pinecone_grad" x1="112.34" y1="160.2" x2="112.34" y2="93.74" xlink:href="#pinecone_grad"/>
    <linearGradient id="pinecone_grad-169" data-name="pinecone_grad" x1="112.34" y1="175.85" x2="112.34" y2="109.77" xlink:href="#pinecone_grad"/>
    <linearGradient id="pinecone_grad-170" data-name="pinecone_grad" x1="112.34" y1="192.26" x2="112.34" y2="127.53" xlink:href="#pinecone_grad"/>
    <linearGradient id="linear-gradient" x1="86.12" y1="194.48" x2="86.12" y2="124.36" gradientUnits="userSpaceOnUse">
      <stop offset="0" stop-color="#603813"/>
      <stop offset=".2" stop-color="#653d17"/>
      <stop offset=".46" stop-color="#754c25"/>
      <stop offset=".72" stop-color="#8c6239"/>
      <stop offset=".82" stop-color="#8d633a"/>
      <stop offset=".85" stop-color="#946a40"/>
      <stop offset=".88" stop-color="#a0764b"/>
      <stop offset=".9" stop-color="#b1875a"/>
      <stop offset=".92" stop-color="#c69c6d"/>
    </linearGradient>
    <linearGradient id="linear-gradient-2" x1="117.24" y1="211" x2="117.24" y2="141.27" xlink:href="#linear-gradient"/>
    <linearGradient id="linear-gradient-3" x1="117.24" y1="211" x2="117.24" y2="141.27" xlink:href="#linear-gradient"/>
    <linearGradient id="linear-gradient-4" x1="52.98" y1="210.7" x2="52.98" y2="140.98" xlink:href="#linear-gradient"/>
    <linearGradient id="pinecone_grad-171" data-name="pinecone_grad" x1="86.83" y1="238.16" x2="86.83" y2="161.53" xlink:href="#pinecone_grad"/>
  </defs>
  <g id="pinecone">
    <g id="top-row6">
      <path class="pine-17" d="m84,24.84c.63-.68,1.34-1.3,2.16-1.82l14.1-9.03-7.22-9.62c-4.37-5.83-13.11-5.83-17.48,0l-7.38,9.84,13.49,8.63c.88.57,1.66,1.24,2.32,2Z"/>
      <path class="pine-17" d="m84,24.84c.63-.68,1.34-1.3,2.16-1.82l14.1-9.03-7.22-9.62c-4.37-5.83-13.11-5.83-17.48,0l-7.38,9.84,13.49,8.63c.88.57,1.66,1.24,2.32,2Z"/>
      <path class="pine-135" d="m81.72,42.93c1.43.13,2.86.15,4.29.06-.78-.94-1.49-1.94-2.15-2.99-.66,1.03-1.37,2.01-2.14,2.93Z"/>
      <path class="pine-151" d="m81.72,42.93c1.43.13,2.86.15,4.29.06-.78-.94-1.49-1.94-2.15-2.99-.66,1.03-1.37,2.01-2.14,2.93Z"/>
      <path class="pine-56" d="m125.25,37.64l-5.7-19.41c-2.05-6.99-10.24-10.05-16.37-6.12l-2.93,1.88,4.92,6.56c3.26,4.35,2.83,10.43-1.01,14.28-5.05,5.05-11.54,7.77-18.15,8.17,7.89,9.56,21.48,13.05,33.29,7.67,4.95-2.25,7.48-7.8,5.95-13.02Z"/>
      <path class="pine-15" d="m125.25,37.64l-5.7-19.41c-2.05-6.99-10.24-10.05-16.37-6.12l-2.93,1.88,4.92,6.56c3.26,4.35,2.83,10.43-1.01,14.28-5.05,5.05-11.54,7.77-18.15,8.17,7.89,9.56,21.48,13.05,33.29,7.67,4.95-2.25,7.48-7.8,5.95-13.02Z"/>
      <path class="pine-124" d="m105.18,20.55l-4.92-6.56-14.1,9.03c-.81.52-1.53,1.14-2.16,1.82,2.77,3.16,3.55,7.74,1.73,11.73h0c-.55,1.2-1.18,2.35-1.87,3.43.66,1.05,1.38,2.05,2.15,2.99,6.61-.4,13.1-3.12,18.15-8.17,3.84-3.84,4.28-9.93,1.01-14.28Z"/>
      <path class="pine-24" d="m105.18,20.55l-4.92-6.56-14.1,9.03c-.81.52-1.53,1.14-2.16,1.82,2.77,3.16,3.55,7.74,1.73,11.73h0c-.55,1.2-1.18,2.35-1.87,3.43.66,1.05,1.38,2.05,2.15,2.99,6.61-.4,13.1-3.12,18.15-8.17,3.84-3.84,4.28-9.93,1.01-14.28Z"/>
      <path class="pine-141" d="m105.18,20.55l-4.92-6.56-14.1,9.03c-.81.52-1.53,1.14-2.16,1.82,2.77,3.16,3.55,7.74,1.73,11.73h0c-.55,1.2-1.18,2.35-1.87,3.43.66,1.05,1.38,2.05,2.15,2.99,6.61-.4,13.1-3.12,18.15-8.17,3.84-3.84,4.28-9.93,1.01-14.28Z"/>
      <path class="pine-155" d="m105.18,20.55l-4.92-6.56-14.1,9.03c-.81.52-1.53,1.14-2.16,1.82,2.77,3.16,3.55,7.74,1.73,11.73h0c-.55,1.2-1.18,2.35-1.87,3.43.66,1.05,1.38,2.05,2.15,2.99,6.61-.4,13.1-3.12,18.15-8.17,3.84-3.84,4.28-9.93,1.01-14.28Z"/>
      <path class="pine-75" d="m63.43,20.55l4.76-6.34-3.55-2.27c-6.13-3.93-14.32-.87-16.37,6.12l-5.7,19.41c-1.53,5.22,1,10.76,5.95,13.02,11.77,5.36,25.29,1.92,33.19-7.55-6.3-.58-12.45-3.28-17.27-8.1-3.84-3.84-4.28-9.93-1.01-14.28Z"/>
      <path class="pine-122" d="m82.1,36.75c-1.85-4.07-1.01-8.74,1.89-11.91-.66-.76-1.44-1.43-2.32-2l-13.49-8.63-4.76,6.34c-3.26,4.35-2.83,10.43,1.01,14.28,4.83,4.83,10.97,7.53,17.27,8.1.77-.92,1.48-1.9,2.14-2.93-.64-1.03-1.24-2.11-1.75-3.25Z"/>
      <path class="pine-87" d="m82.1,36.75c-1.85-4.07-1.01-8.74,1.89-11.91-.66-.76-1.44-1.43-2.32-2l-13.49-8.63-4.76,6.34c-3.26,4.35-2.83,10.43,1.01,14.28,4.83,4.83,10.97,7.53,17.27,8.1.77-.92,1.48-1.9,2.14-2.93-.64-1.03-1.24-2.11-1.75-3.25Z"/>
      <path class="pine-119" d="m82.1,36.75c-1.85-4.07-1.01-8.74,1.89-11.91-.66-.76-1.44-1.43-2.32-2l-13.49-8.63-4.76,6.34c-3.26,4.35-2.83,10.43,1.01,14.28,4.83,4.83,10.97,7.53,17.27,8.1.77-.92,1.48-1.9,2.14-2.93-.64-1.03-1.24-2.11-1.75-3.25Z"/>
      <path class="pine-74" d="m82.1,36.75c.52,1.14,1.11,2.22,1.75,3.25.69-1.09,1.32-2.23,1.87-3.43h0c1.82-3.99,1.04-8.57-1.73-11.73-2.9,3.16-3.75,7.84-1.89,11.91Z"/>
      <path class="pine-9" d="m82.1,36.75c.52,1.14,1.11,2.22,1.75,3.25.69-1.09,1.32-2.23,1.87-3.43h0c1.82-3.99,1.04-8.57-1.73-11.73-2.9,3.16-3.75,7.84-1.89,11.91Z"/>
      <path class="pine-97" d="m82.1,36.75c.52,1.14,1.11,2.22,1.75,3.25.69-1.09,1.32-2.23,1.87-3.43h0c1.82-3.99,1.04-8.57-1.73-11.73-2.9,3.16-3.75,7.84-1.89,11.91Z"/>
      <path class="pine-133" d="m82.1,36.75c.52,1.14,1.11,2.22,1.75,3.25.69-1.09,1.32-2.23,1.87-3.43h0c1.82-3.99,1.04-8.57-1.73-11.73-2.9,3.16-3.75,7.84-1.89,11.91Z"/>
      <path class="pine-70" d="m82.1,36.75c.52,1.14,1.11,2.22,1.75,3.25.69-1.09,1.32-2.23,1.87-3.43h0c1.82-3.99,1.04-8.57-1.73-11.73-2.9,3.16-3.75,7.84-1.89,11.91Z"/>
    </g>
    <g id="row5">
      <path class="pine-55" d="m84.24,46.25c.79-.92,1.72-1.75,2.79-2.43l16.4-10.5-8.39-11.19c-5.08-6.78-15.24-6.78-20.33,0l-8.76,11.67,15.32,9.81c1.15.74,2.13,1.64,2.96,2.64Z"/>
      <path class="pine-52" d="m84.24,46.25c.79-.92,1.72-1.75,2.79-2.43l16.4-10.5-8.39-11.19c-5.08-6.78-15.24-6.78-20.33,0l-8.76,11.67,15.32,9.81c1.15.74,2.13,1.64,2.96,2.64Z"/>
      <path class="pine-78" d="m81.37,66.92c1.82.2,3.66.24,5.49.13-1.01-1.22-1.94-2.53-2.77-3.92-.82,1.34-1.73,2.61-2.71,3.79Z"/>
      <path class="pine-16" d="m81.37,66.92c1.82.2,3.66.24,5.49.13-1.01-1.22-1.94-2.53-2.77-3.92-.82,1.34-1.73,2.61-2.71,3.79Z"/>
      <path class="pine-20" d="m86.86,67.05c4.91,5.94,11.71,9.87,19.08,11.27-3.21-4.23-5.41-9.26-6.24-14.76-4.04,2.06-8.41,3.22-12.84,3.49Z"/>
      <path class="pine-118" d="m86.86,67.05c4.91,5.94,11.71,9.87,19.08,11.27-3.21-4.23-5.41-9.26-6.24-14.76-4.04,2.06-8.41,3.22-12.84,3.49Z"/>
      <path class="pine-53" d="m111.48,46.27l15.97-2.65-1.58-5.36c-2.39-8.13-11.91-11.69-19.04-7.12l-3.41,2.18,5.72,7.63c1.21,1.62,1.98,3.44,2.33,5.32Z"/>
      <path class="pine-38" d="m111.48,46.27l15.97-2.65-1.58-5.36c-2.39-8.13-11.91-11.69-19.04-7.12l-3.41,2.18,5.72,7.63c1.21,1.62,1.98,3.44,2.33,5.32Z"/>
      <path class="pine-103" d="m99.32,59.34h0c-.14-6.32,4.39-11.78,10.62-12.82l1.53-.25c-.34-1.88-1.11-3.7-2.33-5.32l-5.72-7.63-16.4,10.5c-1.07.68-2,1.51-2.79,2.43,3,3.66,3.81,8.81,1.75,13.32-.57,1.24-1.21,2.42-1.9,3.55.84,1.39,1.76,2.7,2.77,3.92,4.42-.27,8.8-1.43,12.84-3.49-.21-1.38-.34-2.79-.38-4.22Z"/>
      <path class="pine-143" d="m99.32,59.34h0c-.14-6.32,4.39-11.78,10.62-12.82l1.53-.25c-.34-1.88-1.11-3.7-2.33-5.32l-5.72-7.63-16.4,10.5c-1.07.68-2,1.51-2.79,2.43,3,3.66,3.81,8.81,1.75,13.32-.57,1.24-1.21,2.42-1.9,3.55.84,1.39,1.76,2.7,2.77,3.92,4.42-.27,8.8-1.43,12.84-3.49-.21-1.38-.34-2.79-.38-4.22Z"/>
      <path class="pine-45" d="m99.32,59.34h0c-.14-6.32,4.39-11.78,10.62-12.82l1.53-.25c-.34-1.88-1.11-3.7-2.33-5.32l-5.72-7.63-16.4,10.5c-1.07.68-2,1.51-2.79,2.43,3,3.66,3.81,8.81,1.75,13.32-.57,1.24-1.21,2.42-1.9,3.55.84,1.39,1.76,2.7,2.77,3.92,4.42-.27,8.8-1.43,12.84-3.49-.21-1.38-.34-2.79-.38-4.22Z"/>
      <path class="pine-41" d="m99.32,59.34h0c-.14-6.32,4.39-11.78,10.62-12.82l1.53-.25c-.34-1.88-1.11-3.7-2.33-5.32l-5.72-7.63-16.4,10.5c-1.07.68-2,1.51-2.79,2.43,3,3.66,3.81,8.81,1.75,13.32-.57,1.24-1.21,2.42-1.9,3.55.84,1.39,1.76,2.7,2.77,3.92,4.42-.27,8.8-1.43,12.84-3.49-.21-1.38-.34-2.79-.38-4.22Z"/>
      <path class="pine-46" d="m63.29,77.93c6.98-1.54,13.39-5.36,18.09-11.01-4.22-.45-8.36-1.73-12.18-3.82-.72,5.5-2.81,10.55-5.9,14.83Z"/>
      <path class="pine-139" d="m60.6,40.95l5.36-7.14-4.49-2.87c-7.13-4.57-16.65-1.01-19.04,7.12l-1.67,5.67,17.46,2.89c.31-2,1.09-3.95,2.38-5.67Z"/>
      <path class="pine-42" d="m82.32,59.78h0c-2.09-4.6-1.23-9.86,1.92-13.53-.83-1.01-1.81-1.91-2.96-2.64l-15.32-9.81-5.36,7.14c-1.29,1.72-2.07,3.67-2.38,5.67l.63.1c6.24,1.03,10.76,6.5,10.62,12.82-.03,1.21-.12,2.4-.28,3.57,3.82,2.09,7.96,3.37,12.18,3.82.98-1.18,1.89-2.45,2.71-3.79-.64-1.07-1.24-2.18-1.77-3.35Z"/>
      <path class="pine-2" d="m82.32,59.78h0c-2.09-4.6-1.23-9.86,1.92-13.53-.83-1.01-1.81-1.91-2.96-2.64l-15.32-9.81-5.36,7.14c-1.29,1.72-2.07,3.67-2.38,5.67l.63.1c6.24,1.03,10.76,6.5,10.62,12.82-.03,1.21-.12,2.4-.28,3.57,3.82,2.09,7.96,3.37,12.18,3.82.98-1.18,1.89-2.45,2.71-3.79-.64-1.07-1.24-2.18-1.77-3.35Z"/>
      <path class="pine-174" d="m82.32,59.78h0c-2.09-4.6-1.23-9.86,1.92-13.53-.83-1.01-1.81-1.91-2.96-2.64l-15.32-9.81-5.36,7.14c-1.29,1.72-2.07,3.67-2.38,5.67l.63.1c6.24,1.03,10.76,6.5,10.62,12.82-.03,1.21-.12,2.4-.28,3.57,3.82,2.09,7.96,3.37,12.18,3.82.98-1.18,1.89-2.45,2.71-3.79-.64-1.07-1.24-2.18-1.77-3.35Z"/>
      <path class="pine-112" d="m82.32,59.78h0c.53,1.16,1.13,2.28,1.77,3.35.69-1.13,1.34-2.31,1.9-3.55,2.06-4.51,1.25-9.66-1.75-13.32-3.15,3.67-4.02,8.93-1.92,13.53Z"/>
      <path class="pine-163" d="m82.32,59.78h0c.53,1.16,1.13,2.28,1.77,3.35.69-1.13,1.34-2.31,1.9-3.55,2.06-4.51,1.25-9.66-1.75-13.32-3.15,3.67-4.02,8.93-1.92,13.53Z"/>
      <path class="pine-76" d="m82.32,59.78h0c.53,1.16,1.13,2.28,1.77,3.35.69-1.13,1.34-2.31,1.9-3.55,2.06-4.51,1.25-9.66-1.75-13.32-3.15,3.67-4.02,8.93-1.92,13.53Z"/>
      <path class="pine-29" d="m82.32,59.78h0c.53,1.16,1.13,2.28,1.77,3.35.69-1.13,1.34-2.31,1.9-3.55,2.06-4.51,1.25-9.66-1.75-13.32-3.15,3.67-4.02,8.93-1.92,13.53Z"/>
      <path class="pine-108" d="m82.32,59.78h0c.53,1.16,1.13,2.28,1.77,3.35.69-1.13,1.34-2.31,1.9-3.55,2.06-4.51,1.25-9.66-1.75-13.32-3.15,3.67-4.02,8.93-1.92,13.53Z"/>
      <path class="pine-144" d="m42.72,75.76h0c-5.75-2.62-8.7-9.07-6.92-15.14l4.96-16.89-5.12-.85c-8.35-1.38-15.7,5.64-14.69,14.05l2.8,23.35c.75,6.28,6.01,11.04,12.33,11.19h0c11.15.25,21.12-5.13,27.2-13.53-6.68,1.47-13.87.88-20.57-2.18Z"/>
      <path class="pine-134" d="m61.78,57.55h0c-2.95-2.95-4.16-7.04-3.56-10.94l-17.46-2.89-4.96,16.89c-1.78,6.07,1.17,12.52,6.92,15.14h0c6.7,3.05,13.89,3.65,20.57,2.18,3.09-4.27,5.18-9.33,5.9-14.83-2.66-1.46-5.16-3.3-7.41-5.55Z"/>
      <path class="pine-114" d="m61.78,57.55h0c-2.95-2.95-4.16-7.04-3.56-10.94l-17.46-2.89-4.96,16.89c-1.78,6.07,1.17,12.52,6.92,15.14h0c6.7,3.05,13.89,3.65,20.57,2.18,3.09-4.27,5.18-9.33,5.9-14.83-2.66-1.46-5.16-3.3-7.41-5.55Z"/>
      <path class="pine-169" d="m61.78,57.55h0c2.25,2.25,4.75,4.1,7.41,5.55.15-1.17.25-2.36.28-3.57.14-6.32-4.39-11.78-10.62-12.82l-.63-.1c-.6,3.89.61,7.98,3.56,10.94Z"/>
      <path class="pine-31" d="m61.78,57.55h0c2.25,2.25,4.75,4.1,7.41,5.55.15-1.17.25-2.36.28-3.57.14-6.32-4.39-11.78-10.62-12.82l-.63-.1c-.6,3.89.61,7.98,3.56,10.94Z"/>
      <path class="pine-33" d="m61.78,57.55h0c2.25,2.25,4.75,4.1,7.41,5.55.15-1.17.25-2.36.28-3.57.14-6.32-4.39-11.78-10.62-12.82l-.63-.1c-.6,3.89.61,7.98,3.56,10.94Z"/>
      <path class="pine-152" d="m61.78,57.55h0c2.25,2.25,4.75,4.1,7.41,5.55.15-1.17.25-2.36.28-3.57.14-6.32-4.39-11.78-10.62-12.82l-.63-.1c-.6,3.89.61,7.98,3.56,10.94Z"/>
      <path class="pine-47" d="m133.15,42.68l-5.7.94,5.05,17.21c1.78,6.07-1.17,12.52-6.92,15.14h0c-6.39,2.91-13.23,3.58-19.64,2.36,6.12,8.06,15.87,13.18,26.77,12.94h0c6.32-.14,11.57-4.91,12.33-11.19l2.81-23.35c1.01-8.41-6.34-15.43-14.69-14.05Z"/>
      <path class="pine-102" d="m125.58,75.96h0c5.75-2.62,8.7-9.07,6.92-15.14l-5.05-17.21-15.97,2.65c.73,4-.47,8.24-3.51,11.28h0c-2.49,2.49-5.29,4.49-8.27,6.01.84,5.5,3.04,10.53,6.24,14.76,6.41,1.22,13.25.55,19.64-2.36Z"/>
      <path class="pine-21" d="m125.58,75.96h0c5.75-2.62,8.7-9.07,6.92-15.14l-5.05-17.21-15.97,2.65c.73,4-.47,8.24-3.51,11.28h0c-2.49,2.49-5.29,4.49-8.27,6.01.84,5.5,3.04,10.53,6.24,14.76,6.41,1.22,13.25.55,19.64-2.36Z"/>
      <path class="pine-68" d="m125.58,75.96h0c5.75-2.62,8.7-9.07,6.92-15.14l-5.05-17.21-15.97,2.65c.73,4-.47,8.24-3.51,11.28h0c-2.49,2.49-5.29,4.49-8.27,6.01.84,5.5,3.04,10.53,6.24,14.76,6.41,1.22,13.25.55,19.64-2.36Z"/>
      <path class="pine-104" d="m99.32,59.34h0c.03,1.43.17,2.84.38,4.22,2.98-1.52,5.78-3.52,8.27-6.01h0c3.04-3.04,4.24-7.29,3.51-11.28l-1.53.25c-6.24,1.03-10.76,6.5-10.62,12.82Z"/>
      <path class="pine-6" d="m99.32,59.34h0c.03,1.43.17,2.84.38,4.22,2.98-1.52,5.78-3.52,8.27-6.01h0c3.04-3.04,4.24-7.29,3.51-11.28l-1.53.25c-6.24,1.03-10.76,6.5-10.62,12.82Z"/>
      <path class="pine-131" d="m99.32,59.34h0c.03,1.43.17,2.84.38,4.22,2.98-1.52,5.78-3.52,8.27-6.01h0c3.04-3.04,4.24-7.29,3.51-11.28l-1.53.25c-6.24,1.03-10.76,6.5-10.62,12.82Z"/>
      <path class="pine-136" d="m99.32,59.34h0c.03,1.43.17,2.84.38,4.22,2.98-1.52,5.78-3.52,8.27-6.01h0c3.04-3.04,4.24-7.29,3.51-11.28l-1.53.25c-6.24,1.03-10.76,6.5-10.62,12.82Z"/>
      <path class="pine-127" d="m99.32,59.34h0c.03,1.43.17,2.84.38,4.22,2.98-1.52,5.78-3.52,8.27-6.01h0c3.04-3.04,4.24-7.29,3.51-11.28l-1.53.25c-6.24,1.03-10.76,6.5-10.62,12.82Z"/>
    </g>
    <g id="row4">
      <path class="pine-37" d="m84.75,71.93c.92-1.08,2-2.04,3.25-2.84l19.11-12.23-9.78-13.03c-5.92-7.89-17.76-7.89-23.67,0l-10.2,13.6,17.85,11.42c1.34.86,2.48,1.91,3.45,3.08Z"/>
      <path class="pine-10" d="m84.75,71.93c.92-1.08,2-2.04,3.25-2.84l19.11-12.23-9.78-13.03c-5.92-7.89-17.76-7.89-23.67,0l-10.2,13.6,17.85,11.42c1.34.86,2.48,1.91,3.45,3.08Z"/>
      <path class="pine-154" d="m81.42,96.01c2.12.23,4.26.28,6.39.15-1.18-1.42-2.25-2.95-3.23-4.56-.96,1.56-2.01,3.04-3.16,4.42Z"/>
      <path class="pine-25" d="m81.42,96.01c2.12.23,4.26.28,6.39.15-1.18-1.42-2.25-2.95-3.23-4.56-.96,1.56-2.01,3.04-3.16,4.42Z"/>
      <path class="pine-113" d="m87.81,96.16c5.72,6.92,13.64,11.49,22.22,13.13-3.73-4.92-6.3-10.79-7.27-17.19-4.7,2.4-9.8,3.75-14.95,4.06Z"/>
      <path class="pine-106" d="m87.81,96.16c5.72,6.92,13.64,11.49,22.22,13.13-3.73-4.92-6.3-10.79-7.27-17.19-4.7,2.4-9.8,3.75-14.95,4.06Z"/>
      <path class="pine-142" d="m116.48,71.95l18.61-3.08-1.83-6.25c-2.78-9.46-13.87-13.61-22.17-8.29l-3.97,2.54,6.66,8.88c1.41,1.88,2.31,4.01,2.71,6.2Z"/>
      <path class="pine-173" d="m116.48,71.95l18.61-3.08-1.83-6.25c-2.78-9.46-13.87-13.61-22.17-8.29l-3.97,2.54,6.66,8.88c1.41,1.88,2.31,4.01,2.71,6.2Z"/>
      <path class="pine-148" d="m102.32,87.18c-.16-7.36,5.11-13.72,12.37-14.93l1.79-.3c-.4-2.19-1.3-4.32-2.71-6.2l-6.66-8.88-19.11,12.23c-1.25.8-2.33,1.76-3.25,2.84,3.5,4.26,4.43,10.26,2.04,15.52h0c-.66,1.44-1.4,2.82-2.21,4.14.97,1.62,2.05,3.14,3.23,4.56,5.15-.31,10.25-1.67,14.95-4.06-.24-1.61-.4-3.25-.44-4.92Z"/>
      <path class="pine-40" d="m102.32,87.18c-.16-7.36,5.11-13.72,12.37-14.93l1.79-.3c-.4-2.19-1.3-4.32-2.71-6.2l-6.66-8.88-19.11,12.23c-1.25.8-2.33,1.76-3.25,2.84,3.5,4.26,4.43,10.26,2.04,15.52h0c-.66,1.44-1.4,2.82-2.21,4.14.97,1.62,2.05,3.14,3.23,4.56,5.15-.31,10.25-1.67,14.95-4.06-.24-1.61-.4-3.25-.44-4.92Z"/>
      <path class="pine-167" d="m102.32,87.18c-.16-7.36,5.11-13.72,12.37-14.93l1.79-.3c-.4-2.19-1.3-4.32-2.71-6.2l-6.66-8.88-19.11,12.23c-1.25.8-2.33,1.76-3.25,2.84,3.5,4.26,4.43,10.26,2.04,15.52h0c-.66,1.44-1.4,2.82-2.21,4.14.97,1.62,2.05,3.14,3.23,4.56,5.15-.31,10.25-1.67,14.95-4.06-.24-1.61-.4-3.25-.44-4.92Z"/>
      <path class="pine-138" d="m102.32,87.18c-.16-7.36,5.11-13.72,12.37-14.93l1.79-.3c-.4-2.19-1.3-4.32-2.71-6.2l-6.66-8.88-19.11,12.23c-1.25.8-2.33,1.76-3.25,2.84,3.5,4.26,4.43,10.26,2.04,15.52h0c-.66,1.44-1.4,2.82-2.21,4.14.97,1.62,2.05,3.14,3.23,4.56,5.15-.31,10.25-1.67,14.95-4.06-.24-1.61-.4-3.25-.44-4.92Z"/>
      <path class="pine-60" d="m57.22,65.75l6.24-8.32-5.23-3.35c-8.31-5.32-19.4-1.17-22.17,8.29l-1.94,6.61,20.33,3.37c.36-2.33,1.27-4.6,2.77-6.6Z"/>
      <path class="pine-120" d="m60.35,108.83c8.13-1.8,15.6-6.24,21.07-12.82-4.91-.53-9.74-2.01-14.19-4.45-.84,6.41-3.27,12.29-6.88,17.27Z"/>
      <path class="pine-49" d="m82.51,87.7h0c-2.44-5.35-1.43-11.49,2.24-15.76-.96-1.17-2.11-2.22-3.45-3.08l-17.85-11.42-6.24,8.32c-1.5,2-2.41,4.27-2.77,6.6l.73.12c7.26,1.2,12.54,7.57,12.37,14.93h0c-.03,1.41-.14,2.79-.32,4.16,4.45,2.44,9.28,3.92,14.19,4.45,1.15-1.38,2.2-2.85,3.16-4.42-.75-1.25-1.45-2.54-2.06-3.9Z"/>
      <path class="pine-57" d="m82.51,87.7h0c-2.44-5.35-1.43-11.49,2.24-15.76-.96-1.17-2.11-2.22-3.45-3.08l-17.85-11.42-6.24,8.32c-1.5,2-2.41,4.27-2.77,6.6l.73.12c7.26,1.2,12.54,7.57,12.37,14.93h0c-.03,1.41-.14,2.79-.32,4.16,4.45,2.44,9.28,3.92,14.19,4.45,1.15-1.38,2.2-2.85,3.16-4.42-.75-1.25-1.45-2.54-2.06-3.9Z"/>
      <path class="pine-58" d="m82.51,87.7h0c-2.44-5.35-1.43-11.49,2.24-15.76-.96-1.17-2.11-2.22-3.45-3.08l-17.85-11.42-6.24,8.32c-1.5,2-2.41,4.27-2.77,6.6l.73.12c7.26,1.2,12.54,7.57,12.37,14.93h0c-.03,1.41-.14,2.79-.32,4.16,4.45,2.44,9.28,3.92,14.19,4.45,1.15-1.38,2.2-2.85,3.16-4.42-.75-1.25-1.45-2.54-2.06-3.9Z"/>
      <path class="pine-101" d="m82.51,87.7h0c.62,1.36,1.31,2.65,2.06,3.9.81-1.32,1.56-2.7,2.21-4.14h0c2.39-5.25,1.46-11.25-2.04-15.52-3.67,4.28-4.68,10.41-2.24,15.76Z"/>
      <path class="pine-150" d="m82.51,87.7h0c.62,1.36,1.31,2.65,2.06,3.9.81-1.32,1.56-2.7,2.21-4.14h0c2.39-5.25,1.46-11.25-2.04-15.52-3.67,4.28-4.68,10.41-2.24,15.76Z"/>
      <path class="pine-11" d="m82.51,87.7h0c.62,1.36,1.31,2.65,2.06,3.9.81-1.32,1.56-2.7,2.21-4.14h0c2.39-5.25,1.46-11.25-2.04-15.52-3.67,4.28-4.68,10.41-2.24,15.76Z"/>
      <path class="pine-115" d="m82.51,87.7h0c.62,1.36,1.31,2.65,2.06,3.9.81-1.32,1.56-2.7,2.21-4.14h0c2.39-5.25,1.46-11.25-2.04-15.52-3.67,4.28-4.68,10.41-2.24,15.76Z"/>
      <path class="pine-71" d="m82.51,87.7h0c.62,1.36,1.31,2.65,2.06,3.9.81-1.32,1.56-2.7,2.21-4.14h0c2.39-5.25,1.46-11.25-2.04-15.52-3.67,4.28-4.68,10.41-2.24,15.76Z"/>
      <path class="pine-93" d="m36.4,106.3c-6.7-3.05-10.14-10.57-8.06-17.63l5.78-19.68-5.97-.99c-9.73-1.61-18.29,6.57-17.11,16.36l3.27,27.2c.88,7.31,7,12.86,14.36,13.03,12.99.29,24.6-5.97,31.69-15.76-7.77,1.72-16.15,1.02-23.95-2.53Z"/>
      <path class="pine-164" d="m58.59,85.09h0c-3.44-3.44-4.85-8.2-4.15-12.74l-20.33-3.37-5.78,19.68c-2.07,7.07,1.36,14.58,8.06,17.63,7.8,3.56,16.18,4.25,23.95,2.53,3.6-4.98,6.03-10.86,6.88-17.27-3.1-1.7-6.01-3.85-8.63-6.47Z"/>
      <path class="pine-85" d="m58.59,85.09h0c-3.44-3.44-4.85-8.2-4.15-12.74l-20.33-3.37-5.78,19.68c-2.07,7.07,1.36,14.58,8.06,17.63,7.8,3.56,16.18,4.25,23.95,2.53,3.6-4.98,6.03-10.86,6.88-17.27-3.1-1.7-6.01-3.85-8.63-6.47Z"/>
      <path class="pine-39" d="m58.59,85.09h0c2.62,2.62,5.54,4.77,8.63,6.47.18-1.36.29-2.75.32-4.16h0c.16-7.36-5.11-13.72-12.37-14.93l-.73-.12c-.7,4.54.71,9.3,4.15,12.74Z"/>
      <path class="pine-96" d="m58.59,85.09h0c2.62,2.62,5.54,4.77,8.63,6.47.18-1.36.29-2.75.32-4.16h0c.16-7.36-5.11-13.72-12.37-14.93l-.73-.12c-.7,4.54.71,9.3,4.15,12.74Z"/>
      <path class="pine-157" d="m58.59,85.09h0c2.62,2.62,5.54,4.77,8.63,6.47.18-1.36.29-2.75.32-4.16h0c.16-7.36-5.11-13.72-12.37-14.93l-.73-.12c-.7,4.54.71,9.3,4.15,12.74Z"/>
      <path class="pine-48" d="m58.59,85.09h0c2.62,2.62,5.54,4.77,8.63,6.47.18-1.36.29-2.75.32-4.16h0c.16-7.36-5.11-13.72-12.37-14.93l-.73-.12c-.7,4.54.71,9.3,4.15,12.74Z"/>
      <path class="pine-69" d="m141.72,67.77l-6.64,1.1,5.89,20.04c2.07,7.07-1.36,14.58-8.06,17.63h0c-7.45,3.39-15.41,4.17-22.88,2.75,7.12,9.39,18.49,15.36,31.17,15.07h0c7.36-.16,13.48-5.72,14.36-13.03l3.27-27.2c1.18-9.79-7.38-17.97-17.11-16.36Z"/>
      <path class="pine-1" d="m132.91,106.54h0c6.7-3.05,10.14-10.57,8.06-17.63l-5.89-20.04-18.61,3.08c.85,4.65-.54,9.6-4.08,13.14h0c-2.9,2.9-6.17,5.23-9.64,7,.98,6.41,3.54,12.27,7.27,17.19,7.47,1.43,15.43.65,22.88-2.75Z"/>
      <path class="pine-91" d="m132.91,106.54h0c6.7-3.05,10.14-10.57,8.06-17.63l-5.89-20.04-18.61,3.08c.85,4.65-.54,9.6-4.08,13.14h0c-2.9,2.9-6.17,5.23-9.64,7,.98,6.41,3.54,12.27,7.27,17.19,7.47,1.43,15.43.65,22.88-2.75Z"/>
      <path class="pine-12" d="m132.91,106.54h0c6.7-3.05,10.14-10.57,8.06-17.63l-5.89-20.04-18.61,3.08c.85,4.65-.54,9.6-4.08,13.14h0c-2.9,2.9-6.17,5.23-9.64,7,.98,6.41,3.54,12.27,7.27,17.19,7.47,1.43,15.43.65,22.88-2.75Z"/>
      <path class="pine-65" d="m102.32,87.18c.04,1.67.19,3.31.44,4.92,3.47-1.77,6.73-4.1,9.64-7h0c3.54-3.54,4.94-8.49,4.08-13.14l-1.79.3c-7.26,1.2-12.54,7.57-12.37,14.93Z"/>
      <path class="pine-162" d="m102.32,87.18c.04,1.67.19,3.31.44,4.92,3.47-1.77,6.73-4.1,9.64-7h0c3.54-3.54,4.94-8.49,4.08-13.14l-1.79.3c-7.26,1.2-12.54,7.57-12.37,14.93Z"/>
      <path class="pine-172" d="m102.32,87.18c.04,1.67.19,3.31.44,4.92,3.47-1.77,6.73-4.1,9.64-7h0c3.54-3.54,4.94-8.49,4.08-13.14l-1.79.3c-7.26,1.2-12.54,7.57-12.37,14.93Z"/>
      <path class="pine-61" d="m102.32,87.18c.04,1.67.19,3.31.44,4.92,3.47-1.77,6.73-4.1,9.64-7h0c3.54-3.54,4.94-8.49,4.08-13.14l-1.79.3c-7.26,1.2-12.54,7.57-12.37,14.93Z"/>
      <path class="pine-72" d="m102.32,87.18c.04,1.67.19,3.31.44,4.92,3.47-1.77,6.73-4.1,9.64-7h0c3.54-3.54,4.94-8.49,4.08-13.14l-1.79.3c-7.26,1.2-12.54,7.57-12.37,14.93Z"/>
    </g>
    <g id="row3">
      <path class="pine-77" d="m85.21,99.96c.99-1.15,2.15-2.19,3.49-3.05l20.52-13.13-10.5-14c-6.36-8.47-19.07-8.47-25.42,0l-10.95,14.6,19.16,12.27c1.44.92,2.67,2.05,3.7,3.31Z"/>
      <path class="pine-149" d="m85.21,99.96c.99-1.15,2.15-2.19,3.49-3.05l20.52-13.13-10.5-14c-6.36-8.47-19.07-8.47-25.42,0l-10.95,14.6,19.16,12.27c1.44.92,2.67,2.05,3.7,3.31Z"/>
      <path class="pine-59" d="m81.63,125.82c2.28.24,4.57.3,6.86.16-1.26-1.53-2.42-3.16-3.47-4.9-1.03,1.68-2.16,3.26-3.39,4.74Z"/>
      <path class="pine-83" d="m81.63,125.82c2.28.24,4.57.3,6.86.16-1.26-1.53-2.42-3.16-3.47-4.9-1.03,1.68-2.16,3.26-3.39,4.74Z"/>
      <path class="pine-105" d="m119.28,99.98l19.98-3.31-1.97-6.71c-2.98-10.16-14.89-14.62-23.81-8.9l-4.26,2.73,7.15,9.54c1.52,2.02,2.48,4.31,2.91,6.66Z"/>
      <path class="pine-117" d="m119.28,99.98l19.98-3.31-1.97-6.71c-2.98-10.16-14.89-14.62-23.81-8.9l-4.26,2.73,7.15,9.54c1.52,2.02,2.48,4.31,2.91,6.66Z"/>
      <path class="pine-153" d="m88.49,125.98c6.14,7.44,14.64,12.34,23.86,14.1-4.01-5.29-6.76-11.58-7.81-18.46-5.05,2.57-10.52,4.03-16.05,4.36Z"/>
      <path class="pine-4" d="m88.49,125.98c6.14,7.44,14.64,12.34,23.86,14.1-4.01-5.29-6.76-11.58-7.81-18.46-5.05,2.57-10.52,4.03-16.05,4.36Z"/>
      <path class="pine-107" d="m104.08,116.33h0c-.18-7.91,5.49-14.74,13.29-16.03l1.92-.32c-.43-2.35-1.39-4.63-2.91-6.66l-7.15-9.54-20.52,13.13c-1.34.86-2.5,1.89-3.49,3.05,3.76,4.58,4.76,11.02,2.19,16.66h0c-.71,1.55-1.51,3.03-2.38,4.45,1.05,1.74,2.21,3.37,3.47,4.9,5.53-.33,11-1.79,16.05-4.36-.26-1.73-.43-3.49-.47-5.28Z"/>
      <path class="pine-121" d="m104.08,116.33h0c-.18-7.91,5.49-14.74,13.29-16.03l1.92-.32c-.43-2.35-1.39-4.63-2.91-6.66l-7.15-9.54-20.52,13.13c-1.34.86-2.5,1.89-3.49,3.05,3.76,4.58,4.76,11.02,2.19,16.66h0c-.71,1.55-1.51,3.03-2.38,4.45,1.05,1.74,2.21,3.37,3.47,4.9,5.53-.33,11-1.79,16.05-4.36-.26-1.73-.43-3.49-.47-5.28Z"/>
      <path class="pine-19" d="m104.08,116.33h0c-.18-7.91,5.49-14.74,13.29-16.03l1.92-.32c-.43-2.35-1.39-4.63-2.91-6.66l-7.15-9.54-20.52,13.13c-1.34.86-2.5,1.89-3.49,3.05,3.76,4.58,4.76,11.02,2.19,16.66h0c-.71,1.55-1.51,3.03-2.38,4.45,1.05,1.74,2.21,3.37,3.47,4.9,5.53-.33,11-1.79,16.05-4.36-.26-1.73-.43-3.49-.47-5.28Z"/>
      <path class="pine-116" d="m104.08,116.33h0c-.18-7.91,5.49-14.74,13.29-16.03l1.92-.32c-.43-2.35-1.39-4.63-2.91-6.66l-7.15-9.54-20.52,13.13c-1.34.86-2.5,1.89-3.49,3.05,3.76,4.58,4.76,11.02,2.19,16.66h0c-.71,1.55-1.51,3.03-2.38,4.45,1.05,1.74,2.21,3.37,3.47,4.9,5.53-.33,11-1.79,16.05-4.36-.26-1.73-.43-3.49-.47-5.28Z"/>
      <path class="pine-111" d="m55.65,93.32l6.7-8.94-5.62-3.59c-8.92-5.71-20.83-1.26-23.81,8.9l-2.08,7.1,21.84,3.62c.39-2.5,1.36-4.94,2.98-7.09Z"/>
      <path class="pine-34" d="m59.01,139.59c8.73-1.93,16.75-6.7,22.62-13.77-5.28-.57-10.46-2.16-15.24-4.78-.91,6.88-3.51,13.2-7.38,18.54Z"/>
      <path class="pine-109" d="m82.81,116.89h0c-2.62-5.75-1.53-12.33,2.4-16.92-1.03-1.26-2.27-2.39-3.7-3.31l-19.16-12.27-6.7,8.94c-1.61,2.15-2.59,4.59-2.98,7.09l.78.13c7.8,1.29,13.46,8.13,13.29,16.03h0c-.03,1.51-.16,3-.35,4.46,4.78,2.62,9.96,4.21,15.24,4.78,1.23-1.48,2.37-3.07,3.39-4.74-.81-1.34-1.55-2.73-2.22-4.18Z"/>
      <path class="pine-88" d="m82.81,116.89h0c-2.62-5.75-1.53-12.33,2.4-16.92-1.03-1.26-2.27-2.39-3.7-3.31l-19.16-12.27-6.7,8.94c-1.61,2.15-2.59,4.59-2.98,7.09l.78.13c7.8,1.29,13.46,8.13,13.29,16.03h0c-.03,1.51-.16,3-.35,4.46,4.78,2.62,9.96,4.21,15.24,4.78,1.23-1.48,2.37-3.07,3.39-4.74-.81-1.34-1.55-2.73-2.22-4.18Z"/>
      <path class="pine-66" d="m82.81,116.89h0c-2.62-5.75-1.53-12.33,2.4-16.92-1.03-1.26-2.27-2.39-3.7-3.31l-19.16-12.27-6.7,8.94c-1.61,2.15-2.59,4.59-2.98,7.09l.78.13c7.8,1.29,13.46,8.13,13.29,16.03h0c-.03,1.51-.16,3-.35,4.46,4.78,2.62,9.96,4.21,15.24,4.78,1.23-1.48,2.37-3.07,3.39-4.74-.81-1.34-1.55-2.73-2.22-4.18Z"/>
      <path class="pine-130" d="m82.81,116.89h0c.66,1.46,1.41,2.85,2.22,4.18.87-1.42,1.67-2.89,2.38-4.45h0c2.57-5.64,1.57-12.09-2.19-16.66-3.94,4.59-5.02,11.18-2.4,16.92Z"/>
      <path class="pine-73" d="m82.81,116.89h0c.66,1.46,1.41,2.85,2.22,4.18.87-1.42,1.67-2.89,2.38-4.45h0c2.57-5.64,1.57-12.09-2.19-16.66-3.94,4.59-5.02,11.18-2.4,16.92Z"/>
      <path class="pine-23" d="m82.81,116.89h0c.66,1.46,1.41,2.85,2.22,4.18.87-1.42,1.67-2.89,2.38-4.45h0c2.57-5.64,1.57-12.09-2.19-16.66-3.94,4.59-5.02,11.18-2.4,16.92Z"/>
      <path class="pine-35" d="m82.81,116.89h0c.66,1.46,1.41,2.85,2.22,4.18.87-1.42,1.67-2.89,2.38-4.45h0c2.57-5.64,1.57-12.09-2.19-16.66-3.94,4.59-5.02,11.18-2.4,16.92Z"/>
      <path class="pine-26" d="m82.81,116.89h0c.66,1.46,1.41,2.85,2.22,4.18.87-1.42,1.67-2.89,2.38-4.45h0c2.57-5.64,1.57-12.09-2.19-16.66-3.94,4.59-5.02,11.18-2.4,16.92Z"/>
      <path class="pine-128" d="m33.29,136.86h0c-7.2-3.28-10.89-11.35-8.66-18.94l6.21-21.13-6.41-1.06c-10.45-1.73-19.64,7.05-18.37,17.57l3.51,29.21c.94,7.85,7.52,13.81,15.42,13.99h0c13.95.31,26.42-6.41,34.03-16.92-8.35,1.84-17.34,1.1-25.72-2.72Z"/>
      <path class="pine-36" d="m57.12,114.09h0c-3.69-3.69-5.21-8.81-4.45-13.68l-21.84-3.62-6.21,21.13c-2.23,7.59,1.46,15.66,8.66,18.94h0c8.38,3.82,17.37,4.57,25.72,2.72,3.87-5.34,6.48-11.67,7.38-18.54-3.33-1.82-6.45-4.13-9.27-6.95Z"/>
      <path class="pine-80" d="m57.12,114.09h0c-3.69-3.69-5.21-8.81-4.45-13.68l-21.84-3.62-6.21,21.13c-2.23,7.59,1.46,15.66,8.66,18.94h0c8.38,3.82,17.37,4.57,25.72,2.72,3.87-5.34,6.48-11.67,7.38-18.54-3.33-1.82-6.45-4.13-9.27-6.95Z"/>
      <path class="pine-129" d="m57.12,114.09h0c2.82,2.82,5.95,5.13,9.27,6.95.19-1.47.31-2.95.35-4.46h0c.18-7.91-5.49-14.74-13.29-16.03l-.78-.13c-.76,4.87.76,9.98,4.45,13.68Z"/>
      <path class="pine-158" d="m57.12,114.09h0c2.82,2.82,5.95,5.13,9.27,6.95.19-1.47.31-2.95.35-4.46h0c.18-7.91-5.49-14.74-13.29-16.03l-.78-.13c-.76,4.87.76,9.98,4.45,13.68Z"/>
      <path class="pine-28" d="m57.12,114.09h0c2.82,2.82,5.95,5.13,9.27,6.95.19-1.47.31-2.95.35-4.46h0c.18-7.91-5.49-14.74-13.29-16.03l-.78-.13c-.76,4.87.76,9.98,4.45,13.68Z"/>
      <path class="pine-125" d="m57.12,114.09h0c2.82,2.82,5.95,5.13,9.27,6.95.19-1.47.31-2.95.35-4.46h0c.18-7.91-5.49-14.74-13.29-16.03l-.78-.13c-.76,4.87.76,9.98,4.45,13.68Z"/>
      <path class="pine-44" d="m146.39,95.49l-7.13,1.18,6.32,21.52c2.23,7.59-1.46,15.66-8.66,18.94-8,3.64-16.55,4.48-24.57,2.95,7.65,10.08,19.85,16.49,33.48,16.18h0c7.91-.18,14.48-6.14,15.42-13.99l3.51-29.21c1.26-10.52-7.92-19.3-18.37-17.57Z"/>
      <path class="pine-126" d="m136.93,137.13c7.2-3.28,10.89-11.35,8.66-18.94l-6.32-21.52-19.98,3.31c.92,5-.58,10.31-4.39,14.11h0c-3.12,3.12-6.62,5.62-10.35,7.52,1.05,6.88,3.8,13.18,7.81,18.46,8.02,1.53,16.57.69,24.57-2.95Z"/>
      <path class="pine-51" d="m136.93,137.13c7.2-3.28,10.89-11.35,8.66-18.94l-6.32-21.52-19.98,3.31c.92,5-.58,10.31-4.39,14.11h0c-3.12,3.12-6.62,5.62-10.35,7.52,1.05,6.88,3.8,13.18,7.81,18.46,8.02,1.53,16.57.69,24.57-2.95Z"/>
      <path class="pine-170" d="m136.93,137.13c7.2-3.28,10.89-11.35,8.66-18.94l-6.32-21.52-19.98,3.31c.92,5-.58,10.31-4.39,14.11h0c-3.12,3.12-6.62,5.62-10.35,7.52,1.05,6.88,3.8,13.18,7.81,18.46,8.02,1.53,16.57.69,24.57-2.95Z"/>
      <path class="pine-95" d="m104.08,116.33h0c.04,1.79.21,3.55.47,5.28,3.73-1.9,7.23-4.4,10.35-7.52h0c3.8-3.8,5.3-9.11,4.39-14.11l-1.92.32c-7.8,1.29-13.46,8.13-13.29,16.03Z"/>
      <path class="pine-110" d="m104.08,116.33h0c.04,1.79.21,3.55.47,5.28,3.73-1.9,7.23-4.4,10.35-7.52h0c3.8-3.8,5.3-9.11,4.39-14.11l-1.92.32c-7.8,1.29-13.46,8.13-13.29,16.03Z"/>
      <path class="pine-175" d="m104.08,116.33h0c.04,1.79.21,3.55.47,5.28,3.73-1.9,7.23-4.4,10.35-7.52h0c3.8-3.8,5.3-9.11,4.39-14.11l-1.92.32c-7.8,1.29-13.46,8.13-13.29,16.03Z"/>
      <path class="pine-171" d="m104.08,116.33h0c.04,1.79.21,3.55.47,5.28,3.73-1.9,7.23-4.4,10.35-7.52h0c3.8-3.8,5.3-9.11,4.39-14.11l-1.92.32c-7.8,1.29-13.46,8.13-13.29,16.03Z"/>
      <path class="pine-145" d="m104.08,116.33h0c.04,1.79.21,3.55.47,5.28,3.73-1.9,7.23-4.4,10.35-7.52h0c3.8-3.8,5.3-9.11,4.39-14.11l-1.92.32c-7.8,1.29-13.46,8.13-13.29,16.03Z"/>
    </g>
    <g id="row2">
      <path class="pine-156" d="m84.12,132.51c1.05-1.23,2.28-2.32,3.7-3.23l21.77-13.94-11.14-14.85c-6.74-8.99-20.23-8.99-26.98,0l-11.62,15.49,20.33,13.02c1.53.98,2.83,2.17,3.93,3.51Z"/>
      <path class="pine-3" d="m84.12,132.51c1.05-1.23,2.28-2.32,3.7-3.23l21.77-13.94-11.14-14.85c-6.74-8.99-20.23-8.99-26.98,0l-11.62,15.49,20.33,13.02c1.53.98,2.83,2.17,3.93,3.51Z"/>
      <path class="pine-92" d="m80.32,159.94c2.42.26,4.85.31,7.28.17-1.34-1.62-2.57-3.36-3.68-5.2-1.09,1.78-2.29,3.46-3.6,5.03Z"/>
      <path class="pine-90" d="m80.32,159.94c2.42.26,4.85.31,7.28.17-1.34-1.62-2.57-3.36-3.68-5.2-1.09,1.78-2.29,3.46-3.6,5.03Z"/>
      <path class="pine-30" d="m87.6,160.11c6.51,7.89,15.54,13.09,25.32,14.96-4.26-5.61-7.18-12.29-8.29-19.59-5.36,2.73-11.17,4.27-17.04,4.63Z"/>
      <path class="pine-99" d="m87.6,160.11c6.51,7.89,15.54,13.09,25.32,14.96-4.26-5.61-7.18-12.29-8.29-19.59-5.36,2.73-11.17,4.27-17.04,4.63Z"/>
      <path class="pine-89" d="m120.28,132.53l21.2-3.51-2.09-7.12c-3.17-10.79-15.8-15.51-25.27-9.45l-4.52,2.9,7.59,10.12c1.61,2.15,2.63,4.57,3.09,7.06Z"/>
      <path class="pine-123" d="m120.28,132.53l21.2-3.51-2.09-7.12c-3.17-10.79-15.8-15.51-25.27-9.45l-4.52,2.9,7.59,10.12c1.61,2.15,2.63,4.57,3.09,7.06Z"/>
      <path class="pine-14" d="m104.14,149.88h0c-.19-8.39,5.82-15.64,14.1-17.01l2.04-.34c-.46-2.49-1.48-4.92-3.09-7.06l-7.59-10.12-21.77,13.94c-1.42.91-2.65,2.01-3.7,3.23,3.99,4.86,5.05,11.69,2.32,17.68h0c-.75,1.65-1.6,3.21-2.52,4.72,1.11,1.84,2.34,3.58,3.68,5.2,5.87-.36,11.68-1.9,17.04-4.63-.28-1.83-.46-3.7-.5-5.6Z"/>
      <path class="pine-22" d="m104.14,149.88h0c-.19-8.39,5.82-15.64,14.1-17.01l2.04-.34c-.46-2.49-1.48-4.92-3.09-7.06l-7.59-10.12-21.77,13.94c-1.42.91-2.65,2.01-3.7,3.23,3.99,4.86,5.05,11.69,2.32,17.68h0c-.75,1.65-1.6,3.21-2.52,4.72,1.11,1.84,2.34,3.58,3.68,5.2,5.87-.36,11.68-1.9,17.04-4.63-.28-1.83-.46-3.7-.5-5.6Z"/>
      <path class="pine-166" d="m104.14,149.88h0c-.19-8.39,5.82-15.64,14.1-17.01l2.04-.34c-.46-2.49-1.48-4.92-3.09-7.06l-7.59-10.12-21.77,13.94c-1.42.91-2.65,2.01-3.7,3.23,3.99,4.86,5.05,11.69,2.32,17.68h0c-.75,1.65-1.6,3.21-2.52,4.72,1.11,1.84,2.34,3.58,3.68,5.2,5.87-.36,11.68-1.9,17.04-4.63-.28-1.83-.46-3.7-.5-5.6Z"/>
      <path class="pine-63" d="m104.14,149.88h0c-.19-8.39,5.82-15.64,14.1-17.01l2.04-.34c-.46-2.49-1.48-4.92-3.09-7.06l-7.59-10.12-21.77,13.94c-1.42.91-2.65,2.01-3.7,3.23,3.99,4.86,5.05,11.69,2.32,17.68h0c-.75,1.65-1.6,3.21-2.52,4.72,1.11,1.84,2.34,3.58,3.68,5.2,5.87-.36,11.68-1.9,17.04-4.63-.28-1.83-.46-3.7-.5-5.6Z"/>
      <path class="pine-50" d="m52.75,125.46l7.11-9.48-5.96-3.81c-9.47-6.06-22.1-1.34-25.27,9.45l-2.21,7.53,23.17,3.84c.41-2.66,1.45-5.25,3.16-7.52Z"/>
      <path class="pine-100" d="m56.32,174.55c9.27-2.05,17.77-7.11,24-14.61-5.6-.6-11.1-2.29-16.17-5.07-.96,7.3-3.73,14.01-7.83,19.68Z"/>
      <path class="pine-84" d="m81.57,150.47h0c-2.78-6.1-1.63-13.09,2.55-17.96-1.1-1.34-2.4-2.53-3.93-3.51l-20.33-13.02-7.11,9.48c-1.71,2.28-2.75,4.87-3.16,7.52l.83.14c8.28,1.37,14.29,8.62,14.1,17.01h0c-.04,1.6-.17,3.18-.37,4.74,5.07,2.78,10.57,4.47,16.17,5.07,1.31-1.57,2.51-3.25,3.6-5.03-.86-1.42-1.65-2.9-2.35-4.44Z"/>
      <path class="pine-132" d="m81.57,150.47h0c-2.78-6.1-1.63-13.09,2.55-17.96-1.1-1.34-2.4-2.53-3.93-3.51l-20.33-13.02-7.11,9.48c-1.71,2.28-2.75,4.87-3.16,7.52l.83.14c8.28,1.37,14.29,8.62,14.1,17.01h0c-.04,1.6-.17,3.18-.37,4.74,5.07,2.78,10.57,4.47,16.17,5.07,1.31-1.57,2.51-3.25,3.6-5.03-.86-1.42-1.65-2.9-2.35-4.44Z"/>
      <path class="pine-168" d="m81.57,150.47h0c-2.78-6.1-1.63-13.09,2.55-17.96-1.1-1.34-2.4-2.53-3.93-3.51l-20.33-13.02-7.11,9.48c-1.71,2.28-2.75,4.87-3.16,7.52l.83.14c8.28,1.37,14.29,8.62,14.1,17.01h0c-.04,1.6-.17,3.18-.37,4.74,5.07,2.78,10.57,4.47,16.17,5.07,1.31-1.57,2.51-3.25,3.6-5.03-.86-1.42-1.65-2.9-2.35-4.44Z"/>
      <path class="pine-94" d="m81.57,150.47h0c.7,1.54,1.5,3.02,2.35,4.44.92-1.5,1.77-3.07,2.52-4.72h0c2.73-5.99,1.66-12.82-2.32-17.68-4.18,4.87-5.33,11.86-2.55,17.96Z"/>
      <path class="pine-81" d="m81.57,150.47h0c.7,1.54,1.5,3.02,2.35,4.44.92-1.5,1.77-3.07,2.52-4.72h0c2.73-5.99,1.66-12.82-2.32-17.68-4.18,4.87-5.33,11.86-2.55,17.96Z"/>
      <path class="pine-161" d="m81.57,150.47h0c.7,1.54,1.5,3.02,2.35,4.44.92-1.5,1.77-3.07,2.52-4.72h0c2.73-5.99,1.66-12.82-2.32-17.68-4.18,4.87-5.33,11.86-2.55,17.96Z"/>
      <path class="pine-137" d="m81.57,150.47h0c.7,1.54,1.5,3.02,2.35,4.44.92-1.5,1.77-3.07,2.52-4.72h0c2.73-5.99,1.66-12.82-2.32-17.68-4.18,4.87-5.33,11.86-2.55,17.96Z"/>
      <path class="pine-82" d="m81.57,150.47h0c.7,1.54,1.5,3.02,2.35,4.44.92-1.5,1.77-3.07,2.52-4.72h0c2.73-5.99,1.66-12.82-2.32-17.68-4.18,4.87-5.33,11.86-2.55,17.96Z"/>
      <path class="pine-165" d="m29.02,171.66h0c-7.64-3.48-11.55-12.04-9.19-20.09l6.59-22.42-6.8-1.13c-11.09-1.84-20.84,7.48-19.5,18.64l3.72,31c1,8.33,7.97,14.66,16.36,14.85h0c14.8.33,28.03-6.8,36.11-17.96-8.86,1.96-18.4,1.16-27.3-2.89Z"/>
      <path class="pine-43" d="m54.31,147.5h0c-3.92-3.92-5.52-9.35-4.72-14.51l-23.17-3.84-6.59,22.42c-2.36,8.05,1.55,16.61,9.19,20.09h0c8.89,4.05,18.44,4.85,27.3,2.89,4.11-5.67,6.87-12.38,7.83-19.68-3.53-1.93-6.85-4.38-9.84-7.37Z"/>
      <path class="pine-18" d="m54.31,147.5h0c-3.92-3.92-5.52-9.35-4.72-14.51l-23.17-3.84-6.59,22.42c-2.36,8.05,1.55,16.61,9.19,20.09h0c8.89,4.05,18.44,4.85,27.3,2.89,4.11-5.67,6.87-12.38,7.83-19.68-3.53-1.93-6.85-4.38-9.84-7.37Z"/>
      <path class="pine-27" d="m54.31,147.5h0c2.99,2.99,6.31,5.44,9.84,7.37.2-1.55.33-3.13.37-4.74h0c.19-8.39-5.82-15.64-14.1-17.01l-.83-.14c-.8,5.17.8,10.6,4.72,14.51Z"/>
      <path class="pine-54" d="m54.31,147.5h0c2.99,2.99,6.31,5.44,9.84,7.37.2-1.55.33-3.13.37-4.74h0c.19-8.39-5.82-15.64-14.1-17.01l-.83-.14c-.8,5.17.8,10.6,4.72,14.51Z"/>
      <path class="pine-67" d="m54.31,147.5h0c2.99,2.99,6.31,5.44,9.84,7.37.2-1.55.33-3.13.37-4.74h0c.19-8.39-5.82-15.64-14.1-17.01l-.83-.14c-.8,5.17.8,10.6,4.72,14.51Z"/>
      <path class="pine-147" d="m54.31,147.5h0c2.99,2.99,6.31,5.44,9.84,7.37.2-1.55.33-3.13.37-4.74h0c.19-8.39-5.82-15.64-14.1-17.01l-.83-.14c-.8,5.17.8,10.6,4.72,14.51Z"/>
      <path class="pine-160" d="m149.04,127.76l-7.56,1.25,6.71,22.84c2.36,8.05-1.55,16.61-9.19,20.09h0c-8.48,3.87-17.56,4.76-26.07,3.13,8.12,10.7,21.07,17.5,35.52,17.17h0c8.39-.19,15.36-6.51,16.36-14.85l3.72-31c1.34-11.16-8.41-20.48-19.5-18.64Z"/>
      <path class="pine-7" d="m139,171.94h0c7.64-3.48,11.55-12.04,9.19-20.09l-6.71-22.84-21.2,3.51c.97,5.3-.62,10.94-4.65,14.97-3.31,3.31-7.03,5.96-10.98,7.98,1.11,7.3,4.03,13.98,8.29,19.59,8.51,1.63,17.59.74,26.07-3.13Z"/>
      <path class="pine-8" d="m139,171.94h0c7.64-3.48,11.55-12.04,9.19-20.09l-6.71-22.84-21.2,3.51c.97,5.3-.62,10.94-4.65,14.97-3.31,3.31-7.03,5.96-10.98,7.98,1.11,7.3,4.03,13.98,8.29,19.59,8.51,1.63,17.59.74,26.07-3.13Z"/>
      <path class="pine-79" d="m139,171.94h0c7.64-3.48,11.55-12.04,9.19-20.09l-6.71-22.84-21.2,3.51c.97,5.3-.62,10.94-4.65,14.97-3.31,3.31-7.03,5.96-10.98,7.98,1.11,7.3,4.03,13.98,8.29,19.59,8.51,1.63,17.59.74,26.07-3.13Z"/>
      <path class="pine-86" d="m104.14,149.88h0c.04,1.9.22,3.77.5,5.6,3.96-2.02,7.67-4.67,10.98-7.98,4.04-4.04,5.63-9.67,4.65-14.97l-2.04.34c-8.28,1.37-14.29,8.62-14.1,17.01Z"/>
      <path class="pine-13" d="m104.14,149.88h0c.04,1.9.22,3.77.5,5.6,3.96-2.02,7.67-4.67,10.98-7.98,4.04-4.04,5.63-9.67,4.65-14.97l-2.04.34c-8.28,1.37-14.29,8.62-14.1,17.01Z"/>
      <path class="pine-32" d="m104.14,149.88h0c.04,1.9.22,3.77.5,5.6,3.96-2.02,7.67-4.67,10.98-7.98,4.04-4.04,5.63-9.67,4.65-14.97l-2.04.34c-8.28,1.37-14.29,8.62-14.1,17.01Z"/>
      <path class="pine-64" d="m104.14,149.88h0c.04,1.9.22,3.77.5,5.6,3.96-2.02,7.67-4.67,10.98-7.98,4.04-4.04,5.63-9.67,4.65-14.97l-2.04.34c-8.28,1.37-14.29,8.62-14.1,17.01Z"/>
      <path class="pine-98" d="m104.14,149.88h0c.04,1.9.22,3.77.5,5.6,3.96-2.02,7.67-4.67,10.98-7.98,4.04-4.04,5.63-9.67,4.65-14.97l-2.04.34c-8.28,1.37-14.29,8.62-14.1,17.01Z"/>
    </g>
    <g id="row1">
      <path class="pine-146" d="m53.78,181.08h0c-6.26-6.26-6.96-16.17-1.65-23.25l19.76-26.35c7.12-9.49,21.35-9.49,28.46,0l19.76,26.35c5.31,7.08,4.61,16.99-1.65,23.25h0c-17.86,17.86-46.82,17.86-64.69,0Z"/>
      <path class="pine-5" d="m82.54,184.21h0c-3.67-8.06-.86-17.59,6.6-22.36l27.74-17.76c9.99-6.39,23.32-1.41,26.66,9.97l9.28,31.61c2.49,8.49-1.64,17.53-9.69,21.2h0c-22.99,10.47-50.11.33-60.59-22.66Z"/>
      <path class="pine-146" d="m53.78,181.08h0c-6.26-6.26-6.96-16.17-1.65-23.25l19.76-26.35c7.12-9.49,21.35-9.49,28.46,0l19.76,26.35c5.31,7.08,4.61,16.99-1.65,23.25h0c-17.86,17.86-46.82,17.86-64.69,0Z"/>
      <path class="pine-140" d="m82.54,184.21h0c-3.67-8.06-.86-17.59,6.6-22.36l27.74-17.76c9.99-6.39,23.32-1.41,26.66,9.97l9.28,31.61c2.49,8.49-1.64,17.53-9.69,21.2h0c-22.99,10.47-50.11.33-60.59-22.66Z"/>
      <path class="pine-159" d="m87.68,183.92h0c3.67-8.06.86-17.59-6.6-22.36l-27.74-17.76c-9.99-6.39-23.32-1.41-26.66,9.97l-9.28,31.61c-2.49,8.49,1.64,17.53,9.69,21.2h0c22.99,10.47,50.11.33,60.59-22.66Z"/>
    </g>
    <path id="base" class="pine-62" d="m116.38,190.63l-17.18-22.91c-6.19-8.25-18.56-8.25-24.74,0l-17.18,22.91c-4.62,6.16-4.01,14.77,1.44,20.21h0c6.23,6.23,14,9.95,22.09,11.18v13.38c0,1.52,1.24,2.76,2.76,2.76h6.36c1.52,0,2.76-1.24,2.76-2.76v-13.35c8.15-1.21,15.99-4.94,22.26-11.21h0c5.44-5.44,6.05-14.06,1.44-20.21Z"/>
  </g>
</svg>