<?xml version="1.0" encoding="UTF-8"?>
<svg id="red-bird_side" xmlns="http://www.w3.org/2000/svg" xmlns:xlink="http://www.w3.org/1999/xlink" viewBox="0 0 198.18 451.85">
  <defs>
    <style>
      .s_red-lw-feather1 {
        fill: url(#bird-grad-6);
      }

      .s_red-rw-feather3 {
        fill: url(#bird-grad-5);
      }

      .s_red-solids {
        fill: #c1272d;
      }

      .s_red-lw-feather2 {
        fill: url(#bird-grad-7);
      }

      .s_red-rw-feather2 {
        fill: url(#bird-grad-4);
      }

      .s_red-rw-feather1 {
        fill: url(#bird-grad-3);
      }

      .s_red-lw-feather3 {
        fill: url(#bird-grad-8);
      }

      .s_red-lw-feather2 {
        fill: url(#bird-grad-8);
      }

      .s_red-tail-feather1 {
        fill: url(#bird-grad);
      }

      .s_red-tail-feather2 {
        fill: url(#bird-grad);
      }

      .hidden { opacity: 0; }

      #red-bird_side:hover .hidden { opacity: 1; fill: #f7931e; position: absolute; transition: ease-in-out .2s; } 

      #red-bird_side:hover .s_red-solids {
        fill: #fbc851; transition: ease-in-out .2s;
      }
      #red-bird_side:hover .s_red-tail-feather1 {
        fill: #fbc851; transition: ease-in-out .2s;
      } 
       #red-bird_side:hover .s_red-tail-feather2 {
        fill: #fbc851; transition: ease-in-out .2s;
      } 
      #red-bird_side:hover .s_red-lw-feather2 {
        fill: #fbb251; transition: ease-in-out .2s;
      } 
      #red-bird_side:hover .s_red-lw-feather1 {
        fill: #fbb251; transition: ease-in-out .2s;
      } 
      #red-bird_side:hover .s_red-lw-feather3 {
        fill: #fbb251; transition: ease-in-out .2s;
      } 
      #red-bird_side:hover .s_red-rw-feather1 {
        fill: #fbb251; transition: ease-in-out .2s;
      } 
      #red-bird_side:hover .s_red-rw-feather2 {
        fill: #fbb251; transition: ease-in-out .2s;
      } 
      #red-bird_side:hover .s_red-rw-feather3 {
        fill: #fbb251; transition: ease-in-out .2s;
      } 


      FBB251

    </style>
    <script>
        const redBirdSide = document.querySelector('#red-bird_side');

        function logBirdyId() {
          console.log('do my puns Quack you up?');
        }      

        redBirdSide.addEventListener('click', logBirdyId);
    </script>
    <linearGradient id="bird-grad" x1="219.37" y1="1387.93" x2="219.23" y2="1398.21" gradientTransform="translate(271.38 -1574.4) rotate(-180) scale(1 -1.31)" gradientUnits="userSpaceOnUse">
      <stop offset="0" stop-color="#7e1a1d"/>
      <stop offset="1" stop-color="#c1272d"/>
    </linearGradient>
    <linearGradient id="bird-grad-2" data-name="bird-grad" x1="211.29" y1="1392.3" x2="211.14" y2="1402.58" gradientTransform="translate(262.97 -1563.68) rotate(-180) scale(1 -1.31)" xlink:href="#bird-grad"/>
    <linearGradient id="bird-grad-3" data-name="bird-grad" x1="227.8" y1="274.33" x2="227.44" y2="299.72" gradientTransform="translate(-67.57 -46.49) rotate(-2.51)" xlink:href="#bird-grad"/>
    <linearGradient id="bird-grad-4" data-name="bird-grad" x1="104.57" y1="175.21" x2="104.19" y2="200.67" gradientTransform="translate(269.16 473.98) rotate(-180)" xlink:href="#bird-grad"/>
    <linearGradient id="bird-grad-5" data-name="bird-grad" x1="353.25" y1="424.62" x2="352.9" y2="449.57" gradientTransform="translate(-258.12 -130.84) rotate(-11.44)" xlink:href="#bird-grad"/>
    <linearGradient id="bird-grad-6" data-name="bird-grad" x1="-1664.98" y1="139.27" x2="-1665.34" y2="164.66" gradientTransform="translate(-1585.23 -12.81) rotate(-176.91) scale(1 -1)" xlink:href="#bird-grad"/>
    <linearGradient id="bird-grad-7" data-name="bird-grad" x1="-1791.9" y1="282.98" x2="-1792.28" y2="308.49" gradientTransform="translate(-1732.65 77.63) rotate(175.76) scale(1 -1)" xlink:href="#bird-grad"/>
    <linearGradient id="bird-grad-8" data-name="bird-grad" x1="-1493.69" y1="-2.42" x2="-1494.05" y2="22.61" gradientTransform="translate(-1393.83 -95.22) rotate(-167.98) scale(1 -1)" xlink:href="#bird-grad"/>
  </defs>
  <g id="redbird-side">
    <g id="s_red-tail-feather">
      <path class="s_red-tail-feather1" d="m55.08,221.41h0c3.12,0,5.66,2.54,5.66,5.66v98.24h0c-9.38,0-17-7.62-17-17v-75.56c0-6.26,5.08-11.34,11.34-11.34Z" transform="translate(327.43 314.83) rotate(109.39)"/>
      <path class="s_red-tail-feather2" d="m54.67,229.74h0c3.12,0,5.66,2.54,5.66,5.66v98.24h0c-9.38,0-17-7.62-17-17v-75.56c0-6.26,5.08-11.34,11.34-11.34Z" transform="translate(334.75 326.32) rotate(109.39)"/>
    </g>
    <g id="s_red-right-wing">
      <path class="s_red-rw-feather1" d="m165.36,366.07h0c9.43-1.01,17.06-13.17,17.04-27.18l-.23-153.13c-.01-9.34-5.13-16.37-11.42-15.7h0c-3.14.34-5.68,4.39-5.67,9.05l.29,186.96Z"/>
      <path class="s_red-rw-feather2" d="m173.53,165.57h0v190.63c0,3.12-2.54,5.66-5.66,5.66h0c-6.26,0-11.34-5.08-11.34-11.34v-167.95c0-9.38,7.62-17,17-17Z" transform="translate(307.32 540.37) rotate(-175.18)"/>
      <path class="s_red-rw-feather3" d="m183.79,361.3h0c9.31-3.17,15.66-16.82,14.17-30.5l-16.23-149.57c-.99-9.12-6.83-14.81-13.04-12.7h0c-3.1,1.05-5.21,5.6-4.72,10.15l19.81,182.61Z"/>
    </g>
    <path id="s_red-legs" d="m152.98,443.22c-.28,1.37-1.62,2.25-2.99,1.96l-14.39-2.98c-1.05-.22-1.8-1.05-1.97-2.05-.13-.29-.2-.6-.2-.94v-145.87c0-1.29,1.05-2.34,2.34-2.34s2.34,1.05,2.34,2.34v144.21l12.91,2.67c1.37.28,2.25,1.62,1.96,2.99Zm-50.61-152.64c-1.29,0-2.34,1.05-2.34,2.34v144.55s-.1.06-.14.1l-10.87,9.89c-1.03.94-1.11,2.54-.17,3.57.94,1.03,2.54,1.11,3.57.17l10.87-9.89c.23-.21.4-.45.53-.71.53-.43.88-1.08.88-1.82v-145.87c0-1.29-1.05-2.34-2.34-2.34Z"/>
    <path id="s_red-body" class="s_red-solids" d="m183.31,92.1v-13.56c0-36.35-29.47-65.82-65.82-65.82h-1.52c-36,0-65.18,29.18-65.18,65.18v13.67c0,22.78,14.82,42.08,35.33,48.83-11.83,7.14-20.14,19.63-21.45,34.3l-6.78,75.81c-3,33.56,23.44,62.47,57.13,62.47h5.56c33.7,0,60.14-28.91,57.14-62.48l-6.86-76.77c-1.29-14.48-9.57-26.78-21.32-33.71,19.68-7.02,33.77-25.82,33.77-47.91Z"/>
    <g id="s_red-left-wing">
      <path class="s_red-lw-feather1" d="m76.67,364.68h0c-11.56-1.1-20.77-13.35-20.57-27.35l2.2-153.12c.13-9.34,6.49-16.32,14.21-15.58h0c3.85.37,6.91,4.44,6.85,9.11l-2.68,186.95Z"/>
      <path class="s_red-lw-feather2" d="m97.65,359.58h0c-11.49.69-21.5-6.33-22.35-15.7l-15.23-167.49c-.57-6.25,5.19-11.68,12.85-12.15h0c3.83-.23,7.16,2.11,7.44,5.23l17.29,190.11Z"/>
      <path class="s_red-lw-feather3" d="m54.11,359.72h0c-11.39-3.26-19.01-16.98-17.01-30.64l21.78-149.4c1.33-9.11,8.56-14.74,16.16-12.56h0c3.79,1.09,6.33,5.65,5.66,10.2l-26.59,182.4Z"/>
    </g>
    <g>
      <path id="face" d="m104.11,82.18h-.09c-2.18,0-3.96-1.77-3.96-3.96v-6c0-2.18,1.77-3.96,3.96-3.96h.09c2.18,0,3.96,1.77,3.96,3.96v6c0,2.18-1.77,3.96-3.96,3.96Zm63.92-4v-5.91c0-2.21-1.79-4-4-4h-.09c-2.21,0-4,1.79-4,4v5.91c0,2.21,1.79,4,4,4h.09c2.21,0,4-1.79,4-4Zm-26.02,19.79l6.44-6.14-6.44-6.14c-3.56-3.39-9.32-3.39-12.88,0l-1.07,1.02c-2.96,2.83-2.96,7.41,0,10.23l1.07,1.02c3.56,3.39,9.32,3.39,12.88,0Z"/>
      <path id="bill" class="hidden" d="m133.26,81.59h49.98c5.75,0,10.41,4.67,10.41,10.41h0c0,5.84-4.74,10.59-10.59,10.59h-63.41v-7.39c0-7.51,6.1-13.61,13.61-13.61Z"/>
    </g>
    <path id="s_red-head-feathers" class="s_red-solids" d="m74.98.06h0c-3.14-.41-6.23,1.24-6.91,3.69-1.04,3.74-.3,7.39,1.75,10.44-7.47-1-15.6.68-21.78,5.12h0c-2.92,2.09-3.2,5.55-.63,7.71h0c9.07,7.62,24.77,7.81,35.06.43l5.29-3.79-1.6-1.34,3.26.43,1.23-4.43c2.4-8.63-4.62-16.8-15.68-18.25Z"/>
  </g>
</svg>