<?xml version="1.0" encoding="UTF-8"?>
<svg id="small-red-bird_side" xmlns="http://www.w3.org/2000/svg" xmlns:xlink="http://www.w3.org/1999/xlink" viewBox="0 0 170.69 298.91">
  <defs>
    <style>
      .s_sm_red-lw-feather2 {
        fill: url(#bird-grad-6);
      }

      .s_sm_red-lw-feather1 {
        fill: url(#bird-grad-5);
      }

      .s_sm_red-body {
        fill: #c1272d;
      }

      .s_sm_red-tail-feather2 {
        fill: url(#bird-grad-4);
      }

      .s_sm_red-tail-feather1 {
        fill: url(#bird-grad-3);
      }

      .s_sm_red-rw-feather2 {
        fill: url(#bird-grad-2);
      }

      .s_sm_red-rw-feather1 {
        fill: url(#bird-grad);
      }
    </style>
    <script>
        const smRedBirdSide = document.querySelector('#small-red-bird_side');

        function logBirdyId() {
          console.log('not putting puns here would truly be a Cardinal sin');
        }      

        smRedBirdSide.addEventListener('click', logBirdyId);
    </script>
    <linearGradient id="bird-grad" x1="162.58" y1="122.5" x2="162.34" y2="139.5" gradientTransform="translate(324.37 312.21) rotate(180)" gradientUnits="userSpaceOnUse">
      <stop offset="0" stop-color="#7e1a1d"/>
      <stop offset="1" stop-color="#c1272d"/>
    </linearGradient>
    <linearGradient id="bird-grad-2" data-name="bird-grad" x1="154.45" y1="129.73" x2="154.2" y2="146.73" gradientTransform="translate(308.37 306.21) rotate(180)" xlink:href="#bird-grad"/>
    <linearGradient id="bird-grad-3" data-name="bird-grad" x1="-233.52" y1="559.79" x2="-233.67" y2="570.07" gradientTransform="translate(-193.28 -457.45) rotate(-180) scale(1 -1)" xlink:href="#bird-grad"/>
    <linearGradient id="bird-grad-4" data-name="bird-grad" x1="-241.6" y1="564.17" x2="-241.76" y2="574.45" gradientTransform="translate(-200.81 -447.45) rotate(-180) scale(1 -1)" xlink:href="#bird-grad"/>
    <linearGradient id="bird-grad-5" data-name="bird-grad" x1="-2180.42" y1="123.5" x2="-2180.66" y2="140.5" gradientTransform="translate(-2132.63) rotate(-180) scale(1 -1)" xlink:href="#bird-grad"/>
    <linearGradient id="bird-grad-6" data-name="bird-grad" x1="-2188.55" y1="130.73" x2="-2188.8" y2="147.73" gradientTransform="translate(-2132.63) rotate(-180) scale(1 -1)" xlink:href="#bird-grad"/>
  </defs>
  <g id="sm-redbird-side">
    <g id="s_sm_red-right-wing">
      <path class="s_sm_red-rw-feather1" d="m170.69,90.61h0v125.34c0,3.12-2.54,5.66-5.66,5.66h0c-6.26,0-11.34-5.08-11.34-11.34v-102.66c0-9.38,7.62-17,17-17Z" transform="translate(324.37 312.21) rotate(-180)"/>
      <path class="s_sm_red-rw-feather2" d="m162.69,87.61h0v125.34c0,3.12-2.54,5.66-5.66,5.66h0c-6.26,0-11.34-5.08-11.34-11.34v-102.66c0-9.38,7.62-17,17-17Z" transform="translate(308.37 306.21) rotate(-180)"/>
    </g>
    <g id="s_sm_red-tail-feathers">
      <path class="s_sm_red-tail-feather1" d="m43.29,83.04h0c3.12,0,5.66,2.54,5.66,5.66v73.53h0c-9.38,0-17-7.62-17-17v-50.85c0-6.26,5.08-11.34,11.34-11.34Z" transform="translate(168.09 103.02) rotate(99.52)"/>
      <path class="s_sm_red-tail-feather2" d="m43.76,91.23h0c3.12,0,5.66,2.54,5.66,5.66v73.53h0c-9.38,0-17-7.62-17-17v-50.85c0-6.26,5.08-11.34,11.34-11.34Z" transform="translate(176.71 112.11) rotate(99.52)"/>
    </g>
    <path id="s_sm_red-legs" d="m137.87,290.27c-.28,1.37-1.62,2.25-2.99,1.96l-14.39-2.98c-1.05-.22-1.8-1.05-1.97-2.05-.13-.29-.2-.6-.2-.94v-145.87c0-1.29,1.05-2.34,2.34-2.34s2.34,1.05,2.34,2.34v144.21l12.91,2.67c1.37.28,2.25,1.62,1.96,2.99Zm-50.61-152.64c-1.29,0-2.34,1.05-2.34,2.34v144.55s-.1.06-.14.1l-10.87,9.89c-1.03.94-1.11,2.54-.17,3.57.94,1.03,2.54,1.11,3.57.17l10.87-9.89c.23-.21.4-.45.53-.71.53-.43.88-1.08.88-1.82v-145.87c0-1.29-1.05-2.34-2.34-2.34Z"/>
    <path id="s_sm_red-body" class="s_sm_red-body" d="m104.86,12.61h0c-8.1,0-15.85,1.49-23.01,4.19.66-6.97-3.31-13.82-10.16-16.48-2.34-.91-4.98.25-5.9,2.59h0c-1.39,3.58-1.41,7.35-.31,10.75-5.58-2.19-12.1-1.8-17.55,1.65-2.58,1.63-3.34,5.05-1.71,7.62h0c2.97,4.69,7.61,7.66,12.66,8.66-11.86,11.8-19.2,28.14-19.2,46.19v18.42c0,28.39,23.01,51.4,51.4,51.4h28.73c28.09,0,50.86-22.77,50.86-50.86v-18.31c0-36.35-29.47-65.82-65.82-65.82Z"/>
    <g id="s_sm_red-left-wing">
      <path class="s_sm_red-lw-feather1" d="m51.03,91.61h0c3.12,0,5.66,2.54,5.66,5.66v125.34h0c-9.38,0-17-7.62-17-17v-102.66c0-6.26,5.08-11.34,11.34-11.34Z"/>
      <path class="s_sm_red-lw-feather2" d="m59.03,88.61h0c3.12,0,5.66,2.54,5.66,5.66v125.34h0c-9.38,0-17-7.62-17-17v-102.66c0-6.26,5.08-11.34,11.34-11.34Z"/>
    </g>
    <path id="s_sm_red-face" d="m87.64,84.61h0c-2.18,0-3.96-1.77-3.96-3.96v-6.51c0-2.18,1.77-3.96,3.96-3.96h0c2.18,0,3.96,1.77,3.96,3.96v6.51c0,2.18-1.77,3.96-3.96,3.96Zm65.04-4v-6.42c0-2.21-1.79-4-4-4h0c-2.21,0-4,1.79-4,4v6.42c0,2.21,1.79,4,4,4h0c2.21,0,4-1.79,4-4Zm-17.64,20.36l6.36-6.36-6.36-6.36c-3.51-3.51-9.21-3.51-12.73,0l-1.06,1.06c-2.93,2.93-2.93,7.68,0,10.61l1.06,1.06c3.51,3.51,9.21,3.51,12.73,0Z"/>
  </g>
</svg>